<svg width="60" height="60" viewBox="0 0 60 60" fill="none" xmlns="http://www.w3.org/2000/svg">
<path d="M52.925 5.15C51.133 4.84133 49.3184 4.68245 47.5 4.675C41.2959 4.66991 35.2212 6.44893 30 9.8C24.7653 6.49293 18.6916 4.75758 12.5 4.8C10.6816 4.80745 8.86698 4.96633 7.07497 5.275C6.48798 5.37619 5.95642 5.68364 5.576 6.14198C5.19558 6.60032 4.99131 7.17942 4.99997 7.775V37.775C4.99461 38.1423 5.07028 38.5063 5.22159 38.8411C5.3729 39.1759 5.59613 39.4732 5.8754 39.7119C6.15467 39.9506 6.48311 40.1248 6.83736 40.2221C7.1916 40.3194 7.56295 40.3375 7.92497 40.275C11.5075 39.6547 15.178 39.7576 18.7201 40.5777C22.2623 41.3978 25.6045 42.9184 28.55 45.05L28.85 45.225H29.125C29.4022 45.3405 29.6996 45.4 30 45.4C30.3003 45.4 30.5977 45.3405 30.875 45.225H31.15L31.45 45.05C34.3749 42.8707 37.7075 41.3008 41.2503 40.4334C44.7932 39.5659 48.4741 39.4185 52.075 40C52.437 40.0625 52.8083 40.0444 53.1626 39.9471C53.5168 39.8498 53.8453 39.6756 54.1245 39.4369C54.4038 39.1982 54.627 38.9009 54.7783 38.5661C54.9297 38.2313 55.0053 37.8673 55 37.5V7.5C54.974 6.93038 54.754 6.38678 54.3766 5.95934C53.9992 5.53191 53.487 5.24634 52.925 5.15ZM27.5 38.375C22.8747 35.9417 17.7263 34.6718 12.5 34.675C11.675 34.675 10.85 34.675 9.99997 34.675V9.675C10.8326 9.62701 11.6673 9.62701 12.5 9.675C17.8334 9.6691 23.0505 11.2342 27.5 14.175V38.375ZM50 34.775C49.15 34.775 48.325 34.775 47.5 34.775C42.2737 34.7718 37.1253 36.0417 32.5 38.475V14.175C36.9494 11.2342 42.1665 9.6691 47.5 9.675C48.3326 9.62701 49.1673 9.62701 50 9.675V34.775ZM52.925 45.15C51.133 44.8413 49.3184 44.6825 47.5 44.675C41.2959 44.6699 35.2212 46.4489 30 49.8C24.7788 46.4489 18.7041 44.6699 12.5 44.675C10.6816 44.6825 8.86698 44.8413 7.07497 45.15C6.74954 45.2016 6.43752 45.3171 6.15687 45.4898C5.87622 45.6624 5.63247 45.8888 5.43963 46.156C5.2468 46.4232 5.10868 46.7259 5.03323 47.0466C4.95777 47.3674 4.94647 47.6999 4.99997 48.025C5.12701 48.6742 5.50619 49.2466 6.05444 49.6168C6.60269 49.987 7.27532 50.1248 7.92497 50C11.5075 49.3797 15.178 49.4826 18.7201 50.3027C22.2623 51.1228 25.6045 52.6434 28.55 54.775C28.9734 55.0765 29.4802 55.2385 30 55.2385C30.5197 55.2385 31.0266 55.0765 31.45 54.775C34.3954 52.6434 37.7376 51.1228 41.2798 50.3027C44.822 49.4826 48.4924 49.3797 52.075 50C52.7246 50.1248 53.3972 49.987 53.9455 49.6168C54.4937 49.2466 54.8729 48.6742 55 48.025C55.0535 47.6999 55.0422 47.3674 54.9667 47.0466C54.8913 46.7259 54.7531 46.4232 54.5603 46.156C54.3675 45.8888 54.1237 45.6624 53.8431 45.4898C53.5624 45.3171 53.2504 45.2016 52.925 45.15V45.15Z" fill="#1BD9B6"/>
</svg>
