<svg width="85" height="84" viewBox="0 0 85 84" fill="none" xmlns="http://www.w3.org/2000/svg">
<path fill-rule="evenodd" clip-rule="evenodd" d="M72.897 17.7336C71.809 17.7018 70.7549 17.348 69.8678 16.717C68.9807 16.0859 68.3005 15.2059 67.9132 14.1881C67.5259 13.1704 67.4489 12.0606 67.6919 10.9991C67.9348 9.93754 68.4869 8.97189 69.2782 8.2242C69.8014 7.72282 70.4199 7.33156 71.0969 7.07358C71.7739 6.8156 72.4958 6.69614 73.2198 6.72227C74.6754 6.7488 76.0612 7.35135 77.0738 8.39798C78.0864 9.44461 78.6432 10.85 78.6223 12.3065C78.6015 13.763 78.0046 15.1519 76.9625 16.1691C75.9203 17.1862 74.5178 17.7488 73.062 17.7336H72.897ZM73.0572 9.14818C72.6532 9.14252 72.252 9.21653 71.8766 9.36598C71.5012 9.51543 71.1589 9.7374 70.8693 10.0192C70.5796 10.301 70.3483 10.6371 70.1884 11.0084C70.0286 11.3797 69.9435 11.7788 69.9378 12.183C69.9321 12.5872 70.0061 12.9885 70.1555 13.3641C70.3048 13.7397 70.5267 14.0822 70.8084 14.372C71.09 14.6618 71.426 14.8933 71.797 15.0532C72.1681 15.2131 72.567 15.2984 72.971 15.304C73.3795 15.3234 73.7877 15.2612 74.1719 15.121C74.5561 14.9808 74.9085 14.7653 75.2085 14.4873C75.5085 14.2093 75.7501 13.8742 75.9192 13.5016C76.0883 13.1291 76.1815 12.7266 76.1934 12.3176C76.2052 11.9086 76.1355 11.5014 75.9882 11.1197C75.841 10.738 75.6192 10.3894 75.3358 10.0945C75.0524 9.79951 74.7131 9.56401 74.3377 9.40174C73.9623 9.23947 73.5583 9.15368 73.1494 9.1494L73.0572 9.14818Z" fill="#1BD9B6"/>
<path fill-rule="evenodd" clip-rule="evenodd" d="M82.3193 17.8552L37.0199 63.2558L39.8817 65.7381C40.0021 65.8426 40.1008 65.9698 40.172 66.1125C40.2433 66.2551 40.2858 66.4105 40.2971 66.5696C40.3083 66.7287 40.2882 66.8884 40.2377 67.0397C40.1873 67.191 40.1075 67.3309 40.003 67.4513L37.2325 70.6446C31.8736 76.8283 18.623 83.9822 8.72304 83.9822C5.72738 84.1411 2.77597 83.2061 0.417634 81.3511C0.296278 81.2456 0.197081 81.1171 0.125803 80.9729C0.0545256 80.8287 0.0125882 80.6718 0.00242677 80.5113C-0.00773466 80.3508 0.0140823 80.1898 0.0666108 80.0378C0.119139 79.8858 0.201332 79.7457 0.308416 79.6258L23.7379 53.4013C23.7449 53.3927 23.752 53.3841 23.7592 53.3757L66.0774 3.77816C66.9973 2.69795 68.1219 1.81067 69.3862 1.16749C70.6506 0.524305 72.0297 0.137958 73.4441 0.0307311C74.8584 -0.0764959 76.28 0.0975194 77.6267 0.542739C78.9735 0.987959 80.2189 1.69557 81.291 2.62476C82.363 3.55395 83.2406 4.68632 83.8731 5.95656C84.5056 7.2268 84.8805 8.60976 84.9761 10.0257C85.0717 11.4416 84.8861 12.8624 84.4301 14.2062C83.9742 15.55 83.2567 16.7902 82.3193 17.8552ZM69.0945 27.6741L35.1805 61.6603L26.3913 54.0362L57.9541 17.0407L69.0945 27.6741ZM70.8098 25.9552L80.5439 16.2003C81.9614 14.5291 82.6628 12.3659 82.4958 10.1804C82.3288 7.99488 81.3069 5.96349 79.652 4.5273C77.9841 3.08412 75.8124 2.3615 73.6128 2.51786C71.4133 2.67422 69.3655 3.69681 67.9183 5.36144L59.5322 15.191L70.8098 25.9552ZM3.01944 80.2413L24.7924 55.8661L34.4455 64.2377C34.4676 64.2568 34.4902 64.2751 34.5135 64.2926L37.3806 66.7787L35.4074 69.0552C32.0253 72.9539 25.3326 77.1804 18.7529 79.5711C12.0081 82.0225 6.37971 82.2423 3.01944 80.2413Z" fill="#1BD9B6"/>
</svg>
