<svg width="68" height="84" viewBox="0 0 68 84" fill="none" xmlns="http://www.w3.org/2000/svg">
<path d="M42.6591 34.8091C44.3181 34.8091 45.9436 35.4643 47.2172 36.6571C49.7978 39.0595 50.2671 43.1419 48.3399 46.3507L44.1002 53.4235C43.7818 53.9443 43.2288 54.2299 42.6591 54.2299C42.3574 54.2299 42.0725 54.1459 41.8044 53.9947C41.0168 53.5243 40.7487 52.4827 41.2346 51.6931L45.4744 44.6203C46.5971 42.7555 46.3625 40.4371 44.9549 39.1099C44.4856 38.6731 43.7148 38.1523 42.6758 38.1523C40.5141 38.1523 38.7545 40.4203 38.7545 43.2259C38.7545 44.1499 38.0004 44.9059 37.0787 44.9059C36.1571 44.9059 35.403 44.1499 35.403 43.2259C35.3694 38.5891 38.6372 34.8091 42.6591 34.8091Z" fill="#1BD9B6"/>
<path d="M64.1233 25.4856C65.0115 25.6368 65.7656 26.208 66.1007 27.0816C67.257 30.156 72.3681 46.1832 58.7608 59.976C58.6268 60.1104 58.543 60.2952 58.543 60.4632V80.1864C58.543 82.2864 56.8337 84 54.739 84H30.5576C28.4629 84 26.7536 82.2864 26.7536 80.1864V73.1472H13.1463C9.79477 73.1472 7.06326 70.4088 7.06326 67.0488V57.9432L2.63922 55.7256C1.48294 55.1376 0.59478 54.096 0.209352 52.8528C-0.176076 51.6096 -0.0252562 50.232 0.628295 49.1064L7.38166 37.1448C7.41517 37.0944 7.44869 37.044 7.4822 36.9768C7.73357 36.624 7.86763 36.2208 7.86763 35.784V28.3752C7.86763 27.1488 8.62173 26.0904 9.67747 25.6536C10.1132 22.9488 11.7554 20.5632 14.1015 19.1856C13.8837 18.396 13.7664 17.5728 13.7664 16.716C13.7664 12.6168 16.5146 9.0552 20.3354 7.9128C20.9722 3.444 24.7929 0 29.4181 0C32.5182 0 35.2498 1.5456 36.9255 3.9144C38.5845 1.5456 41.3161 0 44.4162 0C49.0414 0 52.8621 3.444 53.4989 7.9128C57.3197 9.0552 60.068 12.6 60.068 16.716C60.068 17.556 59.9506 18.396 59.7328 19.1856C62.0286 20.5464 63.6373 22.848 64.1233 25.4856ZM3.52738 50.736C3.32629 51.072 3.29277 51.4752 3.41008 51.8448C3.52738 52.2144 3.77875 52.5168 4.13066 52.7016L9.47637 55.3896C10.0461 55.6752 10.398 56.2632 10.398 56.8848V67.032C10.398 68.544 11.6214 69.7704 13.1296 69.7704H28.4126C29.3343 69.7704 30.0884 70.5264 30.0884 71.4504V80.1696C30.0884 80.4216 30.2895 80.6232 30.5408 80.6232H54.739C54.9904 80.6232 55.1914 80.4216 55.1914 80.1696V60.4464C55.1914 59.388 55.6104 58.3632 56.3812 57.5904C67.9273 45.8976 64.425 32.4408 63.1514 28.7616H11.2192V35.7504C11.2192 36.8592 10.884 37.9176 10.2472 38.8248L3.52738 50.736ZM29.4181 3.36C26.2006 3.36 23.5864 5.9808 23.5864 9.2064C23.5864 10.1976 23.8377 11.1888 24.3237 12.0456C24.7762 12.852 24.4913 13.8768 23.6702 14.3304C22.8658 14.784 21.8436 14.4984 21.3911 13.6752C20.9889 12.9696 20.7041 12.2136 20.503 11.424C18.492 12.3648 17.1011 14.3976 17.1011 16.716C17.1011 18.8832 18.2909 20.8656 20.2013 21.8736C21.0224 22.3104 21.3241 23.3184 20.8884 24.1416C20.5867 24.7128 20.0002 25.032 19.4137 25.032C19.1456 25.032 18.8775 24.9648 18.6261 24.8304C17.4028 24.1752 16.3638 23.268 15.5762 22.1928C14.4031 22.9488 13.5485 24.0912 13.1463 25.4184H35.233V9.1896C35.233 5.9808 32.6188 3.36 29.4181 3.36ZM55.1747 24.8472C54.9233 24.9816 54.6552 25.0488 54.3871 25.0488C53.7838 25.0488 53.1973 24.7296 52.9124 24.1584C52.4767 23.3352 52.7951 22.3272 53.5995 21.8904C55.5098 20.8656 56.6996 18.9 56.6996 16.7328C56.6996 14.4144 55.3088 12.3816 53.2978 11.4408C53.0967 12.2304 52.8119 12.9864 52.4097 13.692C51.9572 14.4984 50.935 14.784 50.1306 14.3304C49.3262 13.8768 49.0414 12.852 49.4938 12.0456C49.9798 11.1888 50.2312 10.1976 50.2312 9.2064C50.2312 5.9808 47.617 3.36 44.3995 3.36C41.182 3.36 38.5678 5.9808 38.5678 9.2064V25.4352H60.6712C60.269 24.108 59.4144 22.9656 58.2414 22.2096C57.437 23.2848 56.4148 24.192 55.1747 24.8472Z" fill="#1BD9B6"/>
</svg>
