<svg width="81" height="84" viewBox="0 0 81 84" fill="none" xmlns="http://www.w3.org/2000/svg">
<path d="M8.16176 46.7786C11.7336 46.7786 14.7546 44.4439 15.8562 41.2358L21.4643 41.958C21.4476 42.2268 21.4309 42.4955 21.4309 42.7642C21.4309 47.7696 23.3169 52.3215 26.3713 55.7816L17.2248 65.5069C15.973 64.7343 14.5209 64.2639 12.952 64.2639C8.4455 64.2639 4.77354 67.9592 4.77354 72.4943C4.77354 77.0294 8.4455 80.7247 12.952 80.7247C17.4585 80.7247 21.1304 77.0294 21.1304 72.4943C21.1304 70.7475 20.5796 69.135 19.6617 67.808L28.8082 58.0996C31.729 60.4511 35.3509 61.9796 39.2899 62.3155V67.7073C35.5846 68.4799 32.7805 71.8056 32.7805 75.7697C32.7805 80.3047 36.4525 84 40.959 84C45.4655 84 49.1374 80.3047 49.1374 75.7697C49.1374 71.8056 46.3334 68.4967 42.6281 67.7073V62.3155C46.7507 61.9628 50.5228 60.3167 53.5104 57.7804L63.1076 67.4385C62.2563 68.7319 61.7556 70.2772 61.7556 71.94C61.7556 76.4751 65.4276 80.1704 69.9341 80.1704C74.4406 80.1704 78.1125 76.4751 78.1125 71.94C78.1125 67.4049 74.4406 63.7097 69.9341 63.7097C68.2817 63.7097 66.7461 64.2136 65.461 65.0702L55.8638 55.4121C57.5996 53.3293 58.9182 50.8938 59.686 48.2064L64.6431 49.1974C64.6932 53.6989 68.3318 57.3437 72.8216 57.3437C77.328 57.3437 81 53.6485 81 49.1134C81 44.5783 77.328 40.883 72.8216 40.883C69.4333 40.883 66.5292 42.949 65.2941 45.9052L60.3536 44.931C60.4371 44.2256 60.4704 43.5033 60.4704 42.781C60.4704 38.2795 58.9349 34.1308 56.3979 30.8218L59.4189 28.0336C60.7709 29.0078 62.4065 29.5957 64.1758 29.5957C68.6823 29.5957 72.3542 25.9004 72.3542 21.3653C72.3542 16.8302 68.6823 13.135 64.1758 13.135C59.6693 13.135 55.9973 16.8302 55.9973 21.3653C55.9973 22.8938 56.448 24.3215 57.1657 25.5477L54.128 28.3359C51.0402 25.4805 47.0344 23.5993 42.6114 23.213V16.2927C46.3167 15.5201 49.1207 12.1944 49.1207 8.23035C49.1207 3.69526 45.4488 0 40.9423 0C36.4358 0 32.7639 3.69526 32.7639 8.23035C32.7639 12.1944 35.5679 15.5033 39.2732 16.2927V23.1962C35.6514 23.5153 32.3132 24.8254 29.5259 26.8746L19.9955 15.7888C21.047 14.4115 21.6979 12.6983 21.6979 10.817C21.6979 6.28194 18.026 2.58668 13.5195 2.58668C9.01298 2.58668 5.34103 6.28194 5.34103 10.817C5.34103 15.3521 9.01298 19.0474 13.5195 19.0474C14.9549 19.0474 16.2901 18.6443 17.4752 17.9724L27.0056 29.0582C24.4853 31.6449 22.6827 34.937 21.8982 38.5987L16.2901 37.8764C15.9563 33.6437 12.468 30.3011 8.17845 30.3011C3.67196 30.3011 0 33.9964 0 38.5315C0 43.0666 3.65527 46.7786 8.16176 46.7786ZM72.8216 44.2256C75.4921 44.2256 77.6619 46.4091 77.6619 49.0966C77.6619 51.784 75.4921 53.9676 72.8216 53.9676C70.151 53.9676 67.9813 51.784 67.9813 49.0966C67.9813 46.4091 70.151 44.2256 72.8216 44.2256ZM12.9353 77.3485C10.2648 77.3485 8.09499 75.165 8.09499 72.4775C8.09499 69.79 10.2648 67.6065 12.9353 67.6065C15.6058 67.6065 17.7756 69.79 17.7756 72.4775C17.7756 75.165 15.6058 77.3485 12.9353 77.3485ZM45.7993 75.7528C45.7993 78.4403 43.6295 80.6239 40.959 80.6239C38.2885 80.6239 36.1187 78.4403 36.1187 75.7528C36.1187 73.0654 38.2885 70.8818 40.959 70.8818C43.6295 70.8818 45.7993 73.0654 45.7993 75.7528ZM74.7744 71.94C74.7744 74.6275 72.6046 76.811 69.9341 76.811C67.2636 76.811 65.0938 74.6275 65.0938 71.94C65.0938 70.5963 65.6279 69.3869 66.5125 68.4967C66.5125 68.4967 66.5125 68.4967 66.5292 68.4967C66.5292 68.4967 66.5292 68.4967 66.5292 68.4799C67.3971 67.6065 68.6155 67.0522 69.9341 67.0522C72.6046 67.069 74.7744 69.2526 74.7744 71.94ZM64.1758 16.4607C66.8463 16.4607 69.0161 18.6443 69.0161 21.3317C69.0161 24.0192 66.8463 26.2028 64.1758 26.2028C61.5053 26.2028 59.3355 24.0192 59.3355 21.3317C59.3355 18.6443 61.5053 16.4607 64.1758 16.4607ZM57.1323 42.7475C57.1323 51.7337 49.8718 59.0234 40.959 59.0234C32.0295 59.0234 24.7857 51.7169 24.7857 42.7475C24.7857 33.778 32.0462 26.4715 40.959 26.4715C49.8718 26.4715 57.1323 33.778 57.1323 42.7475ZM36.1187 8.23035C36.1187 5.54289 38.2885 3.35933 40.959 3.35933C43.6295 3.35933 45.7993 5.54289 45.7993 8.23035C45.7993 10.9178 43.6295 13.1014 40.959 13.1014C38.2885 13.1014 36.1187 10.9178 36.1187 8.23035ZM8.66248 10.8002C8.66248 8.11278 10.8323 5.92921 13.5028 5.92921C16.1733 5.92921 18.3431 8.11278 18.3431 10.8002C18.3431 13.4877 16.1733 15.6713 13.5028 15.6713C10.849 15.6713 8.66248 13.4877 8.66248 10.8002ZM8.16176 33.6605C10.8323 33.6605 13.0021 35.844 13.0021 38.5315C13.0021 41.219 10.8323 43.4025 8.16176 43.4025C5.49124 43.4025 3.32145 41.219 3.32145 38.5315C3.32145 35.844 5.49124 33.6605 8.16176 33.6605Z" fill="#1BD9B6"/>
</svg>
