<svg width="69" height="88" viewBox="0 0 69 88" fill="none" xmlns="http://www.w3.org/2000/svg">
<path d="M23.7878 71.9465V86H55.1981V71.034C55.1981 62.6384 57.3769 54.2428 62.0975 47.3073C65.1841 42.562 66.9997 37.0866 66.9997 31.0637C66.9997 14.4551 53.2009 1.13168 36.4972 2.04424C21.246 2.9568 9.08128 15.9152 9.26284 31.2462L9.2625 34.8968L2 52.053L9.2625 54.4257V66.8365C9.2625 69.7567 11.6228 71.9469 14.3462 71.9469H28.5081C33.0472 71.9469 36.6784 68.2966 36.6784 63.7338M44.6676 31.2462C44.6676 41.0237 41.7412 48.9499 38.1314 48.9499C34.5215 48.9499 31.5951 41.0237 31.5951 31.2462C31.5951 21.4687 34.5215 13.5425 38.1314 13.5425C41.7412 13.5425 44.6676 21.4687 44.6676 31.2462ZM55.7434 31.2462C55.7434 34.875 47.8584 37.8167 38.1318 37.8167C28.4052 37.8167 20.5203 34.875 20.5203 31.2462C20.5203 27.6175 28.4052 24.6758 38.1318 24.6758C47.8584 24.6758 55.7434 27.6175 55.7434 31.2462Z" stroke="#1BD9B6" stroke-width="3" stroke-miterlimit="10" stroke-linecap="round" stroke-linejoin="round"/>
</svg>
