<svg width="90" height="84" viewBox="0 0 90 84" fill="none" xmlns="http://www.w3.org/2000/svg">
<path fill-rule="evenodd" clip-rule="evenodd" d="M82.0245 32.6394C82.0841 35.3633 81.6791 38.0774 80.8269 40.6651C80.8094 40.7569 80.7809 40.8462 80.7421 40.9312C79.5466 44.4868 77.7308 47.8023 75.3791 50.7241C67.9287 60.0901 55.0119 66.6423 39.9414 68.7044L38.7219 68.876C36.4679 69.1914 34.1429 69.5168 32.032 69.5168C28.5545 69.5168 27.4702 68.6141 26.9577 67.9356C26.6503 67.5164 26.438 67.0353 26.3356 66.5256C26.2333 66.016 26.2433 65.4901 26.365 64.9848C26.4724 64.4714 26.6888 63.9871 26.9996 63.5647C27.3104 63.1424 27.7083 62.7917 28.1663 62.5366L28.6058 62.2814C35.6705 57.8241 40.583 51.5583 42.8114 44.1594C43.9139 40.5034 44.0682 36.9329 44.2043 33.7837L44.2051 33.7643C44.3262 30.9821 44.4305 28.5844 45.1004 26.5277C46.3557 22.715 48.7736 19.3916 52.0142 17.0247C55.2463 14.6851 59.1396 13.4372 63.1288 13.4623C67.577 13.4456 71.8916 14.9823 75.3285 17.8076C79.3909 21.2268 81.8294 26.632 82.0245 32.6394ZM53.4204 18.9577C50.5855 21.0272 48.4703 23.9338 47.3723 27.2685C46.8023 29.0175 46.705 31.2689 46.5924 33.875L46.5923 33.8768C46.462 36.8945 46.3057 40.2772 45.3711 43.8525C46.7397 44.6676 48.6478 45.4481 51.5632 45.4559H51.6145C56.2405 45.4559 58.5506 43.5285 60.9954 41.4886L60.997 41.4872C63.5441 39.3629 66.4256 36.9598 71.9188 36.9598H71.9709C74.6237 36.9689 76.8302 37.507 78.936 38.6571C79.4509 36.7206 79.6869 34.7206 79.6368 32.7174C79.4633 27.3869 77.3345 22.6214 73.7956 19.6426C70.7895 17.1754 67.017 15.8351 63.1288 15.8528C59.645 15.8283 56.2441 16.9159 53.4204 18.9577ZM39.6138 66.3357C54.0847 64.3576 66.4376 58.1244 73.5093 49.2362C75.5082 46.7555 77.0975 43.9708 78.2167 40.9876C76.7865 40.123 74.898 39.3596 71.9636 39.3503C67.2689 39.3689 65.007 41.2548 62.5654 43.2905L62.5313 43.319C59.9856 45.4434 57.1055 47.8463 51.6135 47.8463H51.5559C48.9162 47.8386 46.7296 47.2845 44.6406 46.1507C42.0774 53.5347 37.0189 59.7998 29.8782 64.3046L29.2901 64.647C29.1381 64.7407 29.0071 64.8649 28.9053 65.0116C28.8034 65.1584 28.7329 65.3246 28.6982 65.4998C28.652 65.6674 28.6427 65.8429 28.6711 66.0144C28.6994 66.1858 28.7647 66.3491 28.8623 66.4928C29.0941 66.7994 30.0477 67.1263 32.0311 67.1263C33.9875 67.1263 36.2425 66.8097 38.4235 66.5035L39.6138 66.3357Z" fill="#1BD9B6"/>
<path fill-rule="evenodd" clip-rule="evenodd" d="M80.4184 11.6818C80.4201 11.6836 80.4219 11.6851 80.4239 11.6865C86.2301 16.5719 89.7153 24.1138 89.9845 32.3795C90.2428 40.295 87.2685 48.5716 81.61 55.6856C72.8949 66.6406 58.1005 74.2635 41.0194 76.5996L39.8893 76.7568C33.6941 77.633 25.2108 78.8267 20.6086 72.7493C20.5238 72.6372 20.4413 72.5235 20.362 72.41C17.9504 72.8797 15.7769 74.1734 14.2135 76.0696C12.6501 77.9658 11.7939 80.3467 11.7915 82.8048C11.7914 83.1218 11.6655 83.4257 11.4415 83.6499C11.2175 83.874 10.9137 84 10.5968 84H1.19485C0.878025 84 0.574197 83.874 0.350166 83.6499C0.126136 83.4257 0.000241718 83.1218 0.000162541 82.8048C-0.0206357 77.3541 1.95517 72.0846 5.55409 67.9924C9.15302 63.9002 14.1257 61.2689 19.5321 60.5959C20.5889 58.4231 22.3035 56.639 24.4322 55.4973C29.7717 52.1263 33.5168 47.3951 35.1852 41.8592C36.0014 39.1542 36.1277 36.3683 36.2614 33.4193L36.2616 33.4145C36.3231 32.0496 36.3869 30.6489 36.5261 29.2513H35.3936C29.8366 29.2451 24.5089 27.0338 20.5795 23.1024C16.6501 19.1711 14.4399 13.8409 14.4337 8.28119V1.19527C14.4338 0.878285 14.5596 0.574312 14.7837 0.350173C15.0077 0.126035 15.3115 7.92152e-05 15.6284 0H28.1648C28.4816 7.92152e-05 28.7855 0.126035 29.0095 0.350173C29.2335 0.574312 29.3594 0.878285 29.3595 1.19527V8.28125C29.3612 9.882 29.9974 11.4167 31.1286 12.5488C32.2598 13.6808 33.7936 14.3177 35.3936 14.3198H43.1879C44.4349 12.9342 45.8224 11.6818 47.3281 10.5831C57.143 3.43483 71.0601 3.90017 80.4184 11.6818ZM40.6958 74.2309C57.1733 71.9774 71.4046 64.675 79.7402 54.1978C85.0463 47.5273 87.8363 39.8064 87.5967 32.4573C87.3493 24.8702 84.1752 17.9663 78.8877 13.5183C70.3569 6.42455 57.675 6.00433 48.7335 12.516C47.2263 13.617 45.8491 14.8858 44.6283 16.2979C44.5162 16.4273 44.3777 16.5311 44.222 16.6022C44.0664 16.6734 43.8972 16.7102 43.7261 16.7103H35.3936C33.1602 16.7075 31.019 15.8185 29.4398 14.2383C27.8607 12.6581 26.9725 10.5157 26.9701 8.28119V2.39053H16.8231V8.28125C16.8286 13.2072 18.7869 17.9297 22.2683 21.4129C25.7498 24.896 30.4701 26.8553 35.3936 26.8608H37.8709C38.0418 26.8608 38.2108 26.8975 38.3663 26.9684C38.5219 27.0394 38.6604 27.1429 38.7726 27.2719C38.8847 27.401 38.9679 27.5527 39.0164 27.7167C39.0649 27.8807 39.0777 28.0532 39.0539 28.2226C38.8103 29.9507 38.7284 31.7609 38.6492 33.511L38.6487 33.5234C38.5141 36.4898 38.3749 39.5574 37.4734 42.5502C35.6355 48.6464 31.5404 53.8367 25.6292 57.5641C23.735 58.5579 22.2523 60.1888 21.4424 62.1693C21.3588 62.3688 21.2227 62.5419 21.0486 62.6701C20.8746 62.7984 20.669 62.877 20.4538 62.8977C15.7065 63.3386 11.2752 65.4701 7.96634 68.9043C4.65745 72.3384 2.6909 76.847 2.42456 81.6096H9.45656C9.73236 78.6598 11.0074 75.8929 13.0703 73.7674C15.1332 71.6419 17.8601 70.2856 20.7991 69.9231C21.0285 69.8943 21.2612 69.9331 21.469 70.0345C21.6767 70.1359 21.8504 70.2957 21.9689 70.4942C22.1356 70.7738 22.3168 71.0444 22.5118 71.305C26.2662 76.2651 33.6359 75.2301 39.5556 74.3897L40.6958 74.2309Z" fill="#1BD9B6"/>
</svg>
