<svg width="54" height="84" viewBox="0 0 54 84" fill="none" xmlns="http://www.w3.org/2000/svg">
<path d="M52.9873 46.2141C52.4627 45.8205 51.5446 45.9517 51.1512 46.4765C45.9049 53.4301 49.4461 61.4332 45.7738 67.5996C41.708 74.4219 40.6587 81.7691 32.6582 81.2443C28.7236 81.2443 25.5758 78.2267 25.3135 74.4219L33.8386 65.6316C34.101 65.3692 34.2321 65.1068 34.2321 64.7132V48.1821C34.2321 45.0333 36.8552 42.4094 40.0029 42.4094C40.6587 42.4094 41.1833 42.0158 41.3145 41.3598C41.3145 41.2286 43.6753 31.9134 43.5441 32.4382C43.6753 31.9134 43.5441 31.3886 43.0195 31.1262C25.4447 18.1375 5.37789 30.995 5.24673 31.1262C4.72211 31.3886 4.59095 32.0446 4.72211 32.5694L6.95175 41.491C7.08291 42.0158 7.60753 42.5406 8.26331 42.5406C11.411 42.5406 14.0342 45.1645 14.0342 48.3133V64.8444C14.0342 65.238 14.1653 65.5004 14.4276 65.7628L22.9527 74.5531C23.215 79.8011 27.5432 83.9995 32.7894 83.9995C33.1829 83.9995 33.4452 83.9995 33.8386 83.9995C42.7572 83.9995 44.5934 75.3403 48.2658 69.0428C52.3316 62.2204 48.9215 54.2173 53.512 48.1821C53.7743 47.5261 53.6431 46.7389 52.9873 46.2141ZM40.6587 32.7006L40.1341 34.931C27.9366 27.1903 12.7226 32.963 8.001 35.1934L7.34522 32.7006C11.0176 30.7326 26.6251 22.9919 40.6587 32.7006ZM16.395 64.1884V48.1821C16.395 43.9838 13.2472 40.4414 9.05024 39.9166L8.52562 37.9486C12.4603 36.1118 27.9366 29.8143 39.3472 37.8174L38.8226 39.9166C34.7567 40.4414 31.4778 43.9838 31.4778 48.1821V64.1884L23.8708 71.9292L16.395 64.1884Z" fill="#1BD9B6"/>
<path d="M24.0015 41.4917C23.2145 41.4917 22.6899 42.0165 22.6899 42.8037V52.6436C22.6899 53.4308 23.2145 53.9556 24.0015 53.9556C24.7884 53.9556 25.313 53.4308 25.313 52.6436V42.8037C25.313 42.1477 24.6572 41.4917 24.0015 41.4917Z" fill="#1BD9B6"/>
<path d="M45.7733 11.5783C46.2979 12.1031 47.0848 12.1031 47.6095 11.5783C48.1341 11.0535 48.1341 10.2663 47.6095 9.74153C34.6251 -3.24718 13.3779 -3.24718 0.393467 9.74153C-0.131156 10.2663 -0.131156 11.0535 0.393467 11.5783C0.918089 12.1031 1.70502 12.1031 2.22965 11.5783C14.1648 -0.491998 33.707 -0.491998 45.7733 11.5783Z" fill="#1BD9B6"/>
<path d="M41.5767 17.4828C42.1013 16.958 42.1013 16.1708 41.5767 15.646C36.9862 10.9228 30.6907 8.29883 24.0018 8.29883C17.3129 8.29883 11.0174 10.9228 6.29581 15.646C5.77119 16.1708 5.77119 16.958 6.29581 17.4828C6.82043 18.0076 7.60737 18.0076 8.13199 17.4828C12.329 13.2844 17.9687 10.9228 24.0018 10.9228C30.035 10.9228 35.5435 13.2844 39.8716 17.4828C40.2651 18.0076 41.1832 18.0076 41.5767 17.4828Z" fill="#1BD9B6"/>
<path d="M12.1972 23.3869C11.6726 22.8621 11.6726 22.0749 12.1972 21.5501C18.755 15.1213 29.2474 15.1213 35.674 21.5501C36.1986 22.0749 36.1986 22.8621 35.674 23.3869C35.1494 23.9117 34.3625 23.9117 33.8378 23.3869C28.3293 17.8765 19.5419 17.8765 14.0334 23.3869C13.5087 23.9117 12.7218 23.9117 12.1972 23.3869Z" fill="#1BD9B6"/>
</svg>
