<svg width="100" height="84" viewBox="0 0 100 84" fill="none" xmlns="http://www.w3.org/2000/svg">
<path d="M98.463 45.6033H88.7508L88.9934 45.3587C93.9314 40.3809 96.7054 33.6296 96.7053 26.5901C96.7051 19.5505 93.9307 12.7994 88.9925 7.8218C84.0543 2.84423 77.3567 0.0479549 70.3731 0.048134C63.3896 0.0483132 56.6922 2.84493 51.7542 7.82276L50.024 9.5658L48.2458 7.77434C43.3076 2.79651 36.6099 -2.42136e-06 29.6262 0C22.6425 2.42136e-06 15.9448 2.79652 11.0065 7.77435C6.06831 12.7522 3.29405 19.5036 3.29405 26.5433C3.29405 33.583 6.06832 40.3344 11.0066 45.3122L11.2952 45.6032H1.53704C1.12939 45.6032 0.738441 45.7665 0.450189 46.057C0.161938 46.3476 0 46.7417 0 47.1526C0 47.5635 0.161938 47.9576 0.450189 48.2482C0.738441 48.5387 1.12939 48.702 1.53704 48.702H14.3694L48.9372 83.5461C49.0799 83.69 49.2493 83.8042 49.4358 83.882C49.6222 83.9599 49.8221 84 50.0239 84C50.2258 84 50.4256 83.9599 50.6121 83.882C50.7986 83.8042 50.968 83.69 51.1107 83.5461L85.6768 48.7021H98.463C98.8706 48.7021 99.2616 48.5388 99.5498 48.2483C99.8381 47.9577 100 47.5636 100 47.1527C100 46.7418 99.8381 46.3477 99.5498 46.0571C99.2616 45.7666 98.8706 45.6033 98.463 45.6033V45.6033ZM13.1801 43.1214C8.8317 38.7218 6.39264 32.7628 6.39834 26.5524C6.40403 20.342 8.85401 14.3875 13.2105 9.99607C17.567 5.60461 23.4741 3.13496 29.6351 3.12918C35.7961 3.12341 41.7077 5.58199 46.0723 9.96527L48.9373 12.8523C49.08 12.9962 49.2494 13.1103 49.4359 13.1882C49.6223 13.2661 49.8222 13.3062 50.024 13.3062C50.2259 13.3062 50.4257 13.2661 50.6122 13.1882C50.7986 13.1103 50.9681 12.9962 51.1107 12.8523L53.9277 10.0138C58.2922 5.63164 64.2032 3.17393 70.3634 3.17998C76.5236 3.18604 82.4298 5.65537 86.7858 10.0461C91.1419 14.4368 93.5919 20.3902 93.5983 26.5998C93.6048 32.8094 91.167 38.7679 86.82 43.1677L84.404 45.6032H79.6691L69.6653 19.5565C69.5534 19.265 69.3567 19.0145 69.101 18.8377C68.8453 18.6609 68.5426 18.5662 68.2325 18.566C67.9225 18.5658 67.6196 18.66 67.3637 18.8365C67.1077 19.0129 66.9107 19.2632 66.7984 19.5545L53.8146 53.3561L51.2198 46.5918C51.1087 46.2997 50.912 46.0486 50.6558 45.872C50.3997 45.6954 50.0962 45.6016 49.7859 45.6032H15.6423L13.1801 43.1214ZM50.0242 80.2598L18.7164 48.7021H48.7323L52.3817 58.2061C52.4928 58.4982 52.6896 58.7492 52.9457 58.9258C53.2019 59.1024 53.5054 59.1962 53.8157 59.1946C54.1267 59.1989 54.4314 59.1063 54.6881 58.9293C54.9448 58.7524 55.1409 58.4997 55.2497 58.2061L68.2314 24.4064L77.1824 47.7114C77.2979 48.0007 77.4956 48.2491 77.7508 48.4253C78.006 48.6016 78.3071 48.6978 78.6164 48.702H81.3299L50.0242 80.2598Z" fill="#1BD9B6"/>
</svg>
