<svg width="80" height="84" viewBox="0 0 80 84" fill="none" xmlns="http://www.w3.org/2000/svg">
<path d="M7.98459 48.216C12.5259 51.9288 23.8876 74.6256 27.8759 83.0424C28.1608 83.6472 28.7641 84 29.3841 84C29.6187 84 29.8701 83.9496 30.1047 83.832C30.9426 83.4288 31.2945 82.4376 30.8923 81.5976C29.3841 78.4224 16.045 50.4672 10.0961 45.612C3.20866 39.984 1.31505 30.1224 5.67203 22.6632C7.4651 19.5888 8.5711 19.32 11.2188 18.648C14.0844 17.9256 17.9889 16.9344 24.5747 12.2976C36.8748 3.6624 57.9894 3.36 58.2073 3.36C59.1289 3.3432 59.883 2.5872 59.8663 1.6632C59.8495 0.7392 59.1122 0 58.1905 0H58.1737C57.2688 0 35.8023 0.302401 22.6643 9.5424C16.5813 13.8096 13.0119 14.7168 10.4144 15.3888C7.54889 16.1112 5.28661 16.6824 2.78972 20.9664C-2.40515 29.82 -0.159627 41.5464 7.98459 48.216Z" fill="#1BD9B6"/>
<path d="M45.3708 36.4559C44.6838 36.2711 43.9632 36.5399 43.561 37.1279C43.1588 37.7159 43.1756 38.4887 43.5945 39.0599C43.6783 39.1775 52.1242 50.8703 52.4928 61.9583C52.8783 73.9535 55.2914 78.4895 55.3919 78.6743C55.6935 79.2287 56.2633 79.5479 56.8498 79.5479C57.1179 79.5479 57.3861 79.4807 57.6374 79.3463C58.4418 78.9095 58.7602 77.9015 58.3245 77.0783C58.3077 77.0447 56.1963 72.8783 55.8276 61.8407C55.5595 53.5247 51.3533 45.2087 48.6051 40.6391C68.3958 44.5199 78.9196 36.4223 79.3721 36.0527C80.0927 35.4815 80.21 34.4231 79.6402 33.7007C79.0705 32.9783 78.0147 32.8439 77.2941 33.4151C77.1936 33.5159 66.0833 41.9495 45.3708 36.4559Z" fill="#1BD9B6"/>
<path d="M20.8221 35.9523C18.6436 39.1275 19.096 43.7307 21.8778 46.4019C22.4978 47.0067 23.1681 47.4603 23.8217 47.8971C24.6093 48.4347 25.3466 48.9555 25.7823 49.5771C26.5197 50.7699 33.5746 66.1587 37.8646 75.5835C38.1495 76.1883 38.7528 76.5747 39.3895 76.5747C39.5236 76.5747 39.6577 76.5579 39.775 76.5243C39.775 76.5243 45.0369 75.2643 47.4835 74.6091C47.9527 74.4915 48.3381 74.1723 48.556 73.7355C48.7738 73.2987 48.7906 72.7947 48.6063 72.3579C48.4889 72.0723 48.1538 71.2995 47.6511 70.1907C41.2329 55.7427 37.9819 47.2755 37.9987 45.0075C37.9987 44.0331 38.1998 43.0419 38.4008 41.9835C38.5684 41.1099 38.7528 40.2027 38.8198 39.2451C39.0376 36.4899 38.183 34.1211 36.524 32.7771C36.8591 32.5587 37.2278 32.3571 37.5294 32.1051C38.6019 31.2147 38.803 29.9883 38.9538 29.1819C39.0041 28.9131 39.0711 28.4763 39.1549 28.3755C39.4901 28.0059 40.3447 27.8211 40.9648 27.6867C49.0755 25.9395 65.7158 23.7219 65.8834 23.7051C66.4531 23.6379 66.9391 23.2683 67.1905 22.7475C67.4251 22.2267 67.3916 21.6219 67.0732 21.1347L59.9344 10.0971C59.549 9.49231 58.8284 9.20671 58.1246 9.37471C40.4788 13.6755 30.9604 16.4475 29.8042 17.6403C29.0668 18.3963 28.3463 18.4971 26.4359 18.1107L26.1007 19.7571L26.2851 18.0771C24.5758 17.7243 22.4643 17.2875 20.5037 18.2451C18.3084 19.3203 17.0181 21.9747 17.37 24.6963C17.8895 28.7787 20.0177 31.8867 23.3525 33.6003C22.3303 34.2219 21.4589 35.0115 20.8221 35.9523ZM20.688 24.2259C20.5204 22.9491 21.0734 21.6723 21.9783 21.2355C22.3303 21.0675 22.7492 21.0003 23.2017 21.0003C23.939 21.0003 24.7769 21.1683 25.6148 21.3531L25.7656 21.3867C27.7765 21.8067 30.1058 22.0755 32.1335 20.0595C33.7757 19.1019 46.1764 15.7587 57.7894 12.9027L62.8335 20.7315C57.7727 21.4371 46.6288 23.0331 40.2777 24.3939C39.2722 24.6123 37.7473 24.9315 36.6916 26.1075C35.971 26.9139 35.8034 27.8883 35.6861 28.6107C35.6358 28.9467 35.552 29.4171 35.4347 29.5011C32.9211 31.5843 28.7987 32.1723 25.6483 30.9291C23.6541 30.1395 21.2243 28.3587 20.688 24.2259ZM23.5703 37.8507C24.2574 36.8427 25.4304 36.0195 26.8548 35.5323C28.4133 34.9947 30.1226 34.8603 31.4297 34.8267C31.6308 34.8267 31.8486 34.8099 32.0497 34.8099C32.8708 34.8099 33.6752 34.8939 34.2282 35.2467C35.3174 35.9187 35.5688 37.6827 35.4683 38.9763C35.4012 39.7491 35.2504 40.5219 35.0996 41.3451C34.8817 42.5211 34.6471 43.7139 34.6304 45.0075C34.6304 47.8971 37.5965 55.8435 44.5677 71.5683C44.6179 71.6691 44.6514 71.7699 44.7017 71.8707C43.1935 72.2571 41.4675 72.6771 40.3112 72.9459C37.563 66.8979 29.402 49.0395 28.5473 47.7459C27.7597 46.5699 26.6705 45.8139 25.6985 45.1419C25.1455 44.7555 24.6093 44.4027 24.1904 43.9827C22.6151 42.4539 22.3303 39.6483 23.5703 37.8507Z" fill="#1BD9B6"/>
</svg>
