<svg width="84" height="84" viewBox="0 0 84 84" fill="none" xmlns="http://www.w3.org/2000/svg">
<path d="M42.0002 41.1551C38.7401 41.1551 36.0868 43.8084 36.0868 47.0691C36.0868 50.3299 38.7401 52.9832 42.0002 52.9832C45.2602 52.9832 47.9135 50.3299 47.9135 47.0691C47.9135 43.8084 45.2602 41.1551 42.0002 41.1551ZM42.0002 50.0866C40.3369 50.0866 38.9834 48.7331 38.9834 47.0691C38.9834 45.4052 40.3369 44.0517 42.0002 44.0517C43.6634 44.0517 45.0169 45.4052 45.0169 47.0691C45.0169 48.7331 43.6634 50.0866 42.0002 50.0866ZM9.51295 39.2246H17.7698C18.5703 39.2246 19.2181 38.5761 19.2181 37.7763C19.2181 35.1414 21.3608 32.998 23.9957 32.998C26.6306 32.998 28.7733 35.1414 28.7733 37.7763C28.7733 38.5761 29.4211 39.2246 30.2216 39.2246H53.7787C54.5792 39.2246 55.227 38.5761 55.227 37.7763C55.227 35.1414 57.3697 32.998 60.0046 32.998C62.6395 32.998 64.7822 35.1414 64.7822 37.7763C64.7822 38.5761 65.43 39.2246 66.2305 39.2246H74.4874C74.9032 39.2246 75.3006 39.0456 75.575 38.7331C75.8494 38.4198 75.9766 38.004 75.9243 37.591C73.7349 20.5985 59.1518 7.78467 42.0002 7.78467C24.8486 7.78467 10.2654 20.5985 8.07599 37.591C8.02366 38.004 8.15095 38.4198 8.42533 38.7331C8.69971 39.0456 9.09714 39.2246 9.51295 39.2246ZM42.0002 10.6812C57.1448 10.6812 70.1015 21.5956 72.7972 36.328H67.5416C66.8627 32.7858 63.7413 30.1014 60.0046 30.1014C56.2679 30.1014 53.1465 32.7858 52.4676 36.328H31.5327C30.8538 32.7858 27.7324 30.1014 23.9957 30.1014C20.259 30.1014 17.1376 32.7858 16.4587 36.328H11.2031C13.8988 21.5956 26.8555 10.6812 42.0002 10.6812ZM74.4874 44.7758H60.4657C53.4775 44.7758 47.7933 50.4607 47.7933 57.4482V73.9542C47.7933 74.394 47.9941 74.8106 48.3378 75.0856C48.5966 75.2928 48.9162 75.4025 49.2415 75.4025C49.3476 75.4025 49.4551 75.3904 49.5598 75.3671C63.5037 72.2209 74.0984 60.5831 75.9243 46.4094C75.9766 45.9964 75.8494 45.5806 75.575 45.2673C75.3006 44.9547 74.9032 44.7758 74.4874 44.7758ZM50.6898 72.088V57.4482C50.6898 52.0575 55.0756 47.6724 60.4657 47.6724H72.7958C70.6644 59.3024 62.0455 68.8145 50.6898 72.088Z" fill="#1BD9B6"/>
<path d="M42 0C18.8417 0 0 18.841 0 42C0 65.159 18.8417 84 42 84C65.1583 84 84 65.159 84 42C84 18.841 65.1583 0 42 0ZM42 81.1034C20.4385 81.1034 2.89655 63.5615 2.89655 42C2.89655 20.4385 20.4385 2.89655 42 2.89655C63.5615 2.89655 81.1034 20.4385 81.1034 42C81.1034 63.5615 63.5615 81.1034 42 81.1034Z" fill="#1BD9B6"/>
<path d="M23.5346 44.7759H9.51295C9.09714 44.7759 8.69971 44.9548 8.42533 45.2674C8.15095 45.5806 8.02366 45.9964 8.07599 46.4094C9.90189 60.5832 20.4967 72.221 34.4406 75.3672C34.5452 75.3905 34.6527 75.4025 34.7588 75.4025C35.0841 75.4025 35.4037 75.2929 35.6625 75.0857C36.0062 74.8106 36.2071 74.3941 36.2071 73.9543V57.4483C36.2071 50.4608 30.5229 44.7759 23.5346 44.7759ZM33.3105 72.088C21.9548 68.8146 13.3359 59.3025 11.2045 47.6724H23.5346C28.9247 47.6724 33.3105 52.0576 33.3105 57.4483V72.088Z" fill="#1BD9B6"/>
<path d="M23.9957 39.777C25.1011 39.777 25.9972 38.8809 25.9972 37.7754C25.9972 36.67 25.1011 35.7739 23.9957 35.7739C22.8903 35.7739 21.9941 36.67 21.9941 37.7754C21.9941 38.8809 22.8903 39.777 23.9957 39.777Z" fill="#1BD9B6"/>
<path d="M60.0054 39.777C61.1108 39.777 62.0069 38.8809 62.0069 37.7754C62.0069 36.67 61.1108 35.7739 60.0054 35.7739C58.9 35.7739 58.0039 36.67 58.0039 37.7754C58.0039 38.8809 58.9 39.777 60.0054 39.777Z" fill="#1BD9B6"/>
</svg>
