<svg width="69" height="89" viewBox="0 0 69 89" fill="none" xmlns="http://www.w3.org/2000/svg">
<path d="M62.6083 79.6631H57.0545L52.9441 76.0498C57.4645 73.5852 61.2809 70.0074 64.0319 65.6553C66.7828 61.3033 68.3772 56.3209 68.6639 51.1803C68.9507 46.0397 67.9204 40.9109 65.6707 36.2798C63.4209 31.6488 60.0261 27.6687 55.8079 24.7166C55.5494 24.0057 55.1887 23.3363 54.7371 22.7295L59.5238 17.9429C60.0734 17.3933 60.3821 16.6479 60.3821 15.8707C60.3821 15.0935 60.0734 14.3482 59.5238 13.7986L59.4334 13.7082L63.5742 9.56728C64.0364 9.10293 64.2958 8.47439 64.2957 7.81922C64.2955 7.16406 64.0358 6.53563 63.5735 6.07148L58.2024 0.700384C57.7315 0.250835 57.1055 0 56.4545 0C55.8034 0 55.1774 0.250835 54.7066 0.700384L50.565 4.84048L50.4745 4.75007C49.9243 4.20187 49.1792 3.89406 48.4024 3.89406C47.6256 3.89406 46.8805 4.20187 46.3303 4.75007L25.7446 25.3357C25.1965 25.8858 24.8888 26.6307 24.889 27.4072C24.8891 28.1838 25.1971 28.9286 25.7454 29.4785L25.8366 29.5696L16.4337 38.9725C15.9709 39.4365 15.711 40.0651 15.711 40.7204C15.711 41.3757 15.9709 42.0043 16.4337 42.4683L21.8048 47.8394C22.0342 48.0691 22.3067 48.2514 22.6066 48.3758C22.9065 48.5001 23.228 48.5642 23.5527 48.5642C23.8774 48.5642 24.1989 48.5001 24.4988 48.3758C24.7987 48.2514 25.0712 48.0691 25.3006 47.8394L34.7035 38.4373L34.7947 38.5285C35.0666 38.8008 35.3896 39.0168 35.745 39.1642C36.1005 39.3116 36.4816 39.3875 36.8665 39.3875C37.2513 39.3875 37.6324 39.3116 37.9879 39.1642C38.3434 39.0168 38.6663 38.8008 38.9382 38.5285L43.728 33.7387C44.5591 34.381 45.5158 34.8416 46.5361 35.0907C47.5565 35.3398 48.6178 35.3719 49.6514 35.1849C50.2208 35.6243 50.7644 36.0962 51.2795 36.5982C53.5696 38.8837 55.2097 41.7379 56.0312 44.8672C56.8527 47.9966 56.8261 51.2883 55.9539 54.404C55.0817 57.5196 53.3956 60.3468 51.0688 62.5948C48.7419 64.8429 45.8584 66.4307 42.7146 67.1951C41.4296 66.3568 39.9288 65.9095 38.3945 65.9076C36.8602 65.9057 35.3584 66.3493 34.0713 67.1845C32.1607 66.7189 30.3392 65.9437 28.6791 64.8895H31.1723C31.8143 64.8888 32.4298 64.6334 32.8837 64.1794C33.3377 63.7255 33.5931 63.11 33.5938 62.468V58.7174C33.5931 58.0754 33.3377 57.4599 32.8837 57.0059C32.4298 56.5519 31.8143 56.2966 31.1723 56.2958H2.42227C1.78015 56.2964 1.16451 56.5517 0.710399 57.0057C0.256291 57.4597 0.000806609 58.0752 0 58.7174V62.468C0.0008066 63.1101 0.25629 63.7256 0.710398 64.1796C1.16451 64.6336 1.78015 64.8889 2.42227 64.8895H12.3006C15.0567 69.5881 19.0415 73.4465 23.8264 76.0498L19.7156 79.6631H14.1617C13.0221 79.6631 11.9291 80.1158 11.1233 80.9216C10.3175 81.7274 9.8648 82.8204 9.8648 83.96C9.8648 85.0996 10.3175 86.1925 11.1233 86.9983C11.9291 87.8041 13.0221 88.2569 14.1617 88.2569H62.6083C63.7479 88.2569 64.8409 87.8041 65.6467 86.9983C66.4525 86.1925 66.9052 85.0996 66.9052 83.96C66.9052 82.8204 66.4525 81.7274 65.6467 80.9216C64.8409 80.1158 63.7479 79.6631 62.6083 79.6631ZM52.2224 6.4972L56.3637 2.35749H56.3896C56.4392 2.35749 56.543 2.35445 56.5445 2.35749L61.9156 7.72859C61.9397 7.75261 61.9533 7.78521 61.9535 7.81925C61.9536 7.85329 61.9403 7.886 61.9163 7.91023L57.7762 12.051L54.9992 9.27431L52.2224 6.4972ZM23.6427 46.1823C23.6169 46.2023 23.5851 46.2132 23.5523 46.2132C23.5196 46.2132 23.4878 46.2023 23.4619 46.1823L18.0908 40.8112C18.0787 40.7994 18.069 40.7852 18.0624 40.7696C18.0558 40.754 18.0525 40.7373 18.0525 40.7203C18.0525 40.7034 18.0558 40.6866 18.0624 40.671C18.069 40.6554 18.0787 40.6413 18.0908 40.6295L27.4933 31.2271L30.2699 34.0034L33.0463 36.7801L23.6427 46.1823ZM37.281 36.8714C36.9812 37.1719 36.75 37.1689 36.4517 36.8714L35.5337 35.9535L35.5323 35.9512L31.9271 32.3464L27.4024 27.8214C27.2929 27.711 27.2313 27.5618 27.2313 27.4063C27.2313 27.2508 27.2929 27.1016 27.4024 26.9913L47.9874 6.40718C48.0975 6.29725 48.2468 6.23552 48.4024 6.23552C48.558 6.23552 48.7073 6.29725 48.8174 6.40718L53.342 10.9314L56.9473 14.5371L56.9494 14.5386L57.8667 15.4556C57.9766 15.5658 58.0383 15.7151 58.0383 15.8707C58.0383 16.0263 57.9766 16.1756 57.8667 16.2857L53.0801 21.0724C51.565 19.9392 49.6922 19.39 47.8051 19.5254C45.9179 19.6608 44.1428 20.4717 42.805 21.8095C41.4671 23.1474 40.6562 24.9225 40.5208 26.8097C40.3854 28.6968 40.9346 30.5695 42.0677 32.0847L37.281 36.8714ZM44.4724 31.337C43.6951 30.5597 43.1657 29.5694 42.9512 28.4912C42.7367 27.413 42.8467 26.2955 43.2674 25.2799C43.688 24.2642 44.4004 23.3961 45.3144 22.7854C46.2284 22.1747 47.303 21.8487 48.4023 21.8487C49.5016 21.8487 50.5762 22.1747 51.4903 22.7854C52.4043 23.3961 53.1167 24.2642 53.5373 25.2799C53.958 26.2955 54.068 27.413 53.8535 28.4912C53.639 29.5694 53.1096 30.5597 52.3322 31.337C51.8186 31.8574 51.2067 32.2705 50.5321 32.5525C49.8575 32.8345 49.1336 32.9797 48.4024 32.9797C47.6712 32.9797 46.9473 32.8345 46.2727 32.5525C45.5981 32.2705 44.9861 31.8574 44.4724 31.337ZM52.9373 64.0442C56.7912 60.182 58.9555 54.9486 58.9553 49.4925C58.9552 44.0364 56.7906 38.8031 52.9365 34.9411C52.7082 34.7126 52.4661 34.4977 52.227 34.28C53.3849 33.6691 54.3643 32.7678 55.0691 31.6645C55.7739 30.5611 56.18 29.2936 56.2476 27.9862C56.9071 28.5351 57.5422 29.1144 58.1528 29.7241C61.278 32.8411 63.6197 36.6547 64.9858 40.8519C66.3518 45.0491 66.7033 49.5105 66.0113 53.8698C65.3193 58.2292 63.6036 62.3623 61.0049 65.9302C58.4062 69.4981 54.9987 72.399 51.0618 74.395L44.9198 68.9961C47.941 67.9912 50.6861 66.2957 52.9373 64.0442ZM2.34373 62.468L2.4223 58.6396L31.25 58.7174V62.468C31.2499 62.4887 31.2417 62.5084 31.2271 62.523C31.2125 62.5376 31.1928 62.5458 31.1721 62.5459L2.34373 62.468ZM18.6172 69.2613C17.2843 67.9274 16.0891 66.4628 15.0496 64.8896H24.7451C26.8114 66.7244 29.2278 68.122 31.8486 68.998L25.7082 74.3955C23.0887 73.0685 20.6954 71.3357 18.6172 69.2613ZM34.6969 69.6153C35.7176 68.7211 37.0283 68.2282 38.3853 68.2282C39.7423 68.2282 41.053 68.7211 42.0737 69.6153L53.5041 79.6632H23.2658L34.6969 69.6153ZM62.6083 85.9132H14.1617C13.6437 85.9132 13.1469 85.7074 12.7806 85.3411C12.4143 84.9748 12.2086 84.4781 12.2086 83.9601C12.2086 83.4421 12.4143 82.9453 12.7806 82.579C13.1469 82.2127 13.6437 82.0069 14.1617 82.0069H62.6083C63.1263 82.0069 63.6231 82.2127 63.9894 82.579C64.3557 82.9453 64.5615 83.4421 64.5615 83.9601C64.5615 84.4781 64.3557 84.9748 63.9894 85.3411C63.6231 85.7074 63.1263 85.9132 62.6083 85.9132Z" fill="#1BD9B6"/>
</svg>
