<svg width="65" height="84" viewBox="0 0 65 84" fill="none" xmlns="http://www.w3.org/2000/svg">
<path d="M64.9273 15.2354C65.0606 14.7986 65.0106 14.3114 64.7772 13.9082L61.5434 8.21282C61.2101 7.608 60.5266 7.28878 59.8599 7.38959C55.6593 7.99441 51.4087 9.70806 47.4081 11.8753L49.2584 8.31362C49.5918 7.6584 49.4751 6.86877 48.9583 6.34796L46.0746 3.44146C45.4245 2.78624 44.391 2.78624 43.741 3.42466L39.4403 7.608L40.3738 3.22306C40.5572 2.33263 40.0238 1.459 39.1403 1.24059L34.2896 0.0477576C33.4728 -0.153849 32.6227 0.299765 32.3393 1.08939L30.9225 4.90311L30.3724 1.86221C30.2057 0.954986 29.3556 0.350167 28.4555 0.501372L23.7381 1.291C22.8547 1.4422 22.2379 2.28223 22.3546 3.17266L23.3381 10.4305C21.6212 10.7665 20.1543 11.2201 19.0208 11.6233V9.03604C19.0208 8.56563 18.8208 8.11201 18.4874 7.8096C18.1374 7.49039 17.6873 7.33919 17.2206 7.37279L7.5192 8.14561C6.65241 8.21282 5.98565 8.95204 5.98565 9.82567C5.98565 14.4458 4.81882 18.2931 3.45196 22.7621C1.16831 30.2719 -1.41539 38.773 0.918272 53.3894C3.53531 69.5851 20.171 84 31.4726 84C43.7409 84 54.0924 61.2689 54.0924 47.0052C54.0924 37.7145 52.7756 30.7087 50.1252 25.6182C56.5261 20.0572 63.9438 16.3275 64.0771 16.2603C64.4772 16.0419 64.7772 15.6891 64.9273 15.2354ZM25.8884 4.34869L27.3887 4.09668L28.4221 9.87607C27.822 9.89287 27.222 9.92647 26.6552 9.97687L25.8884 4.34869ZM38.2568 36.4545C34.5397 49.3909 30.189 55.4223 24.5883 55.4223C23.6715 55.4223 22.9214 56.1783 22.9214 57.1024C22.9214 58.0264 23.6715 58.7824 24.5883 58.7824C34.1896 58.7824 38.8069 46.5684 41.4573 37.3953C42.4241 34.0352 44.7744 30.8431 47.5915 27.987C49.6918 32.5232 50.7586 38.9074 50.7586 47.0052C50.7586 60.8993 40.7905 80.6399 31.4726 80.6399C22.4713 80.6399 6.68575 68.1907 4.2354 52.8518C2.01843 39.0082 4.48544 30.9103 6.66908 23.7533C7.90259 19.6876 9.06942 15.8403 9.30278 11.3881L15.7037 10.8841V13.1018C15.7037 14.1938 15.3203 15.3026 14.6035 16.2603C12.4699 19.1332 9.58615 25.5846 14.4202 36.5385C14.7869 37.3953 15.787 37.7649 16.6205 37.3953C17.4706 37.0257 17.8373 36.0345 17.4706 35.1777C13.3367 25.7862 15.5703 20.5444 17.2706 18.2763C17.9373 17.3859 18.4041 16.4115 18.6874 15.4034C19.7709 14.9162 22.2046 13.9586 25.4384 13.4882C25.4384 13.4882 25.4384 13.4882 25.4551 13.4882C25.4551 13.4882 25.4551 13.4882 25.4717 13.4882C26.9386 13.2698 28.5555 13.169 30.2891 13.253C31.2059 13.3034 31.9893 12.581 32.0226 11.6569C32.0226 11.6401 32.006 11.6233 32.006 11.6065L34.9397 3.69347L36.7733 4.14709L35.0231 12.3121C35.0064 12.3625 35.0231 12.4129 35.0231 12.4633C35.0064 12.581 35.0064 12.6818 35.0231 12.7994C35.0397 12.9002 35.0397 13.001 35.0731 13.1018C35.1064 13.2026 35.1397 13.3034 35.1898 13.3874C35.2398 13.4882 35.3064 13.589 35.3731 13.673C35.4064 13.7234 35.4231 13.7738 35.4565 13.8074C35.4898 13.841 35.5398 13.8578 35.5898 13.8914C35.6732 13.9586 35.7565 14.0258 35.8565 14.0762C35.9565 14.1266 36.0565 14.177 36.1732 14.2106C36.2232 14.2274 36.2566 14.261 36.3066 14.2778C36.4066 14.2946 36.5066 14.3114 36.5899 14.3114C36.6066 14.3114 36.6233 14.3114 36.64 14.3114H36.6566C36.8567 14.3114 37.0567 14.2778 37.2234 14.2106C37.2734 14.1938 37.3067 14.1602 37.3567 14.1266C37.4901 14.0594 37.6234 13.9754 37.7401 13.8746C37.7568 13.8578 37.7901 13.8578 37.8068 13.841L44.8744 6.96957L45.7246 7.8264L41.974 15.0002C41.9574 15.0506 41.9574 15.0842 41.9407 15.1346C33.9562 20.4436 27.9887 26.5254 27.572 26.9454C26.9219 27.6006 26.9386 28.6759 27.6054 29.3143C28.2721 29.9695 29.3223 29.9527 29.9557 29.2975C30.1057 29.1295 45.3412 13.6058 59.2265 10.8841L61.0267 14.0426C56.1094 16.7475 41.374 25.5678 38.2568 36.4545Z" fill="#1BD9B6"/>
</svg>
