<svg width="79" height="84" viewBox="0 0 79 84" fill="none" xmlns="http://www.w3.org/2000/svg">
<path d="M37.147 50.3081H4.81846C3.65711 50.3048 2.5437 49.8444 1.71882 49.0266C0.893935 48.2088 0.423814 47.0992 0.410034 45.9375V4.39687C0.413507 3.22955 0.879498 2.11121 1.70586 1.28702C2.53223 0.462816 3.65155 -5.16992e-06 4.81846 0H37.147C38.3127 0 39.4306 0.463241 40.2549 1.28781C41.0792 2.11239 41.5423 3.23075 41.5423 4.39687V45.9375C41.5319 47.098 41.0647 48.2076 40.2419 49.0258C39.4191 49.844 38.3071 50.3047 37.147 50.3081ZM4.81846 2.54625C4.32888 2.54969 3.86033 2.74577 3.51414 3.09208C3.16794 3.4384 2.97193 3.90712 2.9685 4.39687V45.9375C2.97193 46.4307 3.16933 46.9028 3.51798 47.2516C3.86664 47.6004 4.33853 47.7978 4.83158 47.8012H37.147C37.6388 47.7978 38.1093 47.5999 38.4559 47.2508C38.8024 46.9016 38.9969 46.4295 38.9969 45.9375V4.39687C38.9969 3.90606 38.802 3.43534 38.4551 3.08829C38.1081 2.74123 37.6376 2.54625 37.147 2.54625H4.81846Z" fill="#1BD9B6"/>
<path d="M40.2692 18.7685H1.65611C1.46153 18.8214 1.25737 18.8287 1.0595 18.7899C0.861626 18.7511 0.675361 18.6672 0.515168 18.5446C0.354976 18.4221 0.225168 18.2643 0.135822 18.0835C0.0464771 17.9027 0 17.7037 0 17.502C0 17.3002 0.0464771 17.1012 0.135822 16.9204C0.225168 16.7396 0.354976 16.5818 0.515168 16.4593C0.675361 16.3367 0.861626 16.2528 1.0595 16.214C1.25737 16.1752 1.46153 16.1825 1.65611 16.2354H40.2692C40.4638 16.1825 40.668 16.1752 40.8659 16.214C41.0637 16.2528 41.25 16.3367 41.4102 16.4593C41.5704 16.5818 41.7002 16.7396 41.7895 16.9204C41.8789 17.1012 41.9254 17.3002 41.9254 17.502C41.9254 17.7037 41.8789 17.9027 41.7895 18.0835C41.7002 18.2643 41.5704 18.4221 41.4102 18.5446C41.25 18.6672 41.0637 18.7511 40.8659 18.7899C40.668 18.8287 40.4638 18.8214 40.2692 18.7685ZM10.8403 27.7723H1.65611C1.37242 27.7011 1.12061 27.5372 0.940686 27.3066C0.760764 27.0759 0.663042 26.7917 0.663042 26.4991C0.663042 26.2066 0.760764 25.9224 0.940686 25.6917C1.12061 25.4611 1.37242 25.2971 1.65611 25.226H10.8403C11.124 25.2971 11.3758 25.4611 11.5558 25.6917C11.7357 25.9224 11.8334 26.2066 11.8334 26.4991C11.8334 26.7917 11.7357 27.0759 11.5558 27.3066C11.3758 27.5372 11.124 27.7011 10.8403 27.7723ZM10.8403 34.9648H1.65611C1.37242 34.8936 1.12061 34.7297 0.940686 34.4991C0.760764 34.2684 0.663042 33.9842 0.663042 33.6916C0.663042 33.3991 0.760764 33.1149 0.940686 32.8842C1.12061 32.6536 1.37242 32.4896 1.65611 32.4185H10.8403C11.0338 32.37 11.2358 32.3663 11.4309 32.4076C11.626 32.4489 11.8092 32.5341 11.9664 32.6569C12.1237 32.7796 12.2509 32.9366 12.3384 33.1159C12.4259 33.2952 12.4713 33.4921 12.4713 33.6916C12.4713 33.8912 12.4259 34.0881 12.3384 34.2674C12.2509 34.4467 12.1237 34.6037 11.9664 34.7264C11.8092 34.8491 11.626 34.9344 11.4309 34.9757C11.2358 35.017 11.0338 35.0133 10.8403 34.9648ZM10.8403 41.5535H1.65611C1.37242 41.4824 1.12061 41.3185 0.940686 41.0878C0.760764 40.8572 0.663042 40.573 0.663042 40.2804C0.663042 39.9878 0.760764 39.7036 0.940686 39.473C1.12061 39.2423 1.37242 39.0784 1.65611 39.0073H10.8403C11.0338 38.9588 11.2358 38.955 11.4309 38.9963C11.626 39.0376 11.8092 39.1229 11.9664 39.2456C12.1237 39.3684 12.2509 39.5254 12.3384 39.7047C12.4259 39.884 12.4713 40.0809 12.4713 40.2804C12.4713 40.4799 12.4259 40.6768 12.3384 40.8561C12.2509 41.0354 12.1237 41.1924 11.9664 41.3151C11.8092 41.4379 11.626 41.5232 11.4309 41.5645C11.2358 41.6058 11.0338 41.602 10.8403 41.5535ZM24.761 55.8073H17.5317C16.896 55.8038 16.2873 55.5497 15.8377 55.1C15.3882 54.6503 15.1341 54.0413 15.1307 53.4054V49.0348C15.2018 48.751 15.3656 48.4991 15.5962 48.3191C15.8268 48.1391 16.1109 48.0413 16.4034 48.0413C16.6958 48.0413 16.9799 48.1391 17.2105 48.3191C17.4411 48.4991 17.6049 48.751 17.676 49.0348V53.261H24.6298V49.0348C24.7009 48.751 24.8648 48.4991 25.0953 48.3191C25.3259 48.1391 25.61 48.0413 25.9025 48.0413C26.195 48.0413 26.479 48.1391 26.7096 48.3191C26.9402 48.4991 27.1041 48.751 27.1752 49.0348V53.4054C27.1752 53.7219 27.1126 54.0353 26.9911 54.3276C26.8697 54.6199 26.6916 54.8852 26.4673 55.1084C26.2429 55.3316 25.9767 55.5083 25.6839 55.6282C25.3911 55.7481 25.0774 55.809 24.761 55.8073Z" fill="#1BD9B6"/>
<path d="M23.6456 61.3068H18.7123C18.4246 61.3085 18.1393 61.2535 17.8728 61.145C17.6063 61.0364 17.3638 60.8764 17.1591 60.6741C16.9545 60.4718 16.7916 60.2311 16.6799 59.9658C16.5682 59.7006 16.5098 59.4159 16.5081 59.128V54.5343C16.4596 54.3407 16.4559 54.1387 16.4972 53.9435C16.5385 53.7483 16.6237 53.5651 16.7464 53.4078C16.8691 53.2505 17.026 53.1232 17.2053 53.0357C17.3845 52.9482 17.5813 52.9027 17.7808 52.9027C17.9802 52.9027 18.1771 52.9482 18.3563 53.0357C18.5355 53.1232 18.6925 53.2505 18.8152 53.4078C18.9379 53.5651 19.0231 53.7483 19.0644 53.9435C19.1057 54.1387 19.1019 54.3407 19.0535 54.5343V58.7605H23.3438V54.5343C23.4149 54.2505 23.5788 53.9986 23.8093 53.8186C24.0399 53.6386 24.324 53.5408 24.6165 53.5408C24.9089 53.5408 25.193 53.6386 25.4236 53.8186C25.6542 53.9986 25.818 54.2505 25.8891 54.5343V59.128C25.8893 59.4197 25.8308 59.7085 25.7173 59.9772C25.6038 60.2459 25.4375 60.4891 25.2282 60.6923C25.019 60.8955 24.7711 61.0546 24.4992 61.1601C24.2273 61.2657 23.9371 61.3156 23.6456 61.3068ZM34.5748 56.2143H29.8777C29.2409 56.2143 28.6302 55.9612 28.1799 55.5108C27.7297 55.0603 27.4767 54.4494 27.4767 53.8124V49.0349C27.4282 48.8414 27.4245 48.6393 27.4658 48.4441C27.5071 48.2489 27.5923 48.0657 27.715 47.9084C27.8377 47.7511 27.9946 47.6239 28.1739 47.5363C28.3531 47.4488 28.5499 47.4033 28.7494 47.4033C28.9488 47.4033 29.1457 47.4488 29.3249 47.5363C29.5041 47.6239 29.6611 47.7511 29.7838 47.9084C29.9065 48.0657 29.9917 48.2489 30.033 48.4441C30.0743 48.6393 30.0705 48.8414 30.0221 49.0349V53.668H34.4567V49.0349C34.5278 48.7511 34.6917 48.4992 34.9223 48.3192C35.1528 48.1392 35.4369 48.0415 35.7294 48.0415C36.0219 48.0415 36.3059 48.1392 36.5365 48.3192C36.7671 48.4992 36.931 48.7511 37.0021 49.0349V53.8124C37.0021 54.13 36.9391 54.4445 36.8168 54.7377C36.6945 55.0308 36.5153 55.2967 36.2896 55.5201C36.0638 55.7435 35.796 55.9199 35.5017 56.039C35.2074 56.1582 34.8923 56.2177 34.5748 56.2143ZM72.8074 62.3568C72.4595 62.3568 72.1257 62.2185 71.8797 61.9723C71.6336 61.7262 71.4954 61.3924 71.4954 61.0443V52.8674C71.4469 52.6739 71.4432 52.4718 71.4845 52.2766C71.5258 52.0814 71.611 51.8982 71.7337 51.7409C71.8564 51.5836 72.0133 51.4563 72.1926 51.3688C72.3718 51.2813 72.5686 51.2358 72.7681 51.2358C72.9675 51.2358 73.1644 51.2813 73.3436 51.3688C73.5228 51.4563 73.6798 51.5836 73.8025 51.7409C73.9252 51.8982 74.0104 52.0814 74.0517 52.2766C74.093 52.4718 74.0892 52.6739 74.0407 52.8674V61.0836C74.0315 61.4117 73.8997 61.7243 73.6714 61.96C73.4432 62.1957 73.1349 62.3372 72.8074 62.3568Z" fill="#1BD9B6"/>
<path d="M36.4253 83.9999H33.4864C29.9346 83.9965 26.5294 82.5835 24.0179 80.0711C21.5065 77.5588 20.094 74.1523 20.0905 70.5993V60.0074C20.1616 59.7236 20.3255 59.4717 20.5561 59.2918C20.7866 59.1118 21.0707 59.014 21.3632 59.014C21.6557 59.014 21.9397 59.1118 22.1703 59.2918C22.4009 59.4717 22.5648 59.7236 22.6359 60.0074V70.5993C22.6393 73.477 23.7836 76.2358 25.8177 78.2707C27.8518 80.3055 30.6097 81.4502 33.4864 81.4537H36.4253C39.302 81.4502 42.0598 80.3055 44.094 78.2707C46.1281 76.2358 47.2724 73.477 47.2758 70.5993V27.4837C47.2197 25.6877 47.5247 23.8988 48.173 22.2231C48.8213 20.5473 49.7995 19.019 51.0495 17.7287C52.2996 16.4384 53.7961 15.4126 55.4501 14.712C57.1042 14.0114 58.8821 13.6504 60.6783 13.6504C62.4744 13.6504 64.2523 14.0114 65.9064 14.712C67.5604 15.4126 69.0569 16.4384 70.307 17.7287C71.557 19.019 72.5352 20.5473 73.1835 22.2231C73.8318 23.8988 74.1368 25.6877 74.0807 27.4837V38.1412C74.0096 38.425 73.8457 38.6769 73.6151 38.8569C73.3846 39.0368 73.1005 39.1346 72.808 39.1346C72.5155 39.1346 72.2314 39.0368 72.0009 38.8569C71.7703 38.6769 71.6064 38.425 71.5353 38.1412V27.4837C71.586 26.0256 71.3427 24.5723 70.8199 23.2103C70.2971 21.8484 69.5055 20.6057 68.4923 19.5563C67.4791 18.5069 66.2651 17.6723 64.9226 17.1023C63.5801 16.5323 62.1367 16.2386 60.6783 16.2386C59.2198 16.2386 57.7764 16.5323 56.4339 17.1023C55.0914 17.6723 53.8774 18.5069 52.8642 19.5563C51.851 20.6057 51.0594 21.8484 50.5366 23.2103C50.0138 24.5723 49.7705 26.0256 49.8212 27.4837V70.5993C49.8177 74.1523 48.4052 77.5588 45.8938 80.0711C43.3823 82.5835 39.9771 83.9965 36.4253 83.9999Z" fill="#1BD9B6"/>
<path d="M72.8072 54.1404C71.9923 54.1404 71.1853 53.9798 70.4323 53.6678C69.6794 53.3558 68.9953 52.8985 68.419 52.3221C67.8427 51.7456 67.3856 51.0612 67.0737 50.308C66.7618 49.5548 66.6013 48.7475 66.6013 47.9323V43.0629C66.6747 41.4675 67.3599 39.9617 68.5145 38.8587C69.669 37.7556 71.2042 37.1401 72.8007 37.1401C74.3972 37.1401 75.9323 37.7556 77.0869 38.8587C78.2414 39.9617 78.9266 41.4675 79 43.0629V47.9323C79 49.5765 78.348 51.1536 77.187 52.3174C76.026 53.4813 74.4509 54.1369 72.8072 54.1404ZM72.8072 39.4141C71.8387 39.4141 70.9096 39.7981 70.2234 40.482C69.5373 41.1659 69.1501 42.094 69.1467 43.0629V47.9323C69.1168 48.4307 69.1891 48.93 69.3593 49.3994C69.5294 49.8689 69.7937 50.2986 70.1359 50.6621C70.4782 51.0256 70.8911 51.3152 71.3494 51.5132C71.8076 51.7111 72.3015 51.8133 72.8007 51.8133C73.2998 51.8133 73.7937 51.7111 74.252 51.5132C74.7102 51.3152 75.1232 51.0256 75.4654 50.6621C75.8077 50.2986 76.072 49.8689 76.2421 49.3994C76.4122 48.93 76.4846 48.4307 76.4547 47.9323V43.0629C76.4581 42.5809 76.3664 42.103 76.1849 41.6565C76.0033 41.2101 75.7354 40.8039 75.3965 40.4612C75.0576 40.1186 74.6545 39.8462 74.2101 39.6598C73.7658 39.4733 73.2891 39.3765 72.8072 39.3748V39.4141Z" fill="#1BD9B6"/>
</svg>
