<svg width="66" height="84" viewBox="0 0 66 84" fill="none" xmlns="http://www.w3.org/2000/svg">
<path d="M66 27.972C66 12.5496 52.2402 0 35.3089 0C18.3944 0 4.6178 12.5496 4.6178 27.972C4.6178 28.0896 4.63458 28.2072 4.65136 28.3248L6.12802 35.3808L0.187805 46.9224C-0.0806793 47.4432 -0.0638991 48.0648 0.254926 48.5688C0.556971 49.0728 1.09394 49.3752 1.68125 49.3752H4.88628V53.1048C4.88628 53.6424 5.15476 54.1632 5.59105 54.4824L6.56431 55.1712C6.17836 56.196 5.977 57.4896 6.69855 58.5144C6.88313 58.7832 7.08449 59.0016 7.30264 59.2368C7.77248 59.7576 7.99063 60.0096 7.99063 61.0008C7.99063 61.32 7.92351 61.824 7.83961 62.3448C7.5879 64.008 7.2523 66.2928 8.64506 67.8216C9.48407 68.7456 10.7594 69.1824 12.4206 69.0648C13.5617 68.9976 14.7699 68.8128 16.0619 68.6112C20.408 67.9392 23.5795 67.6368 24.8045 69.7368C27.2208 73.8864 31.4327 82.9248 31.483 83.0088C31.7683 83.6472 32.3724 84 33.01 84C33.2449 84 33.4966 83.9496 33.7148 83.8488C34.5538 83.4624 34.923 82.4544 34.5202 81.6144C34.3524 81.2448 30.2077 72.3576 27.7074 68.0736C25.224 63.8232 19.8711 64.6464 15.5585 65.3184C14.3503 65.5032 13.2093 65.688 12.236 65.7384C11.5145 65.772 11.1957 65.6544 11.1285 65.5704C10.8097 65.2176 11.0446 63.6216 11.1621 62.8488C11.2628 62.1936 11.3467 61.5888 11.3467 61.0176C11.3467 58.7328 10.407 57.6912 9.78612 57.0024C9.71899 56.9352 9.65188 56.8512 9.58475 56.7672C9.61831 56.5824 9.719 56.2968 9.85324 56.028C14.4678 54.684 25.1736 52.0968 28.9827 53.5584C33.5805 55.3224 41.5176 68.544 45.9644 81.8496C46.1993 82.5552 46.8537 82.992 47.5585 82.992C47.7431 82.992 47.9109 82.9584 48.0955 82.908C48.968 82.6056 49.4547 81.6648 49.1526 80.7744C44.7897 67.7544 36.5003 52.836 30.1909 50.4168C24.9219 48.384 12.471 51.7608 8.99744 52.7688L8.24233 52.2312V47.6784C8.24233 46.7544 7.48722 45.9984 6.56431 45.9984H4.43321L9.38339 36.372C9.55119 36.036 9.61831 35.6328 9.53441 35.2632L7.97385 27.804C8.09131 14.3136 20.3073 3.36 35.3089 3.36C50.3776 3.36 62.6439 14.3976 62.6439 27.972C62.6439 39.228 58.4657 45.9648 54.9754 49.644C51.6025 53.172 50.73 58.6152 52.8107 63.168L58.1301 74.9112C58.516 75.7512 59.506 76.1376 60.3451 75.7512C61.1841 75.3648 61.57 74.3736 61.1841 73.5336L55.8647 61.7904C54.3545 58.464 54.9754 54.516 57.4085 51.9792C61.3183 47.8464 66 40.3368 66 27.972Z" fill="#1BD9B6"/>
</svg>
