<svg width="85" height="84" viewBox="0 0 85 84" fill="none" xmlns="http://www.w3.org/2000/svg">
<path fill-rule="evenodd" clip-rule="evenodd" d="M46.841 59.4435H38.1564C37.8343 59.4435 37.5255 59.3142 37.2977 59.084C37.07 58.8538 36.9421 58.5416 36.9421 58.216V47.6192H26.4604C26.1383 47.6192 25.8295 47.4899 25.6017 47.2597C25.374 47.0295 25.2461 46.7173 25.2461 46.3917V37.6104C25.2461 37.2848 25.374 36.9726 25.6017 36.7424C25.8295 36.5122 26.1383 36.3829 26.4604 36.3829H36.9421V25.7861C36.9421 25.4605 37.07 25.1483 37.2977 24.9181C37.5255 24.6879 37.8343 24.5586 38.1564 24.5586H46.841C47.163 24.5586 47.4719 24.6879 47.6996 24.9181C47.9273 25.1483 48.0552 25.4605 48.0552 25.7861V36.3829H58.537C58.859 36.3829 59.1679 36.5122 59.3956 36.7424C59.6233 36.9726 59.7512 37.2848 59.7512 37.6104V46.3917C59.7512 46.7173 59.6233 47.0295 59.3956 47.2597C59.1679 47.4899 58.859 47.6192 58.537 47.6192H48.0552V58.216C48.0552 58.5416 47.9273 58.8538 47.6996 59.084C47.4719 59.3142 47.163 59.4435 46.841 59.4435ZM39.3707 56.9886H45.6267V46.3917C45.6267 46.0662 45.7546 45.754 45.9823 45.5238C46.21 45.2936 46.5189 45.1643 46.841 45.1643H57.3227V38.8378H46.841C46.5189 38.8378 46.21 38.7085 45.9823 38.4783C45.7546 38.2481 45.6267 37.9359 45.6267 37.6104V27.0135H39.3707V37.6104C39.3707 37.9359 39.2427 38.2481 39.015 38.4783C38.7873 38.7085 38.4784 38.8378 38.1564 38.8378H27.6747V45.1643H38.1564C38.4784 45.1643 38.7873 45.2936 39.015 45.5238C39.2427 45.754 39.3707 46.0662 39.3707 46.3917V56.9886Z" fill="#1BD9B6"/>
<path fill-rule="evenodd" clip-rule="evenodd" d="M26.3074 66.4961C31.1 69.7332 36.7344 71.4609 42.4983 71.4609C50.2246 71.4515 57.6318 68.3447 63.0952 62.8221C68.5585 57.2994 71.6319 49.8117 71.6412 42.0015C71.6412 36.1749 69.932 30.4793 66.7297 25.6347C63.5275 20.7901 58.976 17.0142 53.6508 14.7845C48.3257 12.5548 42.466 11.9714 36.8129 13.1081C31.1597 14.2448 25.9669 17.0505 21.8912 21.1705C17.8155 25.2905 15.0399 30.5396 13.9155 36.2542C12.791 41.9688 13.3681 47.8921 15.5738 53.2751C17.7796 58.6581 21.5149 63.2591 26.3074 66.4961ZM27.6567 19.548C32.0498 16.5807 37.2148 14.997 42.4983 14.997C49.5808 15.0054 56.3709 17.8532 61.379 22.9157C66.387 27.9782 69.2043 34.842 69.2126 42.0015C69.2126 47.3425 67.6459 52.5635 64.7104 57.0044C61.7751 61.4452 57.6028 64.9065 52.7215 66.9504C47.8401 68.9943 42.4687 69.5291 37.2866 68.4871C32.1046 67.4451 27.3445 64.8732 23.6085 61.0965C19.8724 57.3199 17.3281 52.5082 16.2974 47.2698C15.2666 42.0314 15.7956 36.6017 17.8176 31.6673C19.8395 26.7329 23.2635 22.5153 27.6567 19.548Z" fill="#1BD9B6"/>
<path fill-rule="evenodd" clip-rule="evenodd" d="M51.0789 83.9995C49.3178 83.785 47.6457 83.0975 46.2364 82.0086C45.1391 81.1599 43.8588 80.5858 42.5 80.3331C41.1412 80.5858 39.8609 81.1599 38.7636 82.0086L38.7554 82.0138C36.911 83.1672 35.0061 84.3585 33.0359 83.8989C30.9996 83.43 29.7696 81.4761 28.5797 79.5859C27.9809 78.3863 27.1149 77.3431 26.0501 76.5389C24.7398 76.1812 23.3649 76.1391 22.0356 76.4162L22.0263 76.4172C19.8436 76.6464 17.6 76.882 16.0006 75.5938C14.399 74.3037 14.1161 72.0095 13.855 69.8025C13.8282 68.4397 13.4864 67.1021 12.8569 65.8967C11.8402 65.0165 10.6344 64.3882 9.33543 64.0616C7.25293 63.3153 5.1 62.5383 4.20021 60.6468C3.31829 58.7939 4.0458 56.6384 4.74944 54.5535L4.7515 54.5474C5.31865 53.2923 5.5857 51.9198 5.53107 50.541C4.99951 49.3249 4.19553 48.2504 3.18264 47.4023L3.17559 47.3951C1.61378 45.7942 0 44.1401 0 42.0014C0 39.8663 1.60834 38.219 3.16769 36.6219L3.18264 36.6066C4.1954 35.7584 4.99935 34.684 5.53107 33.468C5.58575 32.0872 5.31872 30.7127 4.7515 29.4553C4.04721 27.3686 3.31743 25.2034 4.20021 23.3499C5.10288 21.4636 7.25171 20.6876 9.33014 19.9369L9.33543 19.935C10.6335 19.6085 11.8389 18.982 12.8569 18.1049C13.485 16.8999 13.826 15.5632 13.8526 14.2015C14.1136 11.992 14.3844 9.71136 15.997 8.41147C17.6088 7.11221 19.855 7.34824 22.0385 7.57767L22.0417 7.57801C23.3686 7.8537 24.7409 7.81166 26.0489 7.45526C27.1147 6.65324 27.9808 5.6109 28.5782 4.41111C29.767 2.52087 30.9959 0.566636 33.0334 0.0965307C35.003 -0.350952 36.9048 0.838702 38.7472 1.99122L38.7539 1.99544C39.8529 2.84901 41.1369 3.42625 42.5 3.67954C43.8611 3.4266 45.1433 2.85067 46.2412 1.99912L46.2464 1.99585C48.0893 0.84304 49.9904 -0.346166 51.9605 0.100213C53.9992 0.570318 55.228 2.52432 56.4168 4.41457C57.0142 5.61399 57.8799 6.65648 58.9451 7.45894C60.2531 7.81503 61.6253 7.85706 62.9522 7.58169C65.1379 7.35215 67.3941 7.11525 68.9994 8.4176C70.6046 9.71996 70.8803 11.9982 71.1414 14.2052C71.1678 15.568 71.5096 16.9057 72.1395 18.111C73.1581 18.9944 74.3669 19.625 75.6694 19.9522L75.6709 19.9527C77.7481 20.7001 79.8941 21.4723 80.7949 23.3548C81.678 25.2089 80.9506 27.368 80.247 29.4564L80.2449 29.4627C79.6777 30.7197 79.4107 32.0937 79.4653 33.4741C79.9966 34.6907 80.8006 35.7656 81.8137 36.614C83.3814 38.2134 85 39.8693 85 42.0014C85 44.1335 83.3814 45.7943 81.8174 47.3949C80.8045 48.2435 80.0006 49.3184 79.4689 50.5348C79.4142 51.914 79.6813 53.2869 80.2485 54.5425L80.2506 54.5486C80.9542 56.6335 81.6817 58.789 80.7998 60.6406C79.8976 62.5322 77.7471 63.3092 75.6658 64.0592C74.3668 64.3857 73.161 65.0141 72.1444 65.8942C71.5148 67.0997 71.173 68.4373 71.1462 69.8001C70.8851 72.0095 70.6144 74.2902 69.0018 75.5913C67.4018 76.8823 65.1804 76.6507 63.0168 76.4252L62.9656 76.4199C61.635 76.1443 60.2592 76.1863 58.9475 76.5426C57.8822 77.3432 57.0161 78.3838 56.4181 79.5819C55.2295 81.4683 54.0003 83.419 51.9629 83.8891C51.6734 83.9598 51.3768 83.9969 51.0789 83.9995ZM42.5 77.8781C44.3225 78.0894 46.0546 78.7952 47.5126 79.9206C48.943 80.8142 50.4269 81.741 51.4189 81.5065C52.4863 81.261 53.4431 79.7427 54.3684 78.2734C55.1724 76.6684 56.3887 75.3117 57.8899 74.3454C59.5999 73.7468 61.4375 73.6235 63.2109 73.9882C64.9106 74.165 66.6571 74.3466 67.4839 73.6814C68.3109 73.0161 68.5282 71.2338 68.731 69.5178C68.7685 67.697 69.2903 65.92 70.2416 64.3734C71.5165 63.0982 73.1081 62.1942 74.8486 61.7564C76.4672 61.1734 78.1405 60.5695 78.6129 59.585C79.0634 58.6374 78.4987 56.9631 77.9511 55.3441C77.1984 53.672 76.9048 51.8259 77.1011 49.9996C77.6947 48.3139 78.7271 46.8213 80.0894 45.6789L80.0993 45.6688C81.3166 44.4199 82.5714 43.1325 82.5714 42.0014C82.5714 40.8713 81.319 39.5902 80.1028 38.3461L80.0894 38.3325C78.7296 37.1905 77.6994 35.6992 77.1071 34.0154C76.9106 32.1879 77.2042 30.3406 77.9571 28.6673C78.5048 27.0446 79.0706 25.3666 78.6189 24.419C78.1529 23.445 76.4838 22.8436 74.8696 22.2621L74.8668 22.2611C73.1235 21.8243 71.5293 20.9198 70.2525 19.6429C69.2965 18.0977 68.7701 16.3206 68.7286 14.4985C68.5258 12.7801 68.3157 11.0076 67.4815 10.3349C66.6473 9.66226 64.8987 9.84393 63.2024 10.0244C61.4314 10.3905 59.5957 10.2684 57.8874 9.67086C56.3851 8.70126 55.1687 7.34065 54.366 5.73188C53.4407 4.25891 52.4851 2.73929 51.4214 2.49379C50.428 2.26292 48.962 3.1833 47.5393 4.07656L47.5186 4.08952C46.0591 5.21665 44.3248 5.9233 42.5 6.13449C40.6744 5.92244 38.9397 5.21449 37.4801 4.08583L37.4767 4.08371C36.0486 3.19076 34.5651 2.26321 33.5762 2.49011C32.5137 2.73561 31.5581 4.25523 30.6328 5.72697C29.8301 7.33574 28.6137 8.69635 27.1114 9.66595C25.4031 10.2634 23.5674 10.3856 21.7964 10.0195L21.7817 10.0179C20.0863 9.84165 18.3443 9.66051 17.5209 10.3276C16.6952 10.9965 16.473 12.7825 16.2702 14.4936C16.2327 16.3144 15.7109 18.0914 14.7596 19.638C13.4831 20.9082 11.8931 21.8093 10.1551 22.2476L10.152 22.2487C8.53312 22.8326 6.8592 23.4364 6.39079 24.4165C5.94708 25.3474 6.49519 26.9892 7.02925 28.5889L7.05379 28.6624C7.80682 30.3361 8.10042 32.1838 7.90379 34.0117C7.31016 35.6974 6.2778 37.1901 4.91543 38.3325C3.69021 39.5857 2.42857 40.877 2.42857 42.0014C2.42857 43.1258 3.69021 44.422 4.91057 45.6703C6.27334 46.8128 7.30577 48.306 7.89893 49.9923C8.09512 51.8182 7.80151 53.6638 7.04893 55.3355C6.50129 56.9545 5.93664 58.6288 6.38714 59.5764C6.85586 60.5584 8.52914 61.1648 10.1514 61.7478C11.8922 62.1855 13.4839 63.0901 14.7584 64.366C15.7099 65.9121 16.2317 67.6887 16.269 69.5092C16.4718 71.2276 16.6819 73.0001 17.5173 73.6728C18.3407 74.3358 20.0418 74.1569 21.7125 73.9812L21.7855 73.9735C23.5593 73.6048 25.3987 73.7261 27.1101 74.3246C28.6109 75.2956 29.8268 76.6553 30.6316 78.2623C31.5569 79.7353 32.5149 81.2561 33.5799 81.5016C34.5824 81.732 36.0546 80.8123 37.4829 79.9201L37.4899 79.9157C38.9477 78.7924 40.6788 78.0884 42.5 77.8781Z" fill="#1BD9B6"/>
</svg>
