<svg width="84" height="84" viewBox="0 0 84 84" fill="none" xmlns="http://www.w3.org/2000/svg">
<path fill-rule="evenodd" clip-rule="evenodd" d="M39.7266 30.3086C39.4281 30.3086 39.1409 30.4228 38.924 30.6279L13.0799 56.4723C12.9745 56.5777 12.8908 56.7028 12.8338 56.8405C12.7767 56.9782 12.7473 57.1258 12.7473 57.2749C12.7473 57.424 12.7767 57.5716 12.8338 57.7093C12.8908 57.847 12.9745 57.9721 13.0799 58.0775L25.9225 70.9206C26.0279 71.0261 26.153 71.1097 26.2907 71.1667C26.4284 71.2238 26.576 71.2532 26.7251 71.2532C26.8742 71.2532 27.0218 71.2238 27.1595 71.1667C27.2972 71.1097 27.4223 71.0261 27.5277 70.9206L53.3725 45.0762C53.4779 44.9708 53.5616 44.8457 53.6186 44.708C53.6757 44.5703 53.7051 44.4227 53.7051 44.2736C53.7051 44.1245 53.6757 43.9769 53.6186 43.8392C53.5616 43.7015 53.4779 43.5764 53.3725 43.471L40.5292 30.6279C40.3122 30.4228 40.0251 30.3086 39.7266 30.3086ZM50.9647 44.2736L26.7251 68.5128L15.4878 57.2749L39.7266 33.0357L50.9647 44.2736Z" fill="#1BD9B6"/>
<path fill-rule="evenodd" clip-rule="evenodd" d="M42.043 19.2977L4.69291 56.6479C2.45214 58.8886 0.926185 61.7435 0.307921 64.8515C-0.310349 67.9595 0.00688839 71.181 1.21951 74.1087C2.43214 77.0364 4.48569 79.5388 7.1205 81.2994C9.7553 83.06 12.853 83.9998 16.0219 83.9999C18.1269 84.0055 20.2128 83.5936 22.1575 82.788C24.1022 81.9825 25.8679 80.7993 27.3524 79.307L64.702 41.9571L66.1107 43.3658C66.2161 43.4712 66.3412 43.5548 66.4789 43.6119C66.6166 43.669 66.7642 43.6983 66.9133 43.6983C67.0624 43.6983 67.21 43.669 67.3477 43.6119C67.4854 43.5548 67.6105 43.4712 67.7159 43.3658L82.2716 28.8095C83.3783 27.6996 83.9999 26.1963 84 24.6289C84.0001 23.0615 83.3789 21.5581 82.2724 20.448L63.5521 1.72936C62.4425 0.621956 60.9389 0 59.3712 0C57.8036 0 56.3 0.621956 55.1904 1.72936L40.6347 16.2842C40.5292 16.3896 40.4456 16.5147 40.3885 16.6524C40.3315 16.7901 40.3021 16.9377 40.3021 17.0868C40.3021 17.2359 40.3315 17.3835 40.3885 17.5212C40.4456 17.6589 40.5292 17.784 40.6347 17.8894L42.043 19.2977ZM80.6664 27.2043L66.9133 40.9579L43.0424 17.0867L56.7956 3.33463C57.4796 2.6531 58.4057 2.27041 59.3713 2.27041C60.3368 2.27041 61.263 2.6531 61.9469 3.33463L80.6664 22.0532C81.3481 22.737 81.7309 23.6632 81.7309 24.6287C81.7309 25.5943 81.3481 26.5205 80.6664 27.2043ZM16.0227 81.7296C12.3753 81.7296 8.87736 80.2808 6.29822 77.7018C3.71921 75.1227 2.27034 71.6248 2.27034 67.9774C2.27034 64.3301 3.71921 60.8322 6.29822 58.2531L43.6479 20.9032L63.0969 40.3519L25.7472 77.7018C23.1681 80.2808 19.6701 81.7296 16.0227 81.7296Z" fill="#1BD9B6"/>
</svg>
