<svg width="84" height="84" viewBox="0 0 84 84" fill="none" xmlns="http://www.w3.org/2000/svg">
<path d="M42 84C65.2235 84 84 65.2235 84 42C84 18.7765 65.2235 0 42 0C18.7765 0 0 18.7765 0 42C0 65.2235 18.7765 84 42 84ZM42 3.29412C63.4118 3.29412 80.7059 20.5882 80.7059 42C80.7059 63.4118 63.4118 80.7059 42 80.7059C20.5882 80.7059 3.29412 63.4118 3.29412 42C3.29412 20.5882 20.5882 3.29412 42 3.29412Z" fill="#1BD9B6"/>
<path d="M21.4126 15.647C21.4126 15.8117 21.5773 15.8117 21.5773 15.9764C21.5773 15.9764 21.5773 16.1412 21.742 16.1412L35.2479 33.6C35.742 34.2588 36.7303 34.4235 37.3891 34.0941C40.1891 32.447 43.8126 32.447 46.7773 34.0941C47.1067 34.2588 47.2714 34.2588 47.6008 34.2588C48.095 34.2588 48.5891 34.0941 48.9185 33.6L62.4244 16.1412C62.4244 16.1412 62.4244 15.9764 62.5891 15.9764L62.7538 15.8117C62.7538 15.647 62.7538 15.647 62.7538 15.4823V15.3176C62.7538 15.3176 62.7538 15.3176 62.7538 15.1529C62.7538 15.1529 62.7538 15.1529 62.7538 14.9882V14.8235C62.7538 14.6588 62.7538 14.4941 62.5891 14.4941C62.5891 14.4941 62.5891 14.3294 62.4244 14.3294C62.2597 14.1647 62.2597 14.1647 62.095 14C56.1656 9.55292 49.2479 7.41174 42.0008 7.41174C34.7538 7.41174 27.8361 9.55292 22.0714 13.6706C21.9067 13.8353 21.9067 13.8353 21.742 14C21.742 14 21.742 14.1647 21.5773 14.1647C21.5773 14.3294 21.4126 14.3294 21.4126 14.4941V14.6588C21.4126 14.6588 21.4126 14.6588 21.4126 14.8235C21.4126 14.8235 21.4126 14.8235 21.4126 14.9882V15.1529C21.4126 15.4823 21.4126 15.4823 21.4126 15.647ZM42.0008 10.7059C47.9303 10.7059 53.695 12.3529 58.6361 15.4823L46.942 30.4706C45.295 29.8117 43.6479 29.4823 42.0008 29.4823C40.3538 29.4823 38.542 29.8117 37.0597 30.4706L25.5303 15.4823C30.3067 12.3529 36.0714 10.7059 42.0008 10.7059ZM27.5067 73.4588C27.6714 73.6235 28.0008 73.6235 28.1656 73.6235C28.3303 73.6235 28.495 73.6235 28.8244 73.4588C29.3185 73.2941 29.6479 72.9647 29.8126 72.4706L38.2126 52.047C38.542 51.2235 38.2126 50.4 37.5538 50.0706C36.0714 49.247 34.9185 48.0941 34.095 46.6117C33.1067 45.2941 32.6126 43.647 32.6126 42C32.6126 41.1764 31.9538 40.5176 31.1303 40.3529L9.38908 37.3882C8.89496 37.3882 8.56555 37.3882 8.07143 37.7176C7.74202 38.047 7.57732 38.3764 7.41261 38.8706C6.75379 45.9529 8.23614 53.0353 11.8597 59.2941C15.6479 65.5529 20.9185 70.3294 27.5067 73.4588ZM10.7067 40.847L29.4832 43.4823C29.6479 45.1294 30.142 46.7765 31.1303 48.4235C31.9538 49.9059 33.1067 51.2235 34.5891 52.2117L27.5067 69.6706C22.4008 66.8706 18.1185 62.7529 15.1538 57.647C11.8597 52.5412 10.542 46.7765 10.7067 40.847ZM51.3891 42C51.3891 43.647 50.895 45.2941 50.0714 46.6117C49.2479 48.0941 48.095 49.247 46.6126 50.0706C45.9538 50.4 45.6244 51.3882 45.9538 52.047L54.3538 72.4706C54.5185 72.9647 54.8479 73.2941 55.342 73.4588C55.5067 73.4588 55.6714 73.6235 56.0008 73.6235C56.1656 73.6235 56.495 73.6235 56.6597 73.4588C63.0832 70.4941 68.5185 65.5529 72.142 59.2941C75.7656 53.0353 77.2479 45.9529 76.5891 38.8706C76.5891 38.3764 76.2597 38.047 75.9303 37.7176C75.6008 37.3882 75.1067 37.3882 74.6126 37.3882L52.7067 40.3529C51.8832 40.5176 51.3891 41.1764 51.3891 42ZM54.5185 43.4823L73.295 40.847C73.4597 46.7765 72.142 52.3764 69.1773 57.647C66.2126 62.7529 61.9303 66.8706 56.8244 69.6706L49.742 52.2117C51.0597 51.2235 52.2126 49.9059 53.2008 48.4235C53.8597 46.7765 54.3538 45.1294 54.5185 43.4823ZM49.0832 42C49.0832 38.047 45.9538 34.9176 42.0008 34.9176C38.0479 34.9176 34.9185 38.047 34.9185 42C34.9185 45.9529 38.0479 49.0823 42.0008 49.0823C45.9538 49.0823 49.0832 45.9529 49.0832 42ZM42.0008 45.7882C39.8597 45.7882 38.2126 44.1412 38.2126 42C38.2126 39.8588 39.8597 38.2117 42.0008 38.2117C44.142 38.2117 45.7891 39.8588 45.7891 42C45.7891 44.1412 44.142 45.7882 42.0008 45.7882Z" fill="#1BD9B6"/>
</svg>
