<svg width="84" height="84" viewBox="0 0 84 84" fill="none" xmlns="http://www.w3.org/2000/svg">
<path d="M14 72.7996V75.5996C10.1402 75.5996 7 72.4594 7 68.5996H9.8C9.8 70.9152 11.6844 72.7996 14 72.7996Z" fill="#1BD9B6"/>
<path d="M74.2 68.5996H77C77 72.4594 73.8598 75.5996 70 75.5996V72.7996C72.3156 72.7996 74.2 70.9152 74.2 68.5996Z" fill="#1BD9B6"/>
<path fill-rule="evenodd" clip-rule="evenodd" d="M26.6 80.549C23.2582 82.5384 19.1156 84 14 84C8.372 84 0 79.1532 0 65.8V57.4C0 52.2214 3.3698 19.6 11.2 19.6C12.992 19.6 15.0346 20.5926 17.3516 22.5932L15.4168 10.0128C15.4056 9.9428 15.4 9.8714 15.4 9.8V8.4C15.4 4.5164 18.4576 0 22.4 0C22.5764 0 37.331 1.2292 42 4.7572C46.669 1.2292 61.4236 0 61.6 0C65.5424 0 68.6 4.5164 68.6 8.4V9.8C68.6 9.8714 68.5944 9.9428 68.5832 10.0128L66.6484 22.5932C68.9654 20.5926 71.008 19.6 72.8 19.6C74.8846 19.6 78.0206 21.2744 81.1678 35.7532C82.9402 43.9068 84 53.1622 84 57.4V65.8C84 79.1532 75.628 84 70 84C64.8844 84 60.7418 82.5384 57.4 80.549V84H54.6V79.8H29.4V84H26.6V80.549ZM31.3936 76.9538C31.3768 76.9692 31.3628 76.9846 31.346 77H52.6512C52.6344 76.9846 52.6218 76.9706 52.605 76.9552C52.0996 76.4946 51.6222 76.0368 51.1728 75.5818C51.1321 75.5411 51.0954 75.5029 51.0582 75.4643C51.0327 75.4377 51.007 75.4109 50.9796 75.383C50.6282 75.0232 50.295 74.6704 49.9772 74.3246C49.9567 74.3016 49.9318 74.2757 49.9077 74.2506C49.8907 74.2329 49.8741 74.2156 49.8596 74.2H34.1376C34.1169 74.2232 34.0922 74.2489 34.0679 74.2742C34.0513 74.2915 34.0348 74.3086 34.02 74.3246C33.7036 74.6704 33.3704 75.0218 33.0204 75.3802C32.9935 75.4077 32.9676 75.4345 32.9418 75.4613C32.9033 75.5014 32.8649 75.5413 32.823 75.5832C32.375 76.0368 31.8976 76.4946 31.3936 76.9538ZM37.968 70C37.6824 70.189 37.1448 70.7728 36.5946 71.4H47.404C46.8538 70.7742 46.3162 70.189 46.0306 70H37.968ZM52.0184 42.2044C52.6218 41.188 53.2728 40.1128 53.9616 39.0054C53.9979 38.9481 54.0345 38.8905 54.0694 38.8332C54.7036 37.814 55.3686 36.7724 56.056 35.7252C51.1546 36.2488 45.0352 36.4 42 36.4C38.5196 36.4 32.4394 36.2208 27.8726 35.616C28.5782 36.6898 29.26 37.7566 29.911 38.801C29.9271 38.8269 29.9432 38.8524 29.9593 38.878C29.9754 38.9035 29.9915 38.9291 30.0076 38.955C30.7202 40.1016 31.395 41.2132 32.0166 42.2618L32.0782 42.364C35.6706 42.0966 39.4982 42 42 42C44.317 42 48.2118 42.0868 51.9428 42.329C51.9529 42.3122 51.963 42.2959 51.973 42.2795C51.9882 42.255 52.0033 42.2304 52.0184 42.2044ZM48.16 49C48.5926 48.1978 49.3598 46.7978 50.3636 45.0422C47.1534 44.8672 43.9866 44.8 42 44.8C39.8636 44.8 36.743 44.8742 33.6504 45.066C34.6486 46.8104 35.4102 48.202 35.84 49H48.16ZM42 33.6C45.5154 33.6 53.2308 33.3928 58.1532 32.6312C58.9596 31.4776 59.7436 30.3996 60.5052 29.4H23.4948C24.206 30.3338 24.9382 31.339 25.6886 32.4072C29.9544 33.3452 38.1318 33.6 42 33.6ZM22.4 2.8C20.237 2.8 18.2 5.9542 18.2 8.4V9.6922L20.7046 25.977C20.7186 25.9938 20.7326 26.0106 20.7466 26.026C20.9132 26.215 21.0784 26.4026 21.2464 26.6H62.7522C62.9202 26.4026 63.0854 26.215 63.252 26.026C63.266 26.0092 63.28 25.9924 63.294 25.977L65.8 9.6922V8.4C65.8 5.9542 63.763 2.8 61.6 2.8C57.5526 2.8 44.6824 5.292 43.393 7.1386C43.323 7.847 42.7266 8.4 42 8.4C41.2734 8.4 40.677 7.847 40.607 7.1386C39.3176 5.292 26.4474 2.8 22.4 2.8ZM11.2 22.4C8.1382 22.4 2.8 44.6432 2.8 57.4V65.8C2.8 70.084 4.8118 81.2 14 81.2C19.2192 81.2 23.2904 79.5074 26.495 77.3052C26.5051 77.297 26.5137 77.2877 26.5224 77.2784C26.533 77.267 26.5435 77.2556 26.5566 77.2464C28.5054 75.8982 30.1294 74.3624 31.3642 73.0688L31.3726 73.0604C31.7828 72.6306 32.151 72.2274 32.473 71.8662C32.9448 71.337 33.3858 70.8274 33.7904 70.357C35.5432 68.3214 36.5092 67.2 37.8 67.2H46.2C47.4894 67.2 48.454 68.32 50.2054 70.357C50.61 70.8274 51.051 71.3384 51.5242 71.8676C51.5256 71.8676 51.527 71.869 51.527 71.869C52.8206 73.3166 54.8408 75.4502 57.4448 77.2492C57.4572 77.2579 57.4673 77.269 57.4775 77.2801C57.4869 77.2904 57.4964 77.3007 57.5078 77.3094C60.711 79.5074 64.7808 81.2 70 81.2C79.1882 81.2 81.2 70.084 81.2 65.8V57.4C81.2 45.6526 76.0956 22.4 72.8 22.4C70.9408 22.4 68.4222 24.4118 65.6838 27.4974C65.6754 27.5072 65.6712 27.5184 65.6628 27.5282C65.2722 27.9664 64.8802 28.4242 64.4896 28.8946C64.4889 28.8953 64.4879 28.896 64.4868 28.8967C64.4858 28.8974 64.4847 28.8981 64.484 28.8988C63.056 30.6222 61.586 32.5878 60.1314 34.6808C60.1244 34.6934 60.1216 34.7074 60.1132 34.7186C58.1126 37.6096 56.028 40.8996 53.9182 44.4934C53.8987 44.5271 53.8741 44.5552 53.8494 44.5834C53.8352 44.5997 53.8209 44.616 53.8076 44.6334C52.4874 46.8874 51.2764 49.0728 50.2404 51.0496C49.9982 51.5102 49.5208 51.8 49 51.8H35C34.4792 51.8 34.0018 51.5102 33.7596 51.0496C32.7306 49.0854 31.5266 46.9154 30.2176 44.6768C30.206 44.662 30.1938 44.6477 30.1815 44.6333C30.1555 44.6028 30.1294 44.5721 30.1084 44.5368C27.9216 40.8114 25.767 37.4192 23.7034 34.454C23.7006 34.4498 23.6989 34.4456 23.6971 34.4414C23.6954 34.4372 23.6936 34.433 23.6908 34.4288C22.2922 32.4296 20.8838 30.5508 19.5132 28.896L19.5118 28.8946C19.1212 28.4228 18.7292 27.9664 18.3386 27.5282C18.3348 27.5244 18.3323 27.5199 18.3297 27.5152C18.3274 27.5111 18.325 27.5069 18.3218 27.503C15.5792 24.4132 13.0606 22.4 11.2 22.4Z" fill="#1BD9B6"/>
</svg>
