<svg width="83" height="83" viewBox="0 0 83 83" fill="none" xmlns="http://www.w3.org/2000/svg">
<path d="M29.6625 59.1063C36.6625 59.1063 43.6625 56.6563 49.2625 51.5813L52.4125 54.7313L46.2875 60.8563L54.5125 69.0813L56.9625 66.6312L70.6125 80.2813C71.8375 81.5063 73.2375 82.0313 74.8125 82.0313C76.3875 82.0313 77.7875 81.5063 79.0125 80.2813L80.7625 78.5313C83.0375 76.2563 83.0375 72.4062 80.7625 70.1312L66.9375 56.8313L69.3875 54.3813L61.1625 46.1563L55.0375 52.2813L51.7125 49.1313C62.0375 37.5813 61.6875 19.7313 50.4875 8.53125C39.1125 -2.84375 20.2125 -2.84375 8.6625 8.53125C-2.8875 20.0813 -2.8875 38.8063 8.6625 50.3563C14.4375 56.1313 22.1375 59.1063 29.6625 59.1063ZM78.1375 72.9313C79.0125 73.8063 79.0125 75.3813 78.1375 76.4313L76.3875 78.1813C75.5125 79.0563 73.9375 79.0563 72.8875 78.1813L59.2375 64.5313L64.4875 59.2813L78.1375 72.9313ZM64.4875 54.3813L54.6875 64.1813L51.3625 60.8563L61.3375 50.8813L64.4875 54.3813ZM11.2875 11.1563C16.3625 6.08125 23.0125 3.45625 29.6625 3.45625C36.3125 3.45625 42.9625 6.08125 48.0375 11.1563C58.1875 21.3063 58.1875 37.9313 48.0375 48.0813C37.8875 58.2313 21.2625 58.2313 11.1125 48.0813C1.1375 37.7563 1.1375 21.3063 11.2875 11.1563Z" fill="#1BD9B6"/>
<path d="M42.2625 16.9313L44.7125 14.3063C36.4875 6.08132 22.8375 6.08132 14.4375 14.3063L16.8875 16.7563C23.8875 9.93132 35.2625 9.93132 42.2625 16.9313Z" fill="#1BD9B6"/>
</svg>
