<svg width="97" height="84" viewBox="0 0 97 84" fill="none" xmlns="http://www.w3.org/2000/svg">
<path fill-rule="evenodd" clip-rule="evenodd" d="M55.0794 23.6626V31.4281C55.0783 32.2643 54.7481 33.066 54.1612 33.6573C53.5744 34.2486 52.7788 34.5813 51.9488 34.5824H44.8645V41.7196C44.8634 42.5559 44.5333 43.3576 43.9464 43.9489C43.3595 44.5402 42.5639 44.8729 41.7339 44.874H34.0271C33.1971 44.8729 32.4015 44.5402 31.8146 43.9489C31.2278 43.3576 30.8976 42.5559 30.8965 41.7196V34.5825H23.8122C22.9823 34.5814 22.1866 34.2487 21.5998 33.6574C21.0129 33.066 20.6827 32.2644 20.6816 31.4281V23.6626C20.6827 22.8263 21.0129 22.0246 21.5998 21.4333C22.1866 20.842 22.9823 20.5093 23.8122 20.5082H30.8965V13.3692C30.8976 12.533 31.2278 11.7313 31.8146 11.14C32.4015 10.5486 33.1971 10.2159 34.0271 10.2148H41.7339C42.5638 10.2159 43.3595 10.5486 43.9464 11.1399C44.5332 11.7313 44.8634 12.533 44.8645 13.3692V20.5082H51.9488C52.7787 20.5093 53.5744 20.842 54.1612 21.4333C54.7481 22.0246 55.0783 22.8263 55.0794 23.6626ZM42.4531 32.1528C42.718 31.8858 43.0773 31.7359 43.4519 31.7358H51.9488C51.9889 31.7358 52.0286 31.7278 52.0657 31.7124C52.1028 31.6969 52.1364 31.6743 52.1648 31.6457C52.1931 31.6171 52.2156 31.5832 52.231 31.5459C52.2463 31.5085 52.2542 31.4685 52.2542 31.4281V23.6626C52.2542 23.6222 52.2463 23.5822 52.231 23.5448C52.2156 23.5075 52.1931 23.4736 52.1648 23.445C52.1364 23.4164 52.1028 23.3938 52.0657 23.3783C52.0286 23.3628 51.9889 23.3549 51.9488 23.3549H43.4519C43.0773 23.3548 42.718 23.2048 42.4531 22.9379C42.1882 22.671 42.0394 22.309 42.0393 21.9316V13.3692C42.0393 13.3288 42.0314 13.2888 42.0161 13.2514C42.0008 13.2141 41.9783 13.1802 41.9499 13.1516C41.9215 13.123 41.8879 13.1004 41.8508 13.0849C41.8138 13.0695 41.774 13.0615 41.7339 13.0616H34.0271C33.987 13.0615 33.9472 13.0695 33.9102 13.0849C33.8731 13.1004 33.8395 13.123 33.8111 13.1516C33.7827 13.1802 33.7603 13.2141 33.7449 13.2515C33.7296 13.2888 33.7217 13.3288 33.7217 13.3692V21.9316C33.7216 22.309 33.5728 22.671 33.3079 22.9379C33.043 23.2048 32.6837 23.3548 32.3091 23.3549H23.8122C23.7721 23.3549 23.7324 23.3629 23.6953 23.3783C23.6583 23.3938 23.6246 23.4164 23.5963 23.445C23.5679 23.4736 23.5454 23.5075 23.5301 23.5448C23.5147 23.5822 23.5069 23.6222 23.5069 23.6626V31.428C23.5069 31.4684 23.5147 31.5084 23.5301 31.5458C23.5454 31.5831 23.5679 31.617 23.5963 31.6456C23.6246 31.6742 23.6583 31.6968 23.6953 31.7123C23.7324 31.7278 23.7721 31.7357 23.8122 31.7357H32.3091C32.6837 31.7358 33.043 31.8858 33.3079 32.1527C33.5728 32.4196 33.7216 32.7816 33.7217 33.159V41.7196C33.7217 41.76 33.7296 41.8 33.7449 41.8374C33.7603 41.8747 33.7827 41.9086 33.8111 41.9372C33.8395 41.9658 33.8731 41.9885 33.9102 42.0039C33.9472 42.0194 33.987 42.0273 34.0271 42.0273H41.7339C41.774 42.0273 41.8138 42.0194 41.8508 42.0039C41.8879 41.9885 41.9215 41.9658 41.9499 41.9372C41.9783 41.9087 42.0008 41.8747 42.0161 41.8374C42.0314 41.8 42.0393 41.76 42.0393 41.7196V33.1591C42.0394 32.7816 42.1882 32.4197 42.4531 32.1528Z" fill="#1BD9B6"/>
<path d="M60.1275 51.8461H86.0734C86.448 51.8461 86.8074 51.9961 87.0723 52.263C87.3372 52.5299 87.486 52.892 87.486 53.2695C87.486 53.647 87.3372 54.009 87.0723 54.2759C86.8074 54.5429 86.448 54.6928 86.0734 54.6928H60.1275C59.7528 54.6928 59.3935 54.5429 59.1286 54.2759C58.8637 54.009 58.7148 53.647 58.7148 53.2695C58.7148 52.892 58.8637 52.5299 59.1286 52.263C59.3935 51.9961 59.7528 51.8461 60.1275 51.8461Z" fill="#1BD9B6"/>
<path d="M60.1275 62.1265H86.0734C86.448 62.1265 86.8074 62.2765 87.0723 62.5434C87.3372 62.8103 87.486 63.1724 87.486 63.5499C87.486 63.9274 87.3372 64.2894 87.0723 64.5563C86.8074 64.8233 86.448 64.9732 86.0734 64.9732H60.1275C59.7528 64.9732 59.3935 64.8233 59.1286 64.5563C58.8637 64.2894 58.7148 63.9274 58.7148 63.5499C58.7148 63.1724 58.8637 62.8103 59.1286 62.5434C59.3935 62.2765 59.7528 62.1265 60.1275 62.1265Z" fill="#1BD9B6"/>
<path fill-rule="evenodd" clip-rule="evenodd" d="M75.761 40.8788H91.3045C92.8146 40.8805 94.2625 41.4858 95.3302 42.5619C96.398 43.6379 96.9985 45.0969 97 46.6185V70.2002C96.9985 71.7219 96.398 73.1808 95.3302 74.2569C94.2625 75.3329 92.8146 75.9382 91.3045 75.9399H87.199V81.0643C87.1998 81.6449 87.0293 82.2127 86.7092 82.6955C86.389 83.1783 85.9337 83.5543 85.4011 83.7758C85.0464 83.9234 84.6665 83.9995 84.2827 84C83.9008 84.0002 83.5226 83.9244 83.1698 83.7768C82.8171 83.6292 82.4967 83.4128 82.2272 83.1401L75.0823 75.9399H54.8963C53.3862 75.9382 51.9383 75.3329 50.8706 74.2569C49.8028 73.1808 49.2023 71.7219 49.2008 70.2002V55.0882H34.303L22.4575 67.0237C22.1061 67.3847 21.687 67.6718 21.2246 67.8684C20.7622 68.065 20.2657 68.1672 19.7638 68.169C19.2502 68.1678 18.7419 68.0638 18.2684 67.8632C17.561 67.5771 16.9558 67.0824 16.5322 66.4438C16.1086 65.8051 15.8864 65.0525 15.8947 64.2844V55.0882H8.35801C6.14206 55.0858 4.01756 54.1978 2.45065 52.619C0.883735 51.0401 0.00239309 48.8995 0 46.6667V8.42145C0.00246819 6.18853 0.883962 4.0478 2.45106 2.46898C4.01816 0.890162 6.14285 0.00222278 8.35893 0H67.4021C69.6182 0.00222281 71.7429 0.890172 73.31 2.469C74.8771 4.04784 75.7586 6.18859 75.761 8.42152V40.8788ZM32.7193 52.6585C32.9842 52.3916 33.3434 52.2416 33.718 52.2415L49.2008 52.2414V46.6166C49.2026 45.0952 49.8033 43.6367 50.8711 42.561C51.9388 41.4853 53.3864 40.8803 54.8963 40.8787H72.9358V8.42145C72.9341 6.94326 72.3506 5.5261 71.3131 4.48095C70.2757 3.4358 68.8691 2.84804 67.4021 2.84664H8.35893C6.89189 2.84804 5.48532 3.4358 4.44788 4.48095C3.41044 5.5261 2.82688 6.94326 2.82524 8.42145V46.6667C2.82682 48.1448 3.41024 49.5618 4.44749 50.6069C5.48475 51.6521 6.89111 52.2399 8.35801 52.2415H17.3074C17.682 52.2416 18.0412 52.3916 18.3061 52.6585C18.571 52.9254 18.7199 53.2874 18.72 53.6649V64.2844C18.72 64.4875 18.7798 64.6861 18.8918 64.855C19.0038 65.0239 19.1629 65.1555 19.3492 65.2333C19.5354 65.311 19.7403 65.3314 19.9381 65.2918C20.1358 65.2523 20.3174 65.1545 20.46 65.0109L32.7193 52.6585ZM93.3334 72.2448C93.8715 71.7025 94.1741 70.9672 94.1748 70.2002V46.6185C94.1741 45.8516 93.8715 45.1163 93.3334 44.5739C92.7953 44.0315 92.0656 43.7264 91.3045 43.7255H54.8963C54.1355 43.7263 53.406 44.0311 52.8679 44.5731C52.3298 45.1151 52.0271 45.85 52.026 46.6167V70.2002C52.0267 70.9671 52.3293 71.7024 52.8674 72.2448C53.4055 72.7872 54.1352 73.0923 54.8963 73.0932H75.6672C76.0418 73.0933 76.4011 73.2433 76.666 73.5102L84.2248 81.1274L84.3738 74.5166C84.3739 74.1391 84.5227 73.7771 84.7876 73.5102C85.0525 73.2433 85.4118 73.0933 85.7864 73.0932H91.3045C92.0656 73.0923 92.7953 72.7872 93.3334 72.2448Z" fill="#1BD9B6"/>
</svg>
