<svg width="84" height="84" viewBox="0 0 84 84" fill="none" xmlns="http://www.w3.org/2000/svg">
<path d="M2.8 65.7636V79.8C2.8 80.9139 3.2425 81.9822 4.03015 82.7698C4.8178 83.5575 5.88609 84 7 84H32.2C33.3139 84 34.3822 83.5575 35.1698 82.7698C35.9575 81.9822 36.4 80.9139 36.4 79.8V78.4H64.4C65.5139 78.4 66.5822 77.9575 67.3698 77.1698C68.1575 76.3822 68.6 75.3139 68.6 74.2V67.2H77C78.8558 67.1978 80.635 66.4596 81.9473 65.1473C83.2596 63.835 83.9978 62.0558 84 60.2V23.8C83.9978 21.9442 83.2596 20.165 81.9473 18.8527C80.635 17.5404 78.8558 16.8022 77 16.8H51.8C49.9442 16.8022 48.165 17.5404 46.8527 18.8527C45.5404 20.165 44.8022 21.9442 44.8 23.8V60.2C44.8022 62.0558 45.5404 63.835 46.8527 65.1473C48.165 66.4596 49.9442 67.1978 51.8 67.2H60.2V70H36.4V65.7636C37.2663 65.117 37.9703 64.2777 38.4563 63.3121C38.9422 62.3464 39.1969 61.281 39.2 60.2V23.8C39.1969 22.719 38.9422 21.6535 38.4563 20.6879C37.9703 19.7223 37.2663 18.883 36.4 18.2364V4.2C36.4 3.08609 35.9575 2.0178 35.1698 1.23015C34.3822 0.442499 33.3139 0 32.2 0H7C5.88609 0 4.8178 0.442499 4.03015 1.23015C3.2425 2.0178 2.8 3.08609 2.8 4.2V18.2364C1.93369 18.883 1.22971 19.7223 0.743746 20.6879C0.257778 21.6535 0.00314924 22.719 0 23.8V60.2C0.00314924 61.281 0.257778 62.3464 0.743746 63.3121C1.22971 64.2777 1.93369 65.117 2.8 65.7636ZM33.6 79.8C33.6 80.1713 33.4525 80.5274 33.1899 80.7899C32.9274 81.0525 32.5713 81.2 32.2 81.2H7C6.6287 81.2 6.2726 81.0525 6.01005 80.7899C5.7475 80.5274 5.6 80.1713 5.6 79.8V67.06C6.06078 67.1536 6.52982 67.2005 7 67.2H15.4V74.2C15.4 75.3139 15.8425 76.3822 16.6301 77.1698C17.4178 77.9575 18.4861 78.4 19.6 78.4H33.6V79.8ZM51.8 64.4C50.6861 64.4 49.6178 63.9575 48.8302 63.1698C48.0425 62.3822 47.6 61.3139 47.6 60.2V23.8C47.6 22.6861 48.0425 21.6178 48.8302 20.8302C49.6178 20.0425 50.6861 19.6 51.8 19.6H77C78.1139 19.6 79.1822 20.0425 79.9698 20.8302C80.7575 21.6178 81.2 22.6861 81.2 23.8V60.2C81.2 61.3139 80.7575 62.3822 79.9698 63.1698C79.1822 63.9575 78.1139 64.4 77 64.4H51.8ZM61.6 72.8C61.9713 72.8 62.3274 72.6525 62.59 72.3899C62.8525 72.1274 63 71.7713 63 71.4V67.2H65.8V74.2C65.8 74.5713 65.6525 74.9274 65.3899 75.1899C65.1274 75.4525 64.7713 75.6 64.4 75.6H19.6C19.2287 75.6 18.8726 75.4525 18.6101 75.1899C18.3475 74.9274 18.2 74.5713 18.2 74.2V67.2H21V71.4C21 71.7713 21.1475 72.1274 21.41 72.3899C21.6726 72.6525 22.0287 72.8 22.4 72.8H61.6ZM23.8 70V67.2H32.2C32.6702 67.2005 33.1392 67.1536 33.6 67.06V70H23.8ZM36.4 23.8V60.2C36.4 61.3139 35.9575 62.3822 35.1698 63.1698C34.3822 63.9575 33.3139 64.4 32.2 64.4H12.0848L18.6046 62.6612C20.0938 62.2621 21.41 61.3832 22.3492 60.1605C23.2884 58.9378 23.7983 57.4396 23.8 55.8978V28.1022C23.7983 26.5604 23.2884 25.0622 22.3492 23.8395C21.41 22.6168 20.0938 21.7379 18.6046 21.3388L12.0848 19.6H32.2C33.3139 19.6 34.3822 20.0425 35.1698 20.8302C35.9575 21.6178 36.4 22.6861 36.4 23.8ZM5.6 4.2C5.6 3.8287 5.7475 3.4726 6.01005 3.21005C6.2726 2.9475 6.6287 2.8 7 2.8H32.2C32.5713 2.8 32.9274 2.9475 33.1899 3.21005C33.4525 3.4726 33.6 3.8287 33.6 4.2V16.94C33.1392 16.8464 32.6702 16.7995 32.2 16.8H7C6.52982 16.7995 6.06078 16.8464 5.6 16.94V4.2ZM2.8 23.8C2.80206 23.1532 2.95408 22.5157 3.24413 21.9375C3.53417 21.3594 3.95433 20.8563 4.4716 20.468L17.8822 24.0436C18.7764 24.2821 19.5669 24.8092 20.1307 25.5432C20.6945 26.2771 21.0001 27.1767 21 28.1022V55.8978C21.0004 56.8235 20.6949 57.7235 20.1311 58.4577C19.5673 59.1919 18.7767 59.7193 17.8822 59.9578L4.4716 63.532C3.95433 63.1437 3.53417 62.6406 3.24413 62.0625C2.95408 61.4843 2.80206 60.8468 2.8 60.2V23.8Z" fill="#1BD9B6"/>
<path d="M54.6004 46.1999H74.2004C75.3143 46.1999 76.3826 45.7574 77.1702 44.9697C77.9579 44.1821 78.4004 43.1138 78.4004 41.9999V26.5999C78.4004 25.486 77.9579 24.4177 77.1702 23.6301C76.3826 22.8424 75.3143 22.3999 74.2004 22.3999H54.6004C53.4865 22.3999 52.4182 22.8424 51.6305 23.6301C50.8429 24.4177 50.4004 25.486 50.4004 26.5999V41.9999C50.4004 43.1138 50.8429 44.1821 51.6305 44.9697C52.4182 45.7574 53.4865 46.1999 54.6004 46.1999ZM53.2004 26.5999C53.2004 26.2286 53.3479 25.8725 53.6104 25.61C53.873 25.3474 54.2291 25.1999 54.6004 25.1999H74.2004C74.5717 25.1999 74.9278 25.3474 75.1903 25.61C75.4529 25.8725 75.6004 26.2286 75.6004 26.5999V41.9999C75.6004 42.3712 75.4529 42.7273 75.1903 42.9898C74.9278 43.2524 74.5717 43.3999 74.2004 43.3999H54.6004C54.2291 43.3999 53.873 43.2524 53.6104 42.9898C53.3479 42.7273 53.2004 42.3712 53.2004 41.9999V26.5999ZM64.4004 48.9999C63.2928 48.9999 62.2101 49.3283 61.2892 49.9437C60.3683 50.559 59.6505 51.4336 59.2267 52.4569C58.8028 53.4801 58.6919 54.6061 58.908 55.6924C59.1241 56.7787 59.6574 57.7765 60.4406 58.5597C61.2238 59.3429 62.2216 59.8762 63.3079 60.0923C64.3942 60.3084 65.5202 60.1975 66.5434 59.7736C67.5667 59.3498 68.4413 58.632 69.0566 57.7111C69.672 56.7902 70.0004 55.7075 70.0004 54.5999C70.0004 53.1147 69.4104 51.6903 68.3602 50.6401C67.31 49.5899 65.8856 48.9999 64.4004 48.9999ZM64.4004 57.3999C63.8466 57.3999 63.3052 57.2357 62.8448 56.928C62.3843 56.6203 62.0255 56.183 61.8135 55.6714C61.6016 55.1598 61.5462 54.5968 61.6542 54.0536C61.7622 53.5105 62.0289 53.0116 62.4205 52.62C62.8121 52.2284 63.311 51.9617 63.8541 51.8537C64.3973 51.7457 64.9603 51.8011 65.4719 52.013C65.9835 52.225 66.4208 52.5838 66.7285 53.0443C67.0362 53.5048 67.2004 54.0461 67.2004 54.5999C67.2004 55.3425 66.9054 56.0547 66.3803 56.5798C65.8552 57.1049 65.143 57.3999 64.4004 57.3999ZM54.6004 53.1999H51.8004C51.4291 53.1999 51.073 53.3474 50.8104 53.6099C50.5479 53.8725 50.4004 54.2286 50.4004 54.5999C50.4004 54.9712 50.5479 55.3273 50.8104 55.5899C51.073 55.8524 51.4291 55.9999 51.8004 55.9999H54.6004C54.9717 55.9999 55.3278 55.8524 55.5903 55.5899C55.8529 55.3273 56.0004 54.9712 56.0004 54.5999C56.0004 54.2286 55.8529 53.8725 55.5903 53.6099C55.3278 53.3474 54.9717 53.1999 54.6004 53.1999Z" fill="#1BD9B6"/>
<path d="M57.4 32.2H71.4C71.7713 32.2 72.1274 32.0525 72.39 31.79C72.6525 31.5274 72.8 31.1713 72.8 30.8C72.8 30.4287 72.6525 30.0726 72.39 29.8101C72.1274 29.5475 71.7713 29.4 71.4 29.4H57.4C57.0287 29.4 56.6726 29.5475 56.41 29.8101C56.1475 30.0726 56 30.4287 56 30.8C56 31.1713 56.1475 31.5274 56.41 31.79C56.6726 32.0525 57.0287 32.2 57.4 32.2ZM57.4 39.2H65.8C66.1713 39.2 66.5274 39.0525 66.7899 38.79C67.0525 38.5274 67.2 38.1713 67.2 37.8C67.2 37.4287 67.0525 37.0726 66.7899 36.8101C66.5274 36.5475 66.1713 36.4 65.8 36.4H57.4C57.0287 36.4 56.6726 36.5475 56.41 36.8101C56.1475 37.0726 56 37.4287 56 37.8C56 38.1713 56.1475 38.5274 56.41 38.79C56.6726 39.0525 57.0287 39.2 57.4 39.2ZM78.4 54.6C78.4 54.2287 78.2525 53.8726 77.99 53.6101C77.7274 53.3475 77.3713 53.2 77 53.2H74.2C73.8287 53.2 73.4726 53.3475 73.2101 53.6101C72.9475 53.8726 72.8 54.2287 72.8 54.6C72.8 54.9713 72.9475 55.3274 73.2101 55.59C73.4726 55.8525 73.8287 56 74.2 56H77C77.3713 56 77.7274 55.8525 77.99 55.59C78.2525 55.3274 78.4 54.9713 78.4 54.6ZM70.8932 36.4952C70.6351 36.5954 70.4124 36.77 70.2535 36.9967C70.0945 37.2235 70.0064 37.4923 70.0002 37.7691C69.994 38.0459 70.0701 38.3184 70.2188 38.552C70.3675 38.7856 70.5821 38.9699 70.8355 39.0815C71.0889 39.1932 71.3697 39.2271 71.6425 39.1791C71.9152 39.1312 72.1676 39.0034 72.3677 38.8119C72.5678 38.6205 72.7066 38.3741 72.7666 38.1037C72.8266 37.8334 72.8051 37.5513 72.7048 37.2932C72.5703 36.9472 72.304 36.6688 71.9642 36.5191C71.6245 36.3695 71.2393 36.3609 70.8932 36.4952Z" fill="#1BD9B6"/>
</svg>
