<svg width="84" height="84" viewBox="0 0 84 84" fill="none" xmlns="http://www.w3.org/2000/svg">
<path d="M25.8143 2.05052C28.5483 -0.683507 32.981 -0.683507 35.7151 2.05052C38.4491 4.78455 38.4491 9.21729 35.7151 11.9513L27.7939 19.8725L48.6189 40.6989C50.2829 39.3732 52.6762 39.5045 54.1853 41.0041L82.7705 69.5893C84.4101 71.2294 84.4101 73.888 82.7705 75.5281L75.5297 82.7703C73.8896 84.4099 71.231 84.4099 69.5909 82.7703L41.0043 54.1809C39.5052 52.6719 39.3746 50.2792 40.7005 48.6159L19.8727 27.7937L11.9515 35.7149C10.1829 37.4835 7.60507 38.1743 5.18911 37.5269C2.77315 36.8795 0.886065 34.9925 0.23871 32.5765C-0.408645 30.1605 0.282075 27.5827 2.05068 25.8141L25.8143 2.05052ZM28.7851 14.9221L22.8435 8.98192L8.98348 22.8419L14.9223 28.7849L28.7851 14.9221ZM33.7341 4.03012C32.094 2.39052 29.4354 2.39052 27.7953 4.03012L24.8231 7.00092L30.7647 12.9425L33.7411 9.97172C34.5284 9.18306 34.97 8.11385 34.9687 6.99947C34.9674 5.8851 34.5232 4.81692 33.7341 4.03012ZM42.9811 52.2055L71.5691 80.7907C72.122 81.3207 72.9944 81.3207 73.5473 80.7907L80.7909 73.5471C81.3365 73.0006 81.3365 72.1155 80.7909 71.5689L78.4011 69.1805L72.5589 75.0227C72.0095 75.5533 71.1364 75.5457 70.5963 75.0057C70.0563 74.4656 70.0487 73.5925 70.5793 73.0431L76.4215 67.2009L56.1649 46.9429L50.3213 52.7809C49.772 53.3115 48.8988 53.3039 48.3587 52.7639C47.8187 52.2238 47.8111 51.3507 48.3417 50.8013L54.1811 44.9633L52.2057 42.9809C51.659 42.4344 50.7728 42.4344 50.2261 42.9809L42.9811 50.2259C42.4345 50.7726 42.4345 51.6588 42.9811 52.2055ZM42.6423 46.6055L46.6057 42.6449L25.8143 21.8521L21.8523 25.8141L42.6423 46.6055ZM4.03168 33.7409C4.81936 34.5287 5.88775 34.9713 7.00178 34.9713C8.11581 34.9713 9.18421 34.5287 9.97188 33.7409L12.9427 30.7701L7.00108 24.8229L4.03028 27.7951C3.24094 28.5832 2.79751 29.6529 2.79778 30.7683C2.79804 31.8837 3.24198 32.9532 4.03168 33.7409Z" fill="#1BD9B6"/>
<path d="M14.9223 20.8609L20.8611 14.9221C21.2126 14.5582 21.7331 14.4122 22.2226 14.5404C22.7121 14.6685 23.0943 15.0507 23.2225 15.5402C23.3506 16.0297 23.2046 16.5502 22.8407 16.9017L16.9005 22.8419C16.3508 23.3721 15.4776 23.3639 14.9379 22.8235C14.3983 22.2831 14.3913 21.4099 14.9223 20.8609Z" fill="#1BD9B6"/>
</svg>
