<svg width="70" height="84" viewBox="0 0 70 84" fill="none" xmlns="http://www.w3.org/2000/svg">
<path fill-rule="evenodd" clip-rule="evenodd" d="M19.9133 27.8804C21.5198 25.5978 22.4053 22.9785 22.2425 19.8667C24.3819 18.4373 29.9737 13.7714 25.957 6.14232C21.3003 -2.70318 11.2242 -1.01205 5.648 5.01961C0.794519 10.2698 -0.561217 16.5552 0.196323 25.4343C0.956475 34.3531 4.64665 41.7294 8.76785 44.1772C16.2614 48.6292 23.0766 43.0386 23.5555 37.0494C23.8829 32.9511 21.3125 29.4574 19.9133 27.8804ZM17.1835 27.1298C16.7272 27.6823 16.7908 28.5036 17.3254 28.9783C17.3254 28.9783 21.3021 32.4437 20.9521 36.8346C20.6029 41.2069 15.5578 45.1382 10.087 41.8885C8.69906 41.0637 7.41385 39.5441 6.30018 37.5639C4.51256 34.3814 3.20994 30.0312 2.79808 25.2062C2.11804 17.2323 3.1934 11.549 7.5523 6.83539C11.9695 2.05726 19.9646 0.386468 23.6531 7.39232C27.3076 14.3336 20.279 17.9793 20.279 17.9793C19.7957 18.2304 19.5153 18.7599 19.5763 19.308C19.9246 22.4516 18.9555 24.979 17.1835 27.1298Z" fill="#1BD9B6"/>
<path fill-rule="evenodd" clip-rule="evenodd" d="M22.1779 19.0649C22.1779 19.0649 21.928 15.7348 20.8979 13.5831C20.5827 12.9245 19.8008 12.6505 19.153 12.9696C18.5043 13.2896 18.2335 14.0835 18.5487 14.7421C19.3942 16.511 19.5727 19.2541 19.5727 19.2541C19.624 19.9843 20.2492 20.5342 20.9685 20.482C21.6877 20.4298 22.2293 19.7951 22.1779 19.0649ZM17.1076 27.2324C17.1076 27.2324 15.8973 28.9889 13.2877 30.5032C12.6616 30.8657 12.444 31.6763 12.8018 32.3119C13.1597 32.9475 13.9582 33.1686 14.5834 32.8052C17.8051 30.9373 19.2644 28.729 19.2644 28.729C19.6711 28.1243 19.5178 27.2987 18.9231 26.8858C18.3275 26.473 17.5143 26.6286 17.1076 27.2324ZM50.0867 27.8804C48.6875 29.4574 46.117 32.9511 46.4444 37.0494C46.9234 43.0386 53.7386 48.6292 61.2321 44.1772C65.3533 41.7294 69.0435 34.3531 69.8037 25.4343C70.5612 16.5552 69.2055 10.2698 64.352 5.01961C58.7758 -1.01205 48.6996 -2.70318 44.043 6.14232C40.0263 13.7714 45.6181 18.4373 47.7575 19.8676C47.5947 22.9785 48.4802 25.5978 50.0867 27.8804ZM52.6746 28.9783C53.2092 28.5036 53.2728 27.6823 52.8165 27.1298C51.0445 24.979 50.0754 22.4516 50.4237 19.308C50.4847 18.7599 50.2043 18.2304 49.721 17.9793C49.721 17.9793 42.6924 14.3336 46.3469 7.39232C50.0354 0.386468 58.0305 2.05726 62.4477 6.83539C66.8066 11.549 67.882 17.2323 67.2019 25.2062C66.7901 30.0312 65.4874 34.3814 63.6998 37.5639C62.5861 39.5441 61.3009 41.0637 59.913 41.8885C54.4422 45.1382 49.3971 41.2069 49.0479 36.8346C48.6979 32.4437 52.6746 28.9783 52.6746 28.9783Z" fill="#1BD9B6"/>
<path fill-rule="evenodd" clip-rule="evenodd" d="M50.4291 19.2541C50.4291 19.2541 50.6076 16.511 51.4531 14.742C51.7683 14.0834 51.4975 13.2896 50.8488 12.9696C50.201 12.6504 49.4191 12.9245 49.1038 13.5831C48.0738 15.7348 47.8239 19.0649 47.8239 19.0649C47.7725 19.7951 48.3141 20.4298 49.0333 20.482C49.7525 20.5341 50.3777 19.9843 50.4291 19.2541ZM50.7374 28.729C50.7374 28.729 52.1967 30.9373 55.4184 32.8052C56.0436 33.1685 56.8421 32.9475 57.2 32.3119C57.5578 31.6763 57.3401 30.8657 56.7141 30.5032C54.1045 28.9889 52.8942 27.2323 52.8942 27.2323C52.4875 26.6286 51.6743 26.473 51.0787 26.8858C50.484 27.2986 50.3307 28.1243 50.7374 28.729Z" fill="#1BD9B6"/>
<path fill-rule="evenodd" clip-rule="evenodd" d="M48.7643 22.5919C48.7643 22.5919 42.9678 24.6773 39.3516 30.6091C36.9701 34.5147 35.4969 40.099 37.348 47.8793C38.7256 53.6722 41.1244 57.5345 43.6156 61.3164C47.1325 66.6558 50.8392 71.8318 51.6708 82.775C51.7265 83.5052 52.3552 84.0516 53.0735 83.9959C53.7928 83.9393 54.3309 83.301 54.2752 82.5717C53.5385 72.8829 50.6964 67.4453 47.6071 62.6194C44.6892 58.0614 41.5136 54.0939 39.8871 47.256C38.6568 42.0872 39.0373 38.0092 40.2067 34.8329C42.8868 27.5557 49.6428 25.0893 49.6428 25.0893C50.322 24.8426 50.6755 24.0832 50.4335 23.3946C50.1905 22.7051 49.4426 22.3453 48.7643 22.5919ZM20.259 25.0893C20.259 25.0893 27.015 27.5557 29.6952 34.8329C30.8645 38.0092 31.2442 42.0872 30.0147 47.256C28.3882 54.0939 25.2126 58.0614 22.2948 62.6194C19.2054 67.4453 16.3633 72.8829 15.6267 82.5717C15.571 83.301 16.1091 83.9393 16.8283 83.9959C17.5466 84.0516 18.1753 83.5052 18.231 82.775C19.0626 71.8318 22.7685 66.6558 26.2862 61.3164C28.7774 57.5345 31.1754 53.6722 32.5538 47.8793C34.405 40.099 32.9317 34.5147 30.5502 30.6091C26.934 24.6773 21.1376 22.5919 21.1376 22.5919C20.4593 22.3453 19.7113 22.7051 19.4684 23.3946C19.2254 24.0832 19.5798 24.8426 20.259 25.0893Z" fill="#1BD9B6"/>
</svg>
