<svg width="81" height="84" viewBox="0 0 81 84" fill="none" xmlns="http://www.w3.org/2000/svg">
<path d="M9.08428 8.61685V6.21806C9.08428 5.2894 9.82746 4.53804 10.7457 4.53804H32.1492C37.2975 1.57539 43.2535 0 49.4165 0C66.8324 0 81 12.541 81 27.9562C81 32.8093 77.742 37.9624 74.5929 42.9467C71.7777 47.3994 68.8686 52.003 69.344 55.1202C70.4554 62.4062 71.7664 69.2097 71.7794 69.2787C71.9222 70.0137 71.5652 70.7552 70.9049 71.0966L46.3126 83.8163C46.0757 83.9377 45.8178 84 45.5565 84C45.3667 84 45.1753 83.9672 44.9919 83.8999C44.5587 83.7424 44.2115 83.4093 44.0297 82.9812L43.284 81.222C43.0796 81.3128 42.856 81.3669 42.6182 81.3669H10.7457C9.82746 81.3669 9.08428 80.6154 9.08428 79.6868V72.0693C9.08428 71.1408 9.82746 70.3895 10.7457 70.3895H33.4251V65.5873H24.1071C23.312 65.5873 22.629 65.018 22.4765 64.2305L19.6143 49.4583H16.1049C15.5386 49.4583 15.013 49.1679 14.7063 48.6856C14.4012 48.2048 14.359 47.5994 14.5943 47.0795L20.0654 34.9831L18.636 30.665C17.974 28.6847 17.7663 26.7192 18.0146 24.8342C18.4234 21.5514 19.4674 18.4305 21.1105 15.5138H10.7457C9.82746 15.5138 9.08428 14.7624 9.08428 13.8338V13.0386L3.3228 18.0207V30.5747C3.3228 31.5033 2.57974 32.2548 1.66134 32.2548C0.743062 32.2548 1.48185e-06 31.5033 1.48185e-06 30.5747V17.2462C1.48185e-06 16.7558 0.212548 16.2882 0.580855 15.9699L9.08428 8.61685ZM46.3823 80.005L68.2829 68.6782C67.8513 66.365 66.8989 61.1346 66.0601 55.632C65.3932 51.263 68.502 46.3445 71.7923 41.1371C74.6853 36.5597 77.6772 31.8265 77.6772 27.9562C77.6772 14.3933 64.999 3.36003 49.4165 3.36003C46.4515 3.36003 43.5442 3.76516 40.7709 4.53804H42.6182C43.5366 4.53804 44.2796 5.2894 44.2796 6.21806V75.045L46.3823 80.005ZM21.3098 25.2657C21.1282 26.6488 21.2872 28.1023 21.7852 29.5936L23.424 34.545C23.557 34.9486 23.5344 35.3899 23.359 35.7771L18.6912 46.0983H20.9821C21.7771 46.0983 22.4602 46.6676 22.6127 47.4551L25.4749 62.2273H33.4251V15.5138H25.0604C23.0271 18.5161 21.7427 21.7828 21.3098 25.2657ZM12.4072 12.1538H35.0865C36.0049 12.1538 36.748 12.9052 36.748 13.8338V72.0693C36.748 72.998 36.0049 73.7494 35.0865 73.7494H12.4072V78.0068H40.9567V75.3985C40.9567 75.3978 40.9567 75.3969 40.9567 75.3961V7.89807H12.4072V12.1538V12.1538Z" fill="#1BD9B6"/>
</svg>
