<svg width="84" height="84" viewBox="0 0 84 84" fill="none" xmlns="http://www.w3.org/2000/svg">
<path fill-rule="evenodd" clip-rule="evenodd" d="M40.183 43.8171H46.3829C47.1442 43.8179 47.874 44.1207 48.4123 44.659C48.9506 45.1973 49.2534 45.9271 49.2542 46.6883V53.5327C49.2534 54.294 48.9506 55.0238 48.4123 55.562C47.874 56.1003 47.1441 56.4031 46.3829 56.4039H40.1829V62.6036C40.182 63.3649 39.8792 64.0947 39.3409 64.6329C38.8026 65.1712 38.0728 65.474 37.3115 65.4749H30.467C29.7057 65.474 28.9759 65.1712 28.4376 64.6329C27.8993 64.0947 27.5965 63.3649 27.5956 62.6036V56.4039H21.3948C20.6336 56.4031 19.9038 56.1003 19.3655 55.562C18.8272 55.0238 18.5244 54.294 18.5235 53.5327V46.6883C18.5243 45.9271 18.8271 45.1973 19.3654 44.659C19.9037 44.1207 20.6336 43.8179 21.3948 43.8171H27.5956V37.6173C27.5965 36.8561 27.8993 36.1263 28.4376 35.588C28.9759 35.0497 29.7057 34.747 30.467 34.7461H37.3115C38.0728 34.7469 38.8027 35.0497 39.341 35.588C39.8793 36.1263 40.1821 36.8561 40.183 37.6173V43.8171ZM46.5497 53.6018C46.5587 53.5799 46.5634 53.5564 46.5633 53.5327L46.5633 46.6883C46.5633 46.6646 46.5587 46.6411 46.5496 46.6192C46.5406 46.5973 46.5273 46.5774 46.5105 46.5606C46.4938 46.5439 46.4739 46.5306 46.4519 46.5215C46.43 46.5125 46.4066 46.5078 46.3829 46.5079H38.8374C38.4806 46.5078 38.1385 46.366 37.8862 46.1137C37.6339 45.8614 37.4921 45.5193 37.492 45.1625V37.6173C37.492 37.5936 37.4874 37.5702 37.4783 37.5482C37.4693 37.5263 37.456 37.5064 37.4392 37.4897C37.4224 37.4729 37.4025 37.4596 37.3806 37.4506C37.3587 37.4415 37.3352 37.4369 37.3115 37.4369H30.467C30.4433 37.4369 30.4198 37.4415 30.3979 37.4506C30.376 37.4596 30.3561 37.4729 30.3393 37.4897C30.3226 37.5064 30.3093 37.5263 30.3002 37.5482C30.2912 37.5702 30.2865 37.5936 30.2866 37.6173V45.1625C30.2865 45.5193 30.1447 45.8614 29.8924 46.1137C29.6401 46.366 29.2979 46.5078 28.9411 46.5079H21.3948C21.3711 46.5078 21.3476 46.5125 21.3257 46.5215C21.3038 46.5306 21.2839 46.5439 21.2672 46.5606C21.2504 46.5774 21.2371 46.5973 21.2281 46.6192C21.219 46.6411 21.2144 46.6646 21.2144 46.6883V53.5327C21.2144 53.5564 21.219 53.5799 21.2281 53.6018C21.2371 53.6237 21.2504 53.6436 21.2672 53.6603C21.2839 53.6771 21.3038 53.6904 21.3257 53.6994C21.3477 53.7085 21.3711 53.7132 21.3948 53.7131H28.9411C29.2979 53.7132 29.6401 53.855 29.8924 54.1073C30.1447 54.3596 30.2864 54.7017 30.2865 55.0585V62.6036C30.2865 62.6273 30.2911 62.6508 30.3002 62.6727C30.3093 62.6946 30.3225 62.7145 30.3393 62.7313C30.3561 62.748 30.376 62.7613 30.3979 62.7704C30.4198 62.7794 30.4433 62.7841 30.467 62.7841H37.3116C37.3353 62.7841 37.3588 62.7794 37.3807 62.7704C37.4026 62.7613 37.4225 62.748 37.4393 62.7313C37.456 62.7145 37.4693 62.6946 37.4784 62.6727C37.4874 62.6508 37.4921 62.6273 37.4921 62.6036V55.0585C37.4921 54.7017 37.6339 54.3596 37.8862 54.1073C38.1385 53.855 38.4807 53.7132 38.8375 53.7131H46.3829C46.4066 53.7132 46.4301 53.7085 46.452 53.6994C46.4739 53.6904 46.4938 53.6771 46.5106 53.6603C46.5273 53.6436 46.5406 53.6237 46.5497 53.6018Z" fill="#1BD9B6"/>
<path fill-rule="evenodd" clip-rule="evenodd" d="M33.8897 25.1758C28.958 25.1758 24.137 26.6381 20.0363 29.378C15.9357 32.1178 12.7397 36.012 10.8523 40.5681C8.96501 45.1243 8.47115 50.1377 9.43323 54.9746C10.3953 59.8114 12.7701 64.2543 16.2573 67.7415C19.7445 71.2287 24.1875 73.6036 29.0245 74.5658C33.8614 75.528 38.8751 75.0343 43.4315 73.1472C47.9879 71.2601 51.8824 68.0643 54.6224 63.9639C57.3625 59.8636 58.8251 55.0428 58.8252 50.1113C58.8178 43.5004 56.1883 37.1624 51.5136 32.4877C46.839 27.813 40.5008 25.1834 33.8897 25.1758ZM33.8897 72.3542C29.4901 72.3542 25.1893 71.0496 21.5312 68.6054C17.873 66.1611 15.0219 62.6871 13.3382 58.6225C11.6546 54.5579 11.2142 50.0854 12.0726 45.7705C12.9309 41.4556 15.0496 37.4921 18.1607 34.3813C21.2717 31.2705 25.2354 29.1521 29.5505 28.2939C33.8656 27.4357 38.3383 27.8763 42.403 29.56C46.4676 31.2438 49.9417 34.0949 52.3859 37.753C54.83 41.4111 56.1345 45.7118 56.1343 50.1113C56.1273 56.0084 53.7814 61.6621 49.6112 65.8319C45.4411 70.0018 39.7871 72.3474 33.8897 72.3542Z" fill="#1BD9B6"/>
<path fill-rule="evenodd" clip-rule="evenodd" d="M81.0849 0H58.5713C57.7984 0.000748018 57.0574 0.308109 56.5108 0.854622C55.9643 1.40113 55.6569 2.14215 55.6562 2.91504V9.67182C55.6569 10.4447 55.9643 11.1857 56.5108 11.7322C57.0574 12.2788 57.7984 12.5861 58.5713 12.5869H62.5131L52.9767 22.1229C39.6824 13.0529 21.3799 14.6702 9.91426 26.1372C-3.30465 39.3547 -3.30465 60.8654 9.91426 74.0847C16.2774 80.4341 24.8996 84 33.8889 84C42.8782 84 51.5004 80.4341 57.8635 74.0847C69.328 62.6207 70.949 44.3159 61.8779 31.0231L71.4135 21.4879V25.4295C71.4141 26.2023 71.7213 26.9433 72.2677 27.4898C72.814 28.0364 73.555 28.3438 74.3278 28.3445H81.0849C81.8578 28.3438 82.5988 28.0364 83.1453 27.4899C83.6919 26.9434 83.9993 26.2024 84 25.4295V2.91504C83.9993 2.14216 83.6919 1.40115 83.1454 0.854637C82.5988 0.308125 81.8578 0.000759889 81.0849 0ZM81.3091 25.4295C81.3091 25.489 81.2855 25.546 81.2435 25.5881C81.2014 25.6301 81.1444 25.6537 81.0849 25.6537H74.3279C74.2984 25.6537 74.2693 25.6479 74.2422 25.6366C74.215 25.6254 74.1904 25.6088 74.1696 25.588C74.1488 25.5672 74.1324 25.5424 74.1212 25.5152C74.1101 25.488 74.1044 25.4589 74.1045 25.4295V18.24C74.1047 17.9738 74.026 17.7135 73.8782 17.4921C73.7304 17.2707 73.5202 17.0982 73.2743 16.9963C73.0283 16.8944 72.7577 16.8679 72.4966 16.9199C72.2355 16.972 71.9958 17.1004 71.8078 17.2888L59.1959 29.9002C59.149 29.9587 59.1075 30.0213 59.0717 30.0871C59.0358 30.1341 59.003 30.1834 58.9736 30.2348C58.8398 30.4813 58.7923 30.7657 58.8389 31.0423C58.8465 31.1104 58.8596 31.1778 58.8781 31.2438C58.9091 31.3368 58.9504 31.4259 59.0013 31.5096C59.0207 31.5596 59.0433 31.6083 59.0689 31.6554C68.1051 43.9514 66.7684 61.3733 55.961 72.1821C43.7906 84.352 23.9873 84.352 11.8168 72.1821C-0.352658 60.0104 -0.352658 40.2095 11.8168 28.0396C22.6278 17.2273 40.0538 15.8942 52.3521 24.9371C52.4009 24.9637 52.4514 24.987 52.5033 25.0068C52.6497 25.0981 52.8158 25.1529 52.9877 25.1666C53.0759 25.1797 53.1652 25.1833 53.2542 25.1776C53.3356 25.1696 53.416 25.1539 53.4944 25.1307C53.579 25.1103 53.6613 25.0811 53.7398 25.0436C53.8182 25.0023 53.8922 24.9531 53.9605 24.8969C54.0092 24.8691 54.056 24.8381 54.1005 24.804L66.7124 12.1926C66.9006 12.0045 67.0287 11.7648 67.0806 11.5038C67.1326 11.2428 67.1059 10.9723 67.0041 10.7265C66.9023 10.4806 66.7298 10.2705 66.5086 10.1227C66.2873 9.97487 66.0272 9.89597 65.7611 9.89599H58.5713C58.5419 9.896 58.5127 9.89022 58.4855 9.87895C58.4583 9.86769 58.4335 9.85118 58.4127 9.83035C58.3919 9.80952 58.3754 9.7848 58.3641 9.75759C58.3529 9.73037 58.3471 9.7012 58.3471 9.67175V2.91504C58.3471 2.88558 58.3529 2.85642 58.3641 2.82921C58.3754 2.80199 58.3919 2.77726 58.4127 2.75644C58.4335 2.73561 58.4583 2.7191 58.4855 2.70784C58.5127 2.69657 58.5419 2.69078 58.5713 2.6908H81.0849C81.1444 2.6908 81.2014 2.71443 81.2435 2.75648C81.2855 2.79853 81.3091 2.85557 81.3091 2.91504V25.4295Z" fill="#1BD9B6"/>
</svg>
