<svg width="59" height="84" viewBox="0 0 59 84" fill="none" xmlns="http://www.w3.org/2000/svg">
<path fill-rule="evenodd" clip-rule="evenodd" d="M34.9762 23.8107H40.3706C41.0332 23.8116 41.6684 24.0729 42.1369 24.5373C42.6054 25.0018 42.8689 25.6314 42.8696 26.2881V32.1888C42.8689 32.8455 42.6054 33.4751 42.1369 33.9396C41.6684 34.404 41.0332 34.6654 40.3706 34.6663H34.9762V40.0126C34.9754 40.6691 34.712 41.2984 34.2436 41.7626C33.7753 42.2268 33.1403 42.4879 32.4779 42.4886H26.5226C25.8602 42.4879 25.2252 42.2268 24.7569 41.7626C24.2885 41.2984 24.025 40.6691 24.0243 40.0126V34.6663H18.6299C17.9673 34.6654 17.3321 34.404 16.8636 33.9396C16.3951 33.4752 16.1316 32.8456 16.1309 32.1889V26.2882C16.1316 25.6314 16.3951 25.0018 16.8636 24.5374C17.3321 24.0729 17.9673 23.8116 18.6299 23.8107H24.0243V18.4643C24.025 17.8078 24.2885 17.1785 24.7569 16.7143C25.2252 16.2501 25.8602 15.989 26.5226 15.9883H32.4779C33.1403 15.989 33.7753 16.2501 34.2436 16.7143C34.712 17.1785 34.9754 17.8078 34.9762 18.4643V23.8107ZM40.4821 32.2997C40.5117 32.2702 40.5283 32.2304 40.5283 32.1889V26.2882C40.5283 26.2467 40.5117 26.2068 40.4821 26.1774C40.4526 26.148 40.4125 26.1313 40.3706 26.1311H33.8055C33.4951 26.131 33.1974 26.0087 32.9779 25.7912C32.7583 25.5736 32.635 25.2785 32.6349 24.9709V18.4643C32.6349 18.4438 32.6309 18.4236 32.623 18.4047C32.6151 18.3858 32.6036 18.3687 32.589 18.3542C32.5744 18.3397 32.5571 18.3283 32.538 18.3205C32.519 18.3127 32.4985 18.3087 32.4779 18.3087H26.5226C26.502 18.3087 26.4815 18.3127 26.4625 18.3205C26.4434 18.3283 26.4261 18.3397 26.4115 18.3542C26.3969 18.3687 26.3853 18.3858 26.3775 18.4047C26.3696 18.4236 26.3655 18.4438 26.3656 18.4643V24.9708C26.3655 25.2785 26.2421 25.5735 26.0226 25.7911C25.8031 26.0087 25.5054 26.1309 25.1949 26.131H18.6299C18.588 26.1313 18.5479 26.1479 18.5184 26.1773C18.4888 26.2068 18.4722 26.2466 18.4721 26.2881V32.1888C18.4722 32.2303 18.4888 32.2701 18.5184 32.2996C18.5479 32.329 18.588 32.3456 18.6299 32.3459H25.1949C25.5054 32.346 25.8031 32.4682 26.0226 32.6858C26.2421 32.9034 26.3655 33.1984 26.3656 33.5061V40.0127C26.3655 40.0332 26.3696 40.0534 26.3775 40.0723C26.3854 40.0912 26.3969 40.1084 26.4115 40.1228C26.4261 40.1373 26.4434 40.1487 26.4625 40.1565C26.4815 40.1644 26.502 40.1684 26.5226 40.1683H32.4779C32.4985 40.1684 32.519 40.1644 32.538 40.1565C32.5571 40.1487 32.5744 40.1373 32.589 40.1228C32.6036 40.1084 32.6151 40.0912 32.623 40.0723C32.6309 40.0534 32.6349 40.0332 32.6349 40.0127V33.5062C32.635 33.1985 32.7583 32.9035 32.9779 32.6859C33.1974 32.4683 33.4951 32.3461 33.8055 32.346H40.3706C40.4125 32.3458 40.4526 32.3291 40.4821 32.2997Z" fill="#1BD9B6"/>
<path fill-rule="evenodd" clip-rule="evenodd" d="M51.1961 29.2379C51.196 24.9852 49.9234 20.828 47.5394 17.2921C45.1553 13.7561 41.7669 11.0002 37.8025 9.37289C33.8381 7.74554 29.4758 7.31983 25.2673 8.14959C21.0588 8.97935 17.1931 11.0273 14.159 14.0345C11.1248 17.0417 9.05859 20.873 8.22152 25.044C7.38445 29.215 7.81414 33.5384 9.45626 37.4674C11.0984 41.3964 13.8792 44.7545 17.447 47.1172C21.0148 49.4799 25.2094 50.741 29.5004 50.741C35.2526 50.7345 40.7674 48.4669 44.8347 44.4357C48.9021 40.4045 51.1899 34.9388 51.1961 29.2379ZM29.5004 48.4205C25.6723 48.4207 21.9301 47.2958 18.747 45.188C15.564 43.0803 13.0831 40.0845 11.618 36.5793C10.1529 33.0741 9.76953 29.2171 10.5163 25.496C11.263 21.7749 13.1064 18.3568 15.8132 15.674C18.52 12.9912 21.9688 11.1641 25.7234 10.4239C29.4779 9.68366 33.3697 10.0635 36.9064 11.5154C40.4431 12.9672 43.4661 15.4259 45.5929 18.5805C47.7197 21.7351 48.8549 25.4439 48.8549 29.2379C48.8493 34.3236 46.8084 39.1995 43.1799 42.7957C39.5515 46.3919 34.6319 48.4148 29.5004 48.4205Z" fill="#1BD9B6"/>
<path fill-rule="evenodd" clip-rule="evenodd" d="M59 29.2378C59 13.1157 45.7663 0 29.5 0C13.2337 0 0 13.1157 0 29.2378C0 43.2206 10.2633 55.3677 24.0241 57.9419V63.7992H15.4134C14.7409 63.7998 14.0962 64.0648 13.6207 64.5361C13.1451 65.0074 12.8777 65.6464 12.8771 66.3129V72.1396C12.8777 72.8061 13.1451 73.4452 13.6207 73.9164C14.0962 74.3877 14.7409 74.6528 15.4134 74.6534H24.0241V81.4862C24.0247 82.1527 24.2921 82.7917 24.7677 83.263C25.2432 83.7343 25.8879 83.9994 26.5604 84H32.4396C33.1121 83.9994 33.7568 83.7343 34.2323 83.263C34.7079 82.7917 34.9753 82.1527 34.9759 81.4862V74.6534H43.5866C44.259 74.6528 44.9038 74.3877 45.3793 73.9164C45.8549 73.4452 46.1223 72.8061 46.1229 72.1396V66.3129C46.1223 65.6464 45.8549 65.0074 45.3793 64.5361C44.9038 64.0648 44.259 63.7998 43.5866 63.7992H34.9759V57.9415C48.7366 55.3688 59 43.2221 59 29.2378ZM43.5866 66.1196C43.6122 66.1196 43.6376 66.1245 43.6612 66.1343C43.6849 66.144 43.7064 66.1582 43.7246 66.1762C43.7427 66.1941 43.757 66.2154 43.7668 66.2389C43.7766 66.2624 43.7817 66.2875 43.7817 66.3129V72.1396C43.7817 72.165 43.7766 72.1902 43.7668 72.2137C43.757 72.2371 43.7427 72.2584 43.7246 72.2764C43.7064 72.2944 43.6849 72.3086 43.6612 72.3183C43.6376 72.328 43.6122 72.333 43.5866 72.333H33.8053C33.4949 72.3331 33.1971 72.4553 32.9776 72.6729C32.7581 72.8905 32.6347 73.1855 32.6347 73.4932V81.4862C32.6347 81.5116 32.6296 81.5368 32.6198 81.5602C32.61 81.5837 32.5957 81.605 32.5776 81.623C32.5594 81.6409 32.5379 81.6552 32.5142 81.6649C32.4906 81.6746 32.4652 81.6796 32.4396 81.6796H26.5604C26.5348 81.6796 26.5094 81.6746 26.4858 81.6649C26.4621 81.6552 26.4406 81.6409 26.4224 81.623C26.4043 81.605 26.39 81.5837 26.3802 81.5602C26.3704 81.5368 26.3653 81.5116 26.3653 81.4862V73.4932C26.3653 73.1855 26.2419 72.8905 26.0224 72.6729C25.8029 72.4553 25.5051 72.3331 25.1947 72.333H15.4134C15.3878 72.333 15.3624 72.328 15.3388 72.3183C15.3151 72.3086 15.2936 72.2944 15.2754 72.2764C15.2573 72.2584 15.243 72.2371 15.2332 72.2137C15.2234 72.1902 15.2183 72.165 15.2183 72.1396V66.3129C15.2183 66.2875 15.2234 66.2624 15.2332 66.2389C15.243 66.2154 15.2573 66.1941 15.2754 66.1762C15.2936 66.1582 15.3151 66.144 15.3388 66.1343C15.3624 66.1245 15.3878 66.1196 15.4134 66.1196H25.1947C25.5051 66.1195 25.8029 65.9972 26.0224 65.7797C26.2419 65.5621 26.3653 65.267 26.3653 64.9594V56.992C26.3597 56.9539 26.3519 56.916 26.3422 56.8787C26.335 56.7877 26.3167 56.6979 26.2877 56.6113C26.2661 56.5538 26.2396 56.4982 26.2086 56.4451C26.1695 56.3712 26.1221 56.3018 26.0675 56.2382C25.9214 56.0678 25.7248 55.9474 25.5056 55.8942C25.4632 55.8758 25.4197 55.86 25.3754 55.847C12.2437 53.8634 2.34128 42.4245 2.34128 29.2378C2.34128 14.3953 14.5248 2.32041 29.5 2.32041C44.4752 2.32041 56.6587 14.3953 56.6587 29.2378C56.6587 42.423 46.7578 53.8619 33.6293 55.8454C33.5837 55.8588 33.539 55.8749 33.4954 55.8938C33.4186 55.9129 33.344 55.94 33.2729 55.9746C33.2086 56.0089 33.148 56.0493 33.0918 56.0954C32.9711 56.1818 32.8726 56.2952 32.8043 56.4263C32.7235 56.554 32.6753 56.6993 32.6637 56.8496C32.6508 56.8964 32.6411 56.944 32.6347 56.992V64.9594C32.6347 65.267 32.7581 65.5621 32.9776 65.7797C33.1971 65.9972 33.4949 66.1195 33.8053 66.1196H43.5866Z" fill="#1BD9B6"/>
</svg>
