<svg width="95" height="84" viewBox="0 0 95 84" fill="none" xmlns="http://www.w3.org/2000/svg">
<path d="M26.9042 83.9999C26.5693 83.9979 26.2449 83.8824 25.9837 83.6721L0.508626 62.5004C0.222215 62.2496 0.0425476 61.8982 0.00664255 61.5184C-0.0292625 61.1387 0.0813294 60.7595 0.315633 60.4592L5.34831 54.3803C5.59918 54.0844 5.95533 53.8985 6.34083 53.8623C6.72632 53.8261 7.11065 53.9425 7.41185 54.1867L32.8424 75.3583C33.1247 75.6085 33.3016 75.957 33.3375 76.3333C33.3733 76.7095 33.2653 77.0853 33.0354 77.3846L28.0028 83.4784C27.8845 83.6241 27.738 83.7441 27.5721 83.8312C27.4063 83.9183 27.2244 83.9706 27.0378 83.9849L26.9042 83.9999ZM3.46291 61.1893L26.7112 80.5135L29.8881 76.6546L6.63988 57.2857L3.46291 61.1893ZM40.384 64.2287C40.0492 64.2267 39.7248 64.1112 39.4636 63.9009L17.3584 45.5154C17.2112 45.3975 17.0892 45.2509 16.9999 45.0845C16.9106 44.918 16.8558 44.7352 16.8388 44.5469C16.8082 44.1653 16.9252 43.7865 17.1654 43.4891L21.0847 38.7362C21.3319 38.4419 21.683 38.255 22.0645 38.2148C22.4448 38.1841 22.8222 38.3014 23.1185 38.5425L45.2237 56.9132C45.5101 57.164 45.6898 57.5154 45.7257 57.8952C45.7616 58.2749 45.651 58.654 45.4167 58.9544L41.5568 63.7072C41.4386 63.8529 41.2921 63.9729 41.1262 64.06C40.9603 64.1471 40.7785 64.1994 40.5919 64.2138L40.384 64.2287ZM20.2979 44.2191L40.191 60.7423L42.2694 58.2243L22.3911 41.6863L20.2979 44.2191Z" fill="#1BD9B6"/>
<path d="M22.6888 70.2335C22.359 70.2282 22.0404 70.1128 21.7832 69.9057C21.4968 69.6549 21.3171 69.3034 21.2812 68.9237C21.2453 68.5439 21.3559 68.1648 21.5902 67.8645L31.7149 55.5727C31.8141 55.371 31.9574 55.1945 32.1341 55.0563C32.3109 54.9182 32.5165 54.822 32.7356 54.7749C32.9547 54.7278 33.1815 54.7311 33.3992 54.7846C33.6168 54.838 33.8195 54.9402 33.9922 55.0835C34.1649 55.2267 34.303 55.4074 34.3963 55.6118C34.4895 55.8163 34.5354 56.0393 34.5305 56.2641C34.5257 56.4889 34.4702 56.7097 34.3682 56.9099C34.2663 57.1101 34.1205 57.2846 33.9418 57.4202L23.7428 69.712C23.6117 69.8663 23.4507 69.9922 23.2694 70.0818C23.0882 70.1715 22.8906 70.2231 22.6888 70.2335ZM15.6816 64.4079C15.4148 64.3928 15.1569 64.3057 14.9353 64.1557C14.7137 64.0058 14.5365 63.7986 14.4225 63.5559C14.3084 63.3133 14.2618 63.0443 14.2874 62.7773C14.3131 62.5103 14.4101 62.2552 14.5682 62.0389L24.7078 49.762C24.8052 49.5573 24.9479 49.3775 25.125 49.2366C25.3021 49.0956 25.509 48.997 25.7298 48.9485C25.9507 48.8999 26.1796 48.9027 26.3993 48.9564C26.6189 49.0102 26.8234 49.1136 26.9972 49.2587C27.1709 49.4038 27.3094 49.5869 27.4019 49.7939C27.4945 50.0008 27.5387 50.2263 27.5313 50.4531C27.5238 50.6798 27.4648 50.9019 27.3589 51.1023C27.2529 51.3027 27.1027 51.4762 26.9198 51.6095L16.7951 63.8864C16.6573 64.0481 16.4867 64.1782 16.2946 64.2682C16.1026 64.3581 15.8936 64.4058 15.6816 64.4079ZM41.1271 56.8242C40.8678 56.7978 40.62 56.7033 40.4086 56.5503C40.1972 56.3973 40.0296 56.1912 39.9228 55.9526C39.816 55.714 39.7736 55.4514 39.8 55.1912C39.8264 54.9309 39.9205 54.6823 40.073 54.4701L63.5291 26.0426C63.6476 25.8977 63.7047 25.7119 63.688 25.5252C63.6713 25.3385 63.5823 25.1658 63.4401 25.0443L50.9846 14.6149C50.8369 14.5014 50.6516 14.4489 50.4666 14.4683C50.2816 14.4877 50.111 14.5775 49.9899 14.7192L26.4744 43.2064C26.3798 43.4142 26.2388 43.5973 26.0623 43.7417C25.8859 43.8861 25.6787 43.9878 25.4569 44.039C25.235 44.0902 25.0044 44.0895 24.7828 44.0369C24.5613 43.9844 24.3547 43.8814 24.1792 43.7359C24.0036 43.5905 23.8637 43.4065 23.7703 43.1981C23.6769 42.9897 23.6326 42.7626 23.6406 42.5343C23.6487 42.3059 23.7089 42.0825 23.8167 41.8813C23.9246 41.6801 24.0771 41.5064 24.2624 41.3738L47.7185 12.9462C48.3261 12.213 49.1982 11.7512 50.1442 11.6619C51.0902 11.5725 52.0329 11.8629 52.7661 12.4694L65.2215 22.8988C65.9487 23.5108 66.4063 24.3856 66.4952 25.3338C66.5842 26.282 66.2972 27.2272 65.6966 27.9646L42.2405 56.3027C42.1028 56.4644 41.9321 56.5946 41.7401 56.6845C41.548 56.7744 41.339 56.8221 41.1271 56.8242Z" fill="#1BD9B6"/>
<path d="M61.5985 23.137C61.3307 23.1324 61.0691 23.0552 60.8414 22.9135C60.5287 22.7033 60.3072 22.3817 60.2218 22.0139C60.1363 21.646 60.1933 21.2593 60.3812 20.9319L65.4881 12.7374L62.519 10.3237L55.5118 16.8347C55.3901 17.0278 55.2257 17.1902 55.0315 17.3094C54.8372 17.4285 54.6182 17.5012 54.3915 17.5219C54.1647 17.5426 53.9363 17.5106 53.7238 17.4285C53.5113 17.3464 53.3205 17.2163 53.1661 17.0483C53.0117 16.8804 52.8979 16.6791 52.8334 16.4599C52.769 16.2407 52.7556 16.0096 52.7944 15.7845C52.8331 15.5593 52.923 15.3461 53.057 15.1613C53.1909 14.9766 53.3655 14.8252 53.5671 14.719L61.5392 7.26942C61.8059 7.04643 62.1421 6.92432 62.4893 6.92432C62.8365 6.92432 63.1726 7.04643 63.4394 7.26942L68.2791 11.322C68.5447 11.5501 68.7216 11.8649 68.7787 12.211C68.8357 12.5572 68.7692 12.9124 68.5908 13.2142L62.801 22.4666C62.6694 22.6674 62.4912 22.8332 62.2818 22.95C62.0724 23.0667 61.838 23.1309 61.5985 23.137Z" fill="#1BD9B6"/>
<path d="M64.9527 11.8585C64.687 11.8442 64.4301 11.7585 64.2087 11.6104C63.9874 11.4623 63.8097 11.2572 63.6944 11.0166C63.5791 10.7759 63.5303 10.5087 63.5532 10.2426C63.5761 9.97662 63.6697 9.72166 63.8244 9.50443L70.9652 0.848027C71.0626 0.643279 71.2053 0.463559 71.3824 0.322574C71.5595 0.181589 71.7664 0.0830635 71.9872 0.0345127C72.208 -0.0140382 72.437 -0.0113321 72.6566 0.0424246C72.8763 0.0961813 73.0808 0.199569 73.2545 0.344701C73.4283 0.489833 73.5668 0.672876 73.6593 0.87987C73.7519 1.08686 73.7961 1.31234 73.7887 1.5391C73.7812 1.76586 73.7222 1.98791 73.6162 2.18832C73.5103 2.38874 73.3601 2.56221 73.1772 2.69552L66.0513 11.337C65.9152 11.4968 65.7469 11.6259 65.5576 11.7157C65.3682 11.8056 65.1621 11.8543 64.9527 11.8585ZM49.9586 46.1116C49.5764 46.1101 49.2094 45.9607 48.9342 45.6945L43.2929 40.003C43.0955 39.8884 42.9271 39.7296 42.8007 39.5391C42.6743 39.3486 42.5933 39.1314 42.564 38.9045C42.5348 38.6775 42.558 38.4468 42.632 38.2302C42.7059 38.0137 42.8286 37.8172 42.9904 37.656C43.1523 37.4947 43.349 37.3731 43.5653 37.3004C43.7815 37.2278 44.0116 37.2062 44.2375 37.2372C44.4635 37.2682 44.6793 37.3511 44.8682 37.4793C45.0571 37.6076 45.214 37.7778 45.3267 37.9767L50.9681 43.6533C51.227 43.9296 51.3711 44.2946 51.3711 44.6739C51.3711 45.0531 51.227 45.4181 50.9681 45.6945C50.8364 45.8285 50.6791 45.9346 50.5057 46.0062C50.3322 46.0779 50.1462 46.1138 49.9586 46.1116ZM46.0096 50.8943C45.6253 50.8888 45.2581 50.7339 44.9853 50.4622L39.3143 44.7558C39.1463 44.4712 39.0775 44.1385 39.1187 43.8103C39.1599 43.4821 39.3088 43.177 39.5419 42.9431C39.775 42.7092 40.079 42.5597 40.406 42.5184C40.733 42.477 41.0645 42.5461 41.3481 42.7146L47.0488 48.421C47.312 48.6981 47.4589 49.0662 47.4589 49.449C47.4589 49.8319 47.312 50.2 47.0488 50.4771C46.7699 50.7469 46.397 50.8966 46.0096 50.8943ZM54.635 40.4798C54.2507 40.4742 53.8835 40.3194 53.6106 40.0477L48.0287 34.4456C47.8607 34.161 47.7919 33.8283 47.8331 33.5001C47.8743 33.1719 48.0232 32.8668 48.2563 32.6329C48.4893 32.3989 48.7934 32.2495 49.1204 32.2082C49.4474 32.1668 49.7789 32.2359 50.0625 32.4044L55.6445 38.0065C55.828 38.2149 55.9498 38.4706 55.9961 38.7449C56.0423 39.0191 56.0111 39.3008 55.9061 39.5582C55.801 39.8156 55.6263 40.0383 55.4016 40.2011C55.177 40.364 54.9114 40.4605 54.635 40.4798ZM91.2592 82.7188H72.2864C71.2968 82.7189 70.3475 82.3253 69.6463 81.6244C68.9451 80.9235 68.5493 79.9724 68.5453 78.9792V44.1301C68.5453 43.1343 68.9395 42.1793 69.6411 41.4752C70.3427 40.771 71.2942 40.3755 72.2864 40.3755H74.6766C74.9976 40.4562 75.2825 40.6423 75.4861 40.9041C75.6897 41.166 75.8002 41.4886 75.8002 41.8207C75.8002 42.1528 75.6897 42.4754 75.4861 42.7373C75.2825 42.9991 74.9976 43.1852 74.6766 43.2659H72.2864C72.0581 43.2659 71.8391 43.3569 71.6776 43.519C71.5161 43.6811 71.4254 43.9009 71.4254 44.1301V78.9792C71.433 79.2045 71.5266 79.4184 71.6868 79.5764C71.8471 79.7345 72.0618 79.8247 72.2864 79.8284H91.2592C91.4838 79.8247 91.6985 79.7345 91.8588 79.5764C92.019 79.4184 92.1126 79.2045 92.1202 78.9792V44.1301C92.1202 43.9009 92.0295 43.6811 91.868 43.519C91.7065 43.3569 91.4875 43.2659 91.2592 43.2659H88.8839C88.5629 43.1852 88.2779 42.9991 88.0744 42.7373C87.8708 42.4754 87.7602 42.1528 87.7602 41.8207C87.7602 41.4886 87.8708 41.166 88.0744 40.9041C88.2779 40.6423 88.5629 40.4562 88.8839 40.3755H91.2592C92.2514 40.3755 93.2029 40.771 93.9045 41.4752C94.6061 42.1793 95.0003 43.1343 95.0003 44.1301V78.9792C94.9963 79.9724 94.6005 80.9235 93.8993 81.6244C93.1981 82.3253 92.2488 82.7189 91.2592 82.7188Z" fill="#1BD9B6"/>
<path d="M74.6766 43.2659C74.2829 43.2659 73.9062 43.1087 73.6278 42.8293C73.3494 42.5499 73.193 42.1709 73.193 41.7758V36.5909C73.1381 36.3712 73.1339 36.1418 73.1806 35.9202C73.2273 35.6987 73.3238 35.4907 73.4626 35.3121C73.6014 35.1336 73.779 34.9891 73.9818 34.8898C74.1846 34.7904 74.4073 34.7388 74.633 34.7388C74.8587 34.7388 75.0814 34.7904 75.2842 34.8898C75.487 34.9891 75.6646 35.1336 75.8034 35.3121C75.9422 35.4907 76.0387 35.6987 76.0854 35.9202C76.1321 36.1418 76.1279 36.3712 76.073 36.5909V41.8205C76.0626 42.1929 75.9135 42.5478 75.6552 42.8153C75.3968 43.0828 75.0471 43.2437 74.6766 43.2659ZM88.8839 43.2659C88.4901 43.2659 88.1135 43.1087 87.8351 42.8293C87.5567 42.5499 87.4003 42.1709 87.4003 41.7758V36.5909C87.3454 36.3712 87.3412 36.1418 87.3879 35.9202C87.4346 35.6987 87.531 35.4907 87.6699 35.3121C87.8087 35.1336 87.9863 34.9891 88.1891 34.8898C88.3919 34.7904 88.6146 34.7388 88.8403 34.7388C89.066 34.7388 89.2887 34.7904 89.4915 34.8898C89.6943 34.9891 89.8719 35.1336 90.0107 35.3121C90.1495 35.4907 90.246 35.6987 90.2927 35.9202C90.3394 36.1418 90.3352 36.3712 90.2803 36.5909V41.8205C90.2698 42.1929 90.1208 42.5478 89.8624 42.8153C89.6041 43.0828 89.2544 43.2437 88.8839 43.2659Z" fill="#1BD9B6"/>
<path d="M89.7912 38.0366H73.7579C73.4299 38.0406 73.1043 37.9791 72.8 37.8559C72.4958 37.7326 72.219 37.5499 71.9856 37.3185C71.7522 37.087 71.567 36.8114 71.4405 36.5076C71.3141 36.2037 71.249 35.8777 71.249 35.5485V30.5424C71.249 29.8825 71.5102 29.2496 71.9752 28.783C72.4401 28.3163 73.0707 28.0542 73.7282 28.0542H89.7615C90.0871 28.0542 90.4095 28.1186 90.7103 28.2436C91.0111 28.3686 91.2844 28.5519 91.5146 28.783C91.7448 29.014 91.9274 29.2883 92.052 29.5902C92.1766 29.8921 92.2407 30.2156 92.2407 30.5424V35.5485C92.2408 36.2032 91.9837 36.8316 91.5251 37.2974C91.0666 37.7632 90.4436 38.0288 89.7912 38.0366ZM74.2181 35.1462H89.3904V30.9446H74.2181V35.1462ZM93.5175 62.1881C93.3798 62.2099 93.2395 62.2099 93.1018 62.1881L86.926 60.3854C81.5354 58.7732 75.8105 58.6548 70.3583 60.0427C69.9867 60.1301 69.5958 60.0705 69.2668 59.8763C68.9379 59.6821 68.6961 59.3682 68.5916 58.9997C68.5088 58.629 68.5703 58.2404 68.7634 57.9136C68.9566 57.5868 69.2669 57.3464 69.6308 57.2416C75.5969 55.6914 81.869 55.7841 87.7871 57.5098L93.9628 59.3275C94.3222 59.4445 94.6235 59.6945 94.8056 60.0267C94.9876 60.3589 95.0366 60.7482 94.9426 61.1154C94.8527 61.4249 94.6652 61.6967 94.4082 61.8902C94.1512 62.0836 93.8387 62.1881 93.5175 62.1881Z" fill="#1BD9B6"/>
</svg>
