<svg width="83" height="84" viewBox="0 0 83 84" fill="none" xmlns="http://www.w3.org/2000/svg">
<path d="M45.0387 32.9931C44.6309 32.9931 44.2189 32.9569 43.814 32.886C42.7942 32.7066 41.8412 32.3093 41.0063 31.7221C40.1705 32.3097 39.2179 32.7066 38.1994 32.886C36.3539 33.2077 34.4686 32.7873 32.9448 31.72C32.7256 31.5672 32.5672 31.3597 32.474 31.1278C31.6205 31.4882 30.6949 31.678 29.744 31.678L29.6192 31.6764C27.7397 31.6419 25.9871 30.8796 24.6838 29.5289C24.4973 29.3365 24.3814 29.1013 24.334 28.8565C23.3898 29.0556 22.3919 29.0556 21.4288 28.8519C19.5909 28.4608 18.0163 27.3772 16.9928 25.801C16.8475 25.5763 16.7782 25.323 16.7794 25.074C15.7907 25.0664 14.8348 24.9005 13.9259 24.5145C12.1985 23.7795 10.8591 22.4179 10.1552 20.6787C10.0573 20.4363 10.0334 20.173 10.0834 19.921C9.12492 19.7496 8.20974 19.38 7.39032 18.8265C5.83422 17.7781 4.77918 16.1847 4.4205 14.3404C4.37094 14.0855 4.3974 13.823 4.49442 13.5861C3.59184 13.2371 2.76444 12.7008 2.05968 11.9968C0.73164 10.6701 0 8.90481 0 7.02615C0 6.29241 0.59514 5.69727 1.32888 5.69727H29.8301C30.5638 5.69727 31.159 6.29241 31.159 7.02615C31.159 12.4559 35.5765 16.8735 41.0075 16.8735C46.4365 16.8735 50.8532 12.4559 50.8532 7.02615C50.8532 6.29241 51.4483 5.69727 52.1821 5.69727H80.6833C81.4166 5.69727 82.0117 6.29241 82.0117 7.02615C82.0117 8.90733 81.2805 10.6726 79.9525 11.9977C79.249 12.7012 78.4211 13.2375 77.5198 13.5857C77.6143 13.8167 77.6442 14.0763 77.5938 14.34C77.2359 16.1817 76.1813 17.7756 74.6231 18.8273C73.8032 19.38 72.8885 19.7505 71.9296 19.921C71.9796 20.173 71.9561 20.4359 71.8582 20.6782C71.1543 22.4175 69.8158 23.7795 68.087 24.5141C67.1782 24.9005 66.221 25.0828 65.2344 25.074C65.2352 25.323 65.1664 25.5763 65.0202 25.801C63.9975 27.3768 62.4221 28.4608 60.5842 28.8519C59.6194 29.0551 58.6219 29.0547 57.6765 28.8556C57.6299 29.1005 57.514 29.3349 57.3283 29.5281C56.0267 30.8788 54.2745 31.6415 52.395 31.6759L52.2686 31.6772C51.3177 31.6772 50.3924 31.4874 49.5382 31.127C49.4449 31.3584 49.2866 31.5659 49.0682 31.7188C47.88 32.5525 46.4869 32.9931 45.0387 32.9931ZM41.0067 28.6629C41.3595 28.6629 41.698 28.8036 41.9471 29.0535C42.5851 29.6927 43.3894 30.1131 44.2739 30.2689C44.9967 30.3958 45.738 30.3399 46.415 30.1131L44.2751 26.6847C43.9202 26.1172 44.0437 25.3743 44.5624 24.9513C45.0794 24.5301 45.8317 24.5565 46.3184 25.0189L49.2248 27.7859C50.0527 28.5839 51.1316 29.0207 52.2686 29.0207L52.3475 29.0194C53.0578 29.0068 53.7394 28.8262 54.3463 28.4982L50.3278 24.6166C49.8355 24.1416 49.7851 23.3696 50.2114 22.8341C50.6369 22.2978 51.3992 22.1743 51.9746 22.5464L56.7416 25.641C57.7109 26.2722 58.8962 26.4948 60.0327 26.2529C60.7278 26.1051 61.3628 25.7976 61.8967 25.3587L57.2095 22.3146C56.6362 21.942 56.4388 21.194 56.7546 20.5867C57.0709 19.9794 57.7958 19.711 58.4308 19.9684L63.7006 22.0974C64.7749 22.5313 65.9791 22.5241 67.0475 22.0693C67.7019 21.7912 68.2655 21.3691 68.7061 20.8374L63.5237 18.7425C62.8891 18.4858 62.5535 17.7891 62.7476 17.133C62.9429 16.4766 63.6048 16.0797 64.2755 16.2061L69.8565 17.2926C70.9842 17.5114 72.1778 17.272 73.1363 16.6248C73.726 16.2271 74.1993 15.705 74.5303 15.099L69.0425 14.0322C68.3705 13.9011 67.9081 13.282 67.9736 12.6004C68.0387 11.9191 68.6116 11.3992 69.2958 11.3992H74.9818C76.1502 11.3992 77.2481 10.9443 78.0746 10.1186C78.5765 9.6167 78.9415 9.01443 79.1507 8.35587H53.44C52.7751 14.629 47.452 19.5316 41.0067 19.5316C34.5593 19.5316 29.2362 14.629 28.5709 8.35587H2.86188C3.07062 9.01359 3.4356 9.61629 3.93792 10.1182C4.76406 10.9443 5.86278 11.3996 7.03038 11.3996H12.7142C13.3993 11.3996 13.9713 11.9196 14.0368 12.6008C14.1028 13.282 13.6403 13.902 12.9679 14.0326L7.48314 15.0994C7.81452 15.7054 8.28786 16.2279 8.87712 16.6248C9.83598 17.2729 11.0233 17.5106 12.1586 17.293L17.7366 16.2065C18.4128 16.0797 19.0697 16.4778 19.2641 17.1334C19.459 17.7899 19.1234 18.4863 18.4884 18.7429L13.3069 20.8378C13.7474 21.3696 14.3115 21.7921 14.9654 22.0701C16.0331 22.5241 17.2385 22.5321 18.3116 22.0978L23.583 19.9689C24.2172 19.7114 24.943 19.9798 25.2588 20.5871C25.5746 21.1944 25.3781 21.9424 24.8044 22.315L20.1159 25.3591C20.6497 25.7985 21.2856 26.1059 21.9807 26.2533C23.1143 26.4944 24.3025 26.2722 25.2701 25.6426L30.038 22.5472C30.6125 22.176 31.3753 22.2994 31.8016 22.8349C32.227 23.3704 32.1766 24.1424 31.6844 24.6183L27.6646 28.4986C28.2723 28.8275 28.9552 29.0077 29.6667 29.0207L29.744 29.022C30.8809 29.022 31.9582 28.5852 32.7802 27.793L35.6937 25.0202C36.178 24.5582 36.9306 24.5301 37.4497 24.9526C37.968 25.3759 38.0906 26.1185 37.737 26.6859L35.5971 30.1135C36.2746 30.3403 37.0142 30.3966 37.7395 30.2698C38.6224 30.114 39.4279 29.6931 40.0663 29.0535C40.3158 28.8031 40.6539 28.6629 41.0067 28.6629Z" fill="#1BD9B6"/>
<path d="M42.3352 12.7227H39.6778V84H42.3352V12.7227Z" fill="#1BD9B6"/>
<path d="M41.0067 14.0511C37.1326 14.0511 33.9805 10.8998 33.9805 7.02618C33.9805 3.1521 37.1326 0 41.0067 0C44.8808 0 48.0329 3.1521 48.0329 7.02618C48.0325 10.8998 44.8808 14.0511 41.0067 14.0511ZM41.0067 2.65734C38.5972 2.65734 36.6379 4.61748 36.6379 7.02618C36.6379 9.43446 38.5976 11.3938 41.0067 11.3938C43.4154 11.3938 45.3751 9.43404 45.3751 7.02618C45.3751 4.61748 43.4154 2.65734 41.0067 2.65734Z" fill="#1BD9B6"/>
<path d="M49.4206 61.7849L47.6687 59.7857C48.8326 58.7655 49.4474 57.5622 49.4474 56.3047C49.4474 54.8578 48.6234 53.4672 47.1278 52.3903C45.5322 51.2357 43.302 50.5751 41.0067 50.5751C37.4716 50.5751 34.1292 49.5679 31.5966 47.7388C28.9359 45.8198 27.4701 43.2217 27.4701 40.4245C27.4701 37.6323 28.9355 35.0355 31.5966 33.1127L33.1531 35.2661C31.2018 36.6764 30.127 38.508 30.127 40.4245C30.127 42.3447 31.201 44.1776 33.1519 45.5838C35.2363 47.0891 38.0255 47.9177 41.0067 47.9177C43.89 47.9177 46.6162 48.7405 48.683 50.2357C50.8889 51.8241 52.1048 53.9804 52.1048 56.3051C52.1052 58.3207 51.1518 60.267 49.4206 61.7849ZM45.2319 81.0486L43.6808 78.8919C44.2449 78.4857 44.5557 77.9834 44.5557 77.4777C44.5557 76.9683 44.247 76.4664 43.685 76.0665C42.9962 75.5642 42.0248 75.2811 41.0071 75.2811C38.8374 75.2811 36.7672 74.6709 35.1746 73.5629C35.1196 73.5272 35.0729 73.494 35.0234 73.4546C34.4211 73.0203 33.9125 72.5243 33.5101 71.9787C32.7617 71.0043 32.3581 69.8468 32.3581 68.6523C32.3581 67.6749 32.6239 66.7388 33.1493 65.8706L35.4232 67.2453C35.1527 67.693 35.0154 68.1668 35.0154 68.6523C35.0154 69.2651 35.2233 69.8468 35.6332 70.3806C35.8915 70.73 36.2116 71.037 36.5996 71.3151L36.6765 71.3705C37.8298 72.1786 39.3679 72.6234 41.0075 72.6234C42.5989 72.6234 44.1025 73.0808 45.2403 73.9107C46.4898 74.8019 47.2135 76.1052 47.2135 77.4773C47.2126 78.8419 46.4911 80.1431 45.2319 81.0486ZM50.19 47.8929L48.7654 45.6493L48.8443 45.5951C50.8116 44.1759 51.8855 42.3435 51.8855 40.4241C51.8855 38.5089 50.8103 36.6768 48.859 35.2656L50.4164 33.1123C53.0775 35.0367 54.5429 37.6336 54.5429 40.4241C54.5429 43.22 53.0771 45.8177 50.4151 47.7384C50.3164 47.8094 50.2593 47.8493 50.19 47.8929ZM36.776 81.0473C35.5408 80.1561 34.8407 78.9309 34.805 77.5979L37.4611 77.5265C37.4737 78.0116 37.7828 78.4975 38.3313 78.8931L36.776 81.0473ZM48.4936 71.9959L46.381 70.3835C46.7909 69.8476 46.9984 69.2651 46.9984 68.6523C46.9984 67.6779 46.4331 66.7333 45.4079 65.9928C44.263 65.165 42.6594 64.6904 41.0067 64.6904C38.1255 64.6904 35.398 63.8681 33.327 62.375C31.127 60.7836 29.9158 58.6277 29.9158 56.3047C29.9158 54.4655 30.6772 52.7238 32.1174 51.2668L34.0074 53.135C33.0691 54.0837 32.5731 55.1799 32.5731 56.3047C32.5731 57.7524 33.3929 59.1435 34.8827 60.2208C36.4795 61.372 38.7122 62.0331 41.0063 62.0331C43.2382 62.0331 45.3545 62.674 46.964 63.8387C48.6994 65.0907 49.6553 66.8009 49.6553 68.6519C49.6558 69.8438 49.2538 71.0001 48.4936 71.9959Z" fill="#1BD9B6"/>
</svg>
