<svg width="71" height="84" viewBox="0 0 71 84" fill="none" xmlns="http://www.w3.org/2000/svg">
<path d="M60.0727 30.0037C59.7294 30.0037 59.4002 29.8655 59.1574 29.6193C58.9147 29.3732 58.7783 29.0393 58.7783 28.6912V20.265C58.8484 19.9812 59.0101 19.7293 59.2376 19.5493C59.4651 19.3693 59.7453 19.2716 60.0339 19.2716C60.3224 19.2716 60.6027 19.3693 60.8301 19.5493C61.0576 19.7293 61.2193 19.9812 61.2894 20.265V28.7306C61.2803 29.0587 61.1503 29.3713 60.9251 29.607C60.6999 29.8426 60.3957 29.9842 60.0727 30.0037ZM60.0727 84H3.75373C2.76384 84.0035 1.81294 83.609 1.10935 82.903C0.405759 82.1969 0.00684448 81.2368 0 80.2331V3.80625C0 2.79677 0.395481 1.82864 1.09944 1.11482C1.8034 0.401014 2.75818 0 3.75373 0H41.3558C41.6357 0.0711265 41.8841 0.235038 42.0616 0.4657C42.2391 0.696362 42.3355 0.98055 42.3355 1.27313C42.3355 1.5657 42.2391 1.84989 42.0616 2.08055C41.8841 2.31121 41.6357 2.47512 41.3558 2.54625H3.81845C3.47516 2.54625 3.14593 2.68453 2.90318 2.93067C2.66044 3.17681 2.52406 3.51065 2.52406 3.85875V80.2331C2.52548 80.4009 2.56063 80.5666 2.62736 80.7201C2.69408 80.8736 2.79099 81.0117 2.91214 81.126C3.03329 81.2402 3.17615 81.3282 3.33198 81.3846C3.48781 81.4409 3.65334 81.4645 3.81845 81.4538H58.843V74.1169C58.9132 73.8331 59.0748 73.5812 59.3023 73.4012C59.5298 73.2212 59.81 73.1235 60.0986 73.1235C60.3871 73.1235 60.6674 73.2212 60.8949 73.4012C61.1223 73.5812 61.284 73.8331 61.3541 74.1169V82.6875C61.3542 83.0333 61.2196 83.3652 60.9796 83.611C60.7397 83.8567 60.4137 83.9965 60.0727 84Z" fill="#1BD9B6"/>
<path d="M31.895 14.8578H8.36297C8.08309 14.7866 7.83467 14.6227 7.65716 14.3921C7.47966 14.1614 7.38325 13.8772 7.38325 13.5846C7.38325 13.2921 7.47966 13.0079 7.65716 12.7772C7.83467 12.5465 8.08309 12.3826 8.36297 12.3115H31.895C32.1749 12.3826 32.4233 12.5465 32.6008 12.7772C32.7783 13.0079 32.8747 13.2921 32.8747 13.5846C32.8747 13.8772 32.7783 14.1614 32.6008 14.3921C32.4233 14.6227 32.1749 14.7866 31.895 14.8578ZM38.3928 25.3315H8.36297C8.1721 25.38 7.97284 25.3838 7.78034 25.3424C7.58783 25.3011 7.40714 25.2159 7.25201 25.0931C7.09688 24.9704 6.97139 24.8134 6.88508 24.6341C6.79877 24.4548 6.75391 24.2579 6.75391 24.0584C6.75391 23.8589 6.79877 23.662 6.88508 23.4827C6.97139 23.3034 7.09688 23.1464 7.25201 23.0236C7.40714 22.9009 7.58783 22.8156 7.78034 22.7743C7.97284 22.733 8.1721 22.7368 8.36297 22.7853H38.3928C38.6727 22.8564 38.9211 23.0203 39.0987 23.251C39.2762 23.4816 39.3726 23.7658 39.3726 24.0584C39.3726 24.351 39.2762 24.6351 39.0987 24.8658C38.9211 25.0965 38.6727 25.2604 38.3928 25.3315ZM38.3928 35.8053H8.36297C8.1721 35.8538 7.97284 35.8575 7.78034 35.8162C7.58783 35.7749 7.40714 35.6896 7.25201 35.5669C7.09688 35.4441 6.97139 35.2872 6.88508 35.1078C6.79877 34.9285 6.75391 34.7316 6.75391 34.5321C6.75391 34.3326 6.79877 34.1357 6.88508 33.9564C6.97139 33.7771 7.09688 33.6201 7.25201 33.4974C7.40714 33.3746 7.58783 33.2894 7.78034 33.2481C7.97284 33.2068 8.1721 33.2105 8.36297 33.259H38.3928C38.6727 33.3301 38.9211 33.494 39.0987 33.7247C39.2762 33.9554 39.3726 34.2396 39.3726 34.5321C39.3726 34.8247 39.2762 35.1089 39.0987 35.3396C38.9211 35.5702 38.6727 35.7341 38.3928 35.8053ZM38.3928 46.279H8.36297C8.08309 46.2079 7.83467 46.044 7.65716 45.8133C7.47966 45.5826 7.38325 45.2985 7.38325 45.0059C7.38325 44.7133 7.47966 44.4291 7.65716 44.1985C7.83467 43.9678 8.08309 43.8039 8.36297 43.7327H38.3928C38.6727 43.8039 38.9211 43.9678 39.0987 44.1985C39.2762 44.4291 39.3726 44.7133 39.3726 45.0059C39.3726 45.2985 39.2762 45.5826 39.0987 45.8133C38.9211 46.044 38.6727 46.2079 38.3928 46.279ZM39.9461 56.7528H8.37591C8.09603 56.6816 7.84761 56.5177 7.67011 56.2871C7.4926 56.0564 7.3962 55.7722 7.3962 55.4796C7.3962 55.1871 7.4926 54.9029 7.67011 54.6722C7.84761 54.4415 8.09603 54.2776 8.37591 54.2065H39.9461C40.137 54.158 40.3362 54.1543 40.5288 54.1956C40.7213 54.2369 40.9019 54.3221 41.0571 54.4449C41.2122 54.5676 41.3377 54.7246 41.424 54.9039C41.5103 55.0832 41.5552 55.2801 41.5552 55.4796C41.5552 55.6791 41.5103 55.876 41.424 56.0553C41.3377 56.2347 41.2122 56.3916 41.0571 56.5144C40.9019 56.6371 40.7213 56.7224 40.5288 56.7637C40.3362 56.805 40.137 56.8013 39.9461 56.7528ZM38.3928 67.2265H8.37591C8.09603 67.1554 7.84761 66.9915 7.67011 66.7608C7.4926 66.5301 7.3962 66.246 7.3962 65.9534C7.3962 65.6608 7.4926 65.3766 7.67011 65.146C7.84761 64.9153 8.09603 64.7514 8.37591 64.6803H38.3928C38.6727 64.7514 38.9211 64.9153 39.0987 65.146C39.2762 65.3766 39.3726 65.6608 39.3726 65.9534C39.3726 66.246 39.2762 66.5301 39.0987 66.7608C38.9211 66.9915 38.6727 67.1554 38.3928 67.2265ZM60.0739 21.5515H43.8552C43.3622 21.5515 42.8741 21.4531 42.4187 21.2618C41.9633 21.0705 41.5495 20.7901 41.2009 20.4367C40.8523 20.0832 40.5758 19.6636 40.3872 19.2018C40.1985 18.74 40.1014 18.2451 40.1014 17.7453V1.31276C40.1056 1.06108 40.181 0.815905 40.3187 0.606466C40.4564 0.397027 40.6505 0.232156 40.8781 0.131505C41.11 0.0410194 41.3627 0.0201303 41.606 0.0713325C41.8493 0.122535 42.0729 0.243664 42.2501 0.420255L60.98 19.3728C61.141 19.558 61.2473 19.7856 61.2865 20.0293C61.3257 20.2731 61.2963 20.5231 61.2017 20.7506C61.107 20.9782 60.951 21.1741 60.7515 21.3157C60.552 21.4574 60.3171 21.5391 60.0739 21.5515ZM42.6126 4.34463V17.7453C42.6126 18.0934 42.7489 18.4272 42.9917 18.6733C43.2344 18.9195 43.5637 19.0578 43.907 19.0578H57.0709L42.6126 4.34463ZM53.7184 78.8815C52.9809 78.8802 52.2463 78.7877 51.5309 78.6059L50.6507 78.3828C49.5145 78.0944 48.4456 77.5817 47.5051 76.8739C46.5647 76.1661 45.7711 75.2771 45.1699 74.2579C44.5688 73.2387 44.1718 72.1092 44.0017 70.9342C43.8316 69.7592 43.8918 68.5617 44.1788 67.4102L52.5664 34.1909C53.1439 31.8688 54.6061 29.8739 56.6323 28.6436C58.6585 27.4133 61.0833 27.0482 63.3746 27.6284L64.2548 27.8646C65.3913 28.1499 66.4611 28.6603 67.4023 29.3664C68.3436 30.0725 69.1378 30.9604 69.7394 31.979C70.3409 32.9976 70.7378 34.1268 70.9072 35.3015C71.0767 36.4763 71.0154 37.6734 70.7267 38.824L62.3391 72.0959C61.848 74.0363 60.7346 75.7561 59.1739 76.9845C57.6133 78.213 55.6941 78.8803 53.7184 78.8815ZM61.1741 29.9384C60.0302 29.9357 58.9071 30.2488 57.9252 30.844C56.4825 31.7211 55.4333 33.1334 54.9999 34.7815L46.664 68.0403C46.4561 68.8641 46.4103 69.7215 46.5294 70.5634C46.6485 71.4052 46.9301 72.215 47.3581 72.9464C47.786 73.6777 48.352 74.3164 49.0236 74.8259C49.6952 75.3353 50.4592 75.7055 51.272 75.9153L52.1522 76.1384C53.7931 76.5606 55.532 76.3058 56.9879 75.4299C58.4438 74.554 59.4977 73.1285 59.9186 71.4659L68.2674 38.2334C68.4751 37.4086 68.5203 36.5504 68.4004 35.7079C68.2805 34.8653 67.9978 34.0551 67.5685 33.3235C67.1393 32.592 66.5719 31.9535 65.8988 31.4447C65.2258 30.9359 64.4604 30.5667 63.6464 30.3584L62.7533 30.1878C62.2391 30.0388 61.7087 29.955 61.1741 29.9384Z" fill="#1BD9B6"/>
<path d="M65.2504 56.4378C65.1472 56.4504 65.0429 56.4504 64.9397 56.4378L49.3035 52.3428C49.1068 52.3418 48.9129 52.2953 48.7366 52.2069C48.5602 52.1186 48.406 51.9906 48.2858 51.8328C48.1655 51.675 48.0823 51.4914 48.0425 51.2961C48.0026 51.1008 48.0072 50.8988 48.0559 50.7056C48.1045 50.5123 48.196 50.3329 48.3233 50.1808C48.4506 50.0288 48.6104 49.9081 48.7906 49.8281C48.9707 49.7481 49.1665 49.7107 49.363 49.7189C49.5596 49.727 49.7517 49.7805 49.9248 49.8753L65.5999 53.9178C65.8665 54.0281 66.0893 54.2255 66.2328 54.4787C66.3764 54.732 66.4326 55.0265 66.3925 55.3157C66.3524 55.6049 66.2183 55.8723 66.0114 56.0755C65.8045 56.2788 65.5367 56.4062 65.2504 56.4378Z" fill="#1BD9B6"/>
</svg>
