<svg width="57" height="84" viewBox="0 0 57 84" fill="none" xmlns="http://www.w3.org/2000/svg">
<path d="M56.1195 12.338L50.5711 3.14623C49.9995 2.19848 49.179 1.40993 48.191 0.85862C47.2029 0.307307 46.0815 0.0123366 44.9377 0.00289915H44.9323C44.9248 0.00289915 44.9179 0 44.9103 0H12.0865C12.0789 0 12.0721 0.00289915 12.0645 0.00289915H12.0592C10.9153 0.0121056 9.79381 0.306979 8.80572 0.858315C7.81762 1.40965 6.99723 2.19833 6.42579 3.14623L0.877362 12.338C0.320175 13.2625 0.0185009 14.3075 0.000824241 15.3745C-0.0168524 16.4414 0.250051 17.4951 0.776334 18.4359L18.4883 47.7799L1.96868 75.1508C1.89199 75.2775 1.84218 75.4175 1.82211 75.5627C1.80203 75.7079 1.81209 75.8554 1.85171 75.9969C1.89132 76.1384 1.95972 76.271 2.05298 76.3871C2.14623 76.5033 2.26253 76.6007 2.39519 76.6738L15.3916 83.8504C15.5241 83.9237 15.6705 83.9713 15.8222 83.9904C15.974 84.0096 16.1282 83.9999 16.2761 83.962C16.4239 83.9242 16.5625 83.8588 16.684 83.7696C16.8054 83.6805 16.9073 83.5693 16.9838 83.4425L28.4986 64.3648L40.0138 83.4425C40.0903 83.5693 40.1922 83.6805 40.3136 83.7696C40.4351 83.8588 40.5737 83.9242 40.7216 83.962C40.8694 83.9999 41.0236 84.0096 41.1754 83.9904C41.3272 83.9713 41.4735 83.9237 41.606 83.8504L54.6024 76.6738C54.7351 76.6007 54.8514 76.5033 54.9446 76.3871C55.0379 76.271 55.1063 76.1384 55.1459 75.9969C55.1855 75.8554 55.1956 75.7079 55.1755 75.5627C55.1554 75.4175 55.1056 75.2775 55.0289 75.1508L38.5089 47.7806L56.2447 18.3953C56.7612 17.4579 57.0206 16.4106 56.9987 15.3512C56.9768 14.2918 56.6743 13.2551 56.1195 12.338ZM19.6809 16.5862H37.3163L28.4987 31.1954L19.6809 16.5862ZM38.6622 14.3561H18.3354L11.6152 3.22313C11.5454 3.10758 11.5129 2.97482 11.522 2.84164C11.5312 2.76449 11.554 2.68939 11.5893 2.6195C11.5977 2.58594 11.6079 2.55286 11.6202 2.52041C11.6531 2.4735 11.6917 2.43038 11.735 2.39192C11.752 2.36955 11.7711 2.34877 11.7921 2.32985C11.8324 2.3121 11.8744 2.29848 11.9176 2.28921C11.9801 2.2552 12.0497 2.23498 12.1214 2.23003H44.8905C44.8954 2.23003 44.8993 2.23293 44.9043 2.23293C45.0028 2.2356 45.0987 2.26374 45.1819 2.31435C45.265 2.36497 45.3323 2.43617 45.3766 2.52041C45.3879 2.55077 45.3975 2.58166 45.4054 2.61296C45.442 2.6847 45.4655 2.76194 45.4747 2.84128C45.4837 2.97456 45.4513 3.1074 45.3816 3.22313L38.6622 14.3561ZM15.5479 81.3619L4.57024 75.3003L19.8342 50.01L27.1528 62.135L15.5479 81.3619ZM41.4496 81.3619L2.81942 17.3615C2.48556 16.757 2.31747 16.0814 2.33088 15.3979C2.34428 14.7143 2.53874 14.0452 2.89607 13.4531L8.44449 4.26127C8.65524 3.91321 8.91835 3.59668 9.22539 3.32185C9.23602 3.38899 9.26106 3.45324 9.27653 3.51968C9.29133 3.58286 9.30567 3.64452 9.32481 3.70697C9.38867 3.927 9.47987 4.13891 9.59647 4.33818L52.4273 75.3003L41.4496 81.3619ZM54.2017 17.3209L37.163 45.5505L29.8446 33.4252L40.344 16.0294L40.3447 16.0287L47.4003 4.33818C47.5171 4.13858 47.6084 3.92629 47.6722 3.70587C47.6914 3.6438 47.7057 3.58245 47.7204 3.5193C47.736 3.45324 47.7608 3.38899 47.7715 3.32185C48.0788 3.59637 48.342 3.91295 48.5524 4.26127L54.1008 13.4531C54.4557 14.0379 54.6509 14.6987 54.6686 15.3747C54.6862 16.0506 54.5257 16.7199 54.2017 17.3209V17.3209Z" fill="#1BD9B6"/>
</svg>
