<svg width="84" height="98" viewBox="0 0 84 98" fill="none" xmlns="http://www.w3.org/2000/svg">
<path d="M62.0808 58.7184L47.2303 73.5689C45.9177 74.8801 44.1383 75.6166 42.283 75.6166C40.4277 75.6166 38.6483 74.8801 37.3358 73.5689L22.4818 58.7184C18.566 54.8025 15.8994 49.8133 14.8192 44.3819C13.7389 38.9505 14.2935 33.3207 16.4128 28.2045C18.5321 23.0882 22.1209 18.7153 26.7254 15.6387C31.33 12.5621 36.7435 10.9199 42.2813 10.9199C47.8191 10.9199 53.2325 12.5621 57.8371 15.6387C62.4416 18.7153 66.0305 23.0882 68.1498 28.2045C70.2691 33.3207 70.8236 38.9505 69.7434 44.3819C68.6631 49.8133 65.9965 54.8025 62.0808 58.7184V58.7184Z" fill="#009CCE"/>
<path d="M37.1006 28.5601H40.9984V34.1592H37.1006V28.5601Z" fill="white"/>
<path d="M37.0643 48.1118V40.6614H28.3984V37.5006H47.2078C48.7848 37.5006 50.0632 36.227 50.0632 34.6559C50.0632 33.0848 48.7848 31.8112 47.2078 31.8112H47.0931C47.0017 31.81 46.904 31.8103 46.7973 31.8107C46.7404 31.8109 46.681 31.8112 46.6186 31.8112H44.0805V28.6052H47.0802C48.9456 28.6052 50.493 29.1384 51.7225 30.2048C52.9731 31.2542 53.5984 32.6252 53.5984 34.3179C53.5984 36.0105 53.0813 37.3937 51.858 38.5752C50.7653 39.6306 50.2598 39.8757 48.5947 40.5259L53.4985 48.1118H49.2741L44.6787 40.7426H40.9803V48.1118H37.0643Z" fill="white"/>
<circle cx="42" cy="91" r="5.5" fill="#009CCE" stroke="white" stroke-width="3"/>
</svg>
