<svg width="24" height="24" viewBox="0 0 24 24" fill="none" xmlns="http://www.w3.org/2000/svg">
<path d="M12.7105 15.5407L18.3605 9.88071C18.4542 9.78775 18.5286 9.67715 18.5793 9.55529C18.6301 9.43343 18.6562 9.30273 18.6562 9.17071C18.6562 9.0387 18.6301 8.908 18.5793 8.78614C18.5286 8.66428 18.4542 8.55368 18.3605 8.46071C18.1731 8.27446 17.9196 8.16992 17.6555 8.16992C17.3913 8.16992 17.1378 8.27446 16.9505 8.46071L11.9505 13.4107L7.00045 8.46071C6.81309 8.27446 6.55964 8.16992 6.29545 8.16992C6.03127 8.16992 5.77781 8.27446 5.59045 8.46071C5.49596 8.55333 5.42079 8.66377 5.3693 8.78565C5.3178 8.90752 5.291 9.03841 5.29045 9.17071C5.291 9.30302 5.3178 9.4339 5.3693 9.55578C5.42079 9.67765 5.49596 9.7881 5.59045 9.88071L11.2405 15.5407C11.3341 15.6422 11.4477 15.7232 11.5742 15.7786C11.7007 15.834 11.8373 15.8626 11.9755 15.8626C12.1136 15.8626 12.2502 15.834 12.3767 15.7786C12.5032 15.7232 12.6168 15.6422 12.7105 15.5407Z" fill="white"/>
</svg>
