<svg width="70" height="70" viewBox="0 0 70 70" fill="none" xmlns="http://www.w3.org/2000/svg">
<rect width="70" height="70" rx="35" fill="#0077FF"/>
<g clip-path="url(#clip0_369_6707)">
<path d="M46.5427 36.5005C45.9769 35.7859 46.1388 35.468 46.5427 34.8292C46.55 34.8219 51.221 28.3673 51.7023 26.1784L51.7052 26.1769C51.9444 25.3792 51.7052 24.793 50.5488 24.793H46.7221C45.7479 24.793 45.2987 25.2961 45.0581 25.859C45.0581 25.859 43.1098 30.5228 40.3535 33.5459C39.464 34.4194 39.0527 34.6994 38.5671 34.6994C38.3279 34.6994 37.956 34.4194 37.956 33.6217V26.1769C37.956 25.2203 37.6833 24.793 36.8769 24.793H30.8598C30.2488 24.793 29.8856 25.2392 29.8856 25.6548C29.8856 26.5619 31.2638 26.7705 31.4067 29.3226V34.8598C31.4067 36.0732 31.1865 36.2963 30.6979 36.2963C29.3971 36.2963 26.2398 31.6136 24.3688 26.2542C23.991 25.2144 23.6221 24.7944 22.6406 24.7944H18.8125C17.7202 24.7944 17.5 25.2976 17.5 25.8605C17.5 26.8551 18.8008 31.8003 23.5492 38.3336C26.7137 42.7932 31.1704 45.2096 35.2246 45.2096C37.6615 45.2096 37.959 44.673 37.959 43.7498C37.959 39.4886 37.7388 39.0861 38.9594 39.0861C39.5252 39.0861 40.4994 39.3661 42.7744 41.5171C45.3746 44.0678 45.8019 45.2096 47.2573 45.2096H51.084C52.1748 45.2096 52.7275 44.673 52.4096 43.6142C51.6819 41.3873 46.7644 36.8067 46.5427 36.5005Z" fill="white"/>
</g>
<defs>
<clipPath id="clip0_369_6707">
<rect width="35" height="35" fill="white" transform="translate(17.5 17.5)"/>
</clipPath>
</defs>
</svg>
