<svg width="70" height="70" viewBox="0 0 70 70" fill="none" xmlns="http://www.w3.org/2000/svg">
<rect width="70" height="70" rx="35" fill="#E30000"/>
<path d="M50.7145 26.8C50.3364 25.3942 49.2281 24.2861 47.8226 23.9076C45.2549 23.2051 34.984 23.2051 34.984 23.2051C34.984 23.2051 24.7134 23.2051 22.1458 23.881C20.7673 24.2591 19.632 25.3944 19.2538 26.8C18.5781 29.3674 18.5781 34.6921 18.5781 34.6921C18.5781 34.6921 18.5781 40.0435 19.2538 42.5842C19.6324 43.9897 20.7403 45.0978 22.146 45.4763C24.7405 46.179 34.9844 46.179 34.9844 46.179C34.9844 46.179 45.2549 46.179 47.8226 45.5031C49.2283 45.1248 50.3364 44.0167 50.7149 42.6112C51.3904 40.0435 51.3904 34.7191 51.3904 34.7191C51.3904 34.7191 51.4175 29.3674 50.7145 26.8ZM31.7139 39.6111V29.773L40.2547 34.6921L31.7139 39.6111Z" fill="white"/>
</svg>
