<svg width="63" height="63" viewBox="0 0 63 63" fill="none" xmlns="http://www.w3.org/2000/svg">
<path fill-rule="evenodd" clip-rule="evenodd" d="M15.0714 3C13.7334 3 12.4458 3.53902 11.493 4.50562C10.5395 5.47296 10 6.78947 10 8.16667V54.8333C10 56.2105 10.5395 57.527 11.493 58.4944C12.4458 59.461 13.7334 60 15.0714 60H47.9286C49.2666 60 50.5542 59.461 51.507 58.4944C52.4605 57.527 53 56.2105 53 54.8333V19.6667H41.356C40.0798 19.6667 38.8602 19.1521 37.9644 18.2434C37.0694 17.3353 36.5703 16.1083 36.5703 14.8333V3H15.0714ZM39.5703 5.15735L50.9152 16.6667H41.356C40.8895 16.6667 40.4375 16.4788 40.1009 16.1374C39.7636 15.7951 39.5703 15.3265 39.5703 14.8333V5.15735ZM39.1397 0.446998C38.9894 0.294495 38.8098 0.17753 38.614 0.101567C38.4927 0.0543731 38.3637 0.0225082 38.2295 0.00834754C38.1772 0.00281021 38.1245 0 38.0714 0H38.0703H15.0714C12.9237 0 10.8684 0.865736 9.35646 2.39962C7.84521 3.93277 7 6.00764 7 8.16667V54.8333C7 56.9924 7.84521 59.0672 9.35646 60.6004C10.8684 62.1343 12.9237 63 15.0714 63H47.9286C50.0763 63 52.1316 62.1343 53.6435 60.6004C55.1548 59.0672 56 56.9924 56 54.8333V18.1667C56 17.7726 55.8449 17.3943 55.5683 17.1137L39.1397 0.446998ZM21.6406 20C20.8122 20 20.1406 20.6716 20.1406 21.5C20.1406 22.3284 20.8122 23 21.6406 23H24.9263C25.7548 23 26.4263 22.3284 26.4263 21.5C26.4263 20.6716 25.7548 20 24.9263 20H21.6406ZM20.1406 34.832C20.1406 34.0036 20.8122 33.332 21.6406 33.332H41.3549C42.1833 33.332 42.8549 34.0036 42.8549 34.832C42.8549 35.6605 42.1833 36.332 41.3549 36.332H21.6406C20.8122 36.332 20.1406 35.6605 20.1406 34.832ZM21.6406 46.668C20.8122 46.668 20.1406 47.3395 20.1406 48.168C20.1406 48.9964 20.8122 49.668 21.6406 49.668H41.3549C42.1833 49.668 42.8549 48.9964 42.8549 48.168C42.8549 47.3395 42.1833 46.668 41.3549 46.668H21.6406Z" fill="#1BD9B6"/>
</svg>
