<svg width="70" height="70" viewBox="0 0 70 70" fill="none" xmlns="http://www.w3.org/2000/svg">
<rect width="70" height="70" rx="35" fill="#FF9000"/>
<path d="M34.704 35.5888C39.6867 35.5888 43.7486 31.527 43.7486 26.5445C43.7486 21.5619 39.6867 17.5 34.704 17.5C29.6674 17.5 25.6055 21.5619 25.6055 26.5445C25.6055 31.527 29.6674 35.5888 34.704 35.5888ZM34.704 22.8075C36.762 22.8075 38.441 24.4864 38.441 26.5445C38.441 28.6025 36.762 30.2813 34.704 30.2813C32.6462 30.2813 30.9672 28.6025 30.9672 26.5445C30.9129 24.4864 32.5919 22.8075 34.704 22.8075Z" fill="white"/>
<path d="M38.3365 43.0068C40.1778 42.5735 41.9651 41.8694 43.5898 40.8405C44.8355 40.0821 45.2145 38.4034 44.4022 37.1577C43.6441 35.912 41.9651 35.5329 40.7194 36.3453C37.0366 38.6742 32.2166 38.6742 28.5338 36.3453C27.2882 35.5872 25.6634 35.912 24.8511 37.1577C24.147 38.4034 24.5261 40.0281 25.7718 40.7862C27.3965 41.8154 29.1837 42.5192 31.0252 42.9525L25.9884 47.9893C24.9594 49.0185 24.9594 50.6972 25.9884 51.7264C26.53 52.2679 27.1799 52.4845 27.8839 52.4845C28.588 52.4845 29.2379 52.2137 29.7795 51.7264L34.762 46.7436L39.7447 51.7264C40.7736 52.7553 42.4526 52.7553 43.4815 51.7264C44.5104 50.6972 44.5104 49.0185 43.4815 47.9893L38.3365 43.0068Z" fill="white"/>
</svg>
