<svg width="60" height="60" viewBox="0 0 60 60" fill="none" xmlns="http://www.w3.org/2000/svg">
<path d="M48.525 32.5C47.975 32.5 47.4 32.325 46.85 32.2C45.7371 31.9511 44.6428 31.6254 43.575 31.225C42.4152 30.8031 41.1404 30.825 39.9958 31.2865C38.8512 31.748 37.9177 32.6166 37.375 33.725L36.825 34.875C34.3971 33.498 32.1541 31.8179 30.15 29.875C28.2071 27.8709 26.527 25.6279 25.15 23.2L26.3 22.675C27.4084 22.1323 28.277 21.1988 28.7385 20.0542C29.2 18.9096 29.2219 17.6348 28.8 16.475C28.403 15.3976 28.0773 14.2952 27.825 13.175C27.7 12.625 27.6 12.05 27.525 11.5C27.2214 9.73905 26.2991 8.14435 24.9241 7.0031C23.549 5.86184 21.8117 5.24902 20.025 5.275H12.5C11.4431 5.27362 10.3979 5.49562 9.4328 5.92646C8.46772 6.3573 7.60459 6.98724 6.9 7.775C6.1808 8.58413 5.64529 9.53938 5.33026 10.5751C5.01523 11.6108 4.92815 12.7024 5.075 13.775C6.43397 24.1803 11.188 33.8466 18.6 41.275C26.0284 48.687 35.6947 53.441 46.1 54.8C46.4245 54.8248 46.7505 54.8248 47.075 54.8C48.9185 54.8027 50.6985 54.1263 52.075 52.9C52.8628 52.1954 53.4927 51.3323 53.9235 50.3672C54.3544 49.4021 54.5764 48.3569 54.575 47.3V39.8C54.5615 38.0726 53.9521 36.4028 52.8498 35.0727C51.7475 33.7427 50.2199 32.8339 48.525 32.5ZM49.75 47.5C49.7492 47.8489 49.6754 48.1937 49.5333 48.5123C49.3912 48.8309 49.184 49.1163 48.925 49.35C48.651 49.5996 48.3249 49.7852 47.9704 49.8933C47.6158 50.0014 47.2417 50.0293 46.875 49.975C37.5457 48.7566 28.8756 44.505 22.2 37.875C15.5187 31.1937 11.2301 22.4934 10 13.125C9.94569 12.7583 9.97359 12.3842 10.0817 12.0296C10.1898 11.6751 10.3754 11.349 10.625 11.075C10.8616 10.8129 11.1509 10.6038 11.4741 10.4616C11.7973 10.3194 12.1469 10.2473 12.5 10.25H20C20.5779 10.2359 21.1428 10.4225 21.5987 10.778C22.0545 11.1335 22.373 11.636 22.5 12.2C22.5 12.875 22.725 13.575 22.875 14.25C23.1639 15.5597 23.5483 16.8464 24.025 18.1L20.525 19.75C19.9234 20.0262 19.4559 20.5296 19.225 21.15C18.975 21.7587 18.975 22.4413 19.225 23.05C22.823 30.7569 29.0181 36.952 36.725 40.55C37.3337 40.8 38.0163 40.8 38.625 40.55C39.2454 40.3191 39.7488 39.8516 40.025 39.25L41.6 35.75C42.8898 36.2203 44.2093 36.6045 45.55 36.9C46.2 37.05 46.9 37.175 47.575 37.275C48.139 37.402 48.6415 37.7205 48.997 38.1763C49.3525 38.6322 49.5391 39.1971 49.525 39.775L49.75 47.5ZM35 5C34.425 5 33.825 5 33.25 5C32.587 5.05636 31.9735 5.3738 31.5445 5.88249C31.1155 6.39119 30.9061 7.04946 30.9625 7.7125C31.0189 8.37554 31.3363 8.98904 31.845 9.41803C32.3537 9.84702 33.012 10.0564 33.675 10H35C38.9782 10 42.7936 11.5804 45.6066 14.3934C48.4197 17.2064 50 21.0218 50 25C50 25.45 50 25.875 50 26.325C49.9446 26.9845 50.1529 27.6391 50.5794 28.1453C51.0059 28.6514 51.6156 28.9678 52.275 29.025H52.475C53.1008 29.0275 53.7049 28.7953 54.1677 28.374C54.6306 27.9528 54.9187 27.3733 54.975 26.75C54.975 26.175 54.975 25.575 54.975 25C54.975 19.7 52.8713 14.6167 49.126 10.8667C45.3807 7.11669 40.3 5.00663 35 5ZM40 25C40 25.663 40.2634 26.2989 40.7322 26.7678C41.2011 27.2366 41.837 27.5 42.5 27.5C43.163 27.5 43.7989 27.2366 44.2678 26.7678C44.7366 26.2989 45 25.663 45 25C45 22.3478 43.9464 19.8043 42.0711 17.9289C40.1957 16.0536 37.6522 15 35 15C34.337 15 33.7011 15.2634 33.2322 15.7322C32.7634 16.2011 32.5 16.837 32.5 17.5C32.5 18.163 32.7634 18.7989 33.2322 19.2678C33.7011 19.7366 34.337 20 35 20C36.3261 20 37.5979 20.5268 38.5355 21.4645C39.4732 22.4021 40 23.6739 40 25Z" fill="url(#paint0_linear_199_5345)"/>
<defs>
<linearGradient id="paint0_linear_199_5345" x1="29.9903" y1="5" x2="29.9903" y2="54.8186" gradientUnits="userSpaceOnUse">
<stop stop-color="#009CCE"/>
<stop offset="0.556896" stop-color="#1BD9B6"/>
<stop offset="1" stop-color="#9BEFB3"/>
</linearGradient>
</defs>
</svg>
