<svg width="180" height="33" viewBox="0 0 180 33" fill="none" xmlns="http://www.w3.org/2000/svg">
<path d="M48.1484 33V0H56.8596L65.8126 25.9286H66.7805L75.7336 0H84.4447V33H79.3633V7.77857H78.3953L69.6842 33H62.9089L54.1978 7.77857H53.2299V33H48.1484Z" fill="#009CCE"/>
<path d="M115.475 21.5417H120.74C120.421 22.8861 119.878 24.2 119.113 25.4833C118.379 26.7667 117.406 27.9889 116.193 29.15C114.98 30.3111 113.465 31.2431 111.646 31.9458C109.827 32.6486 107.833 33 105.663 33C101.164 33 97.3668 31.4569 94.2716 28.3708C91.1765 25.2847 89.6289 21.3278 89.6289 16.5C89.6289 11.6722 91.1765 7.71528 94.2716 4.62917C97.3668 1.54306 101.164 0 105.663 0C109.62 0 112.922 1.1 115.571 3.3C118.251 5.46944 119.974 8.1125 120.74 11.2292H115.475C114.645 9.09028 113.353 7.45556 111.598 6.325C109.843 5.16389 107.865 4.58333 105.663 4.58333C102.472 4.58333 99.8397 5.66806 97.7657 7.8375C95.6916 10.0069 94.6545 12.8944 94.6545 16.5C94.6545 20.1056 95.6916 22.9931 97.7657 25.1625C99.8397 27.3319 102.472 28.4167 105.663 28.4167C108.216 28.4167 110.322 27.7597 111.981 26.4458C113.672 25.1014 114.837 23.4667 115.475 21.5417Z" fill="#009CCE"/>
<path d="M134.354 7.02778H136.543C136.478 7.31296 136.381 7.60833 136.251 7.91389C136.132 8.21945 135.932 8.56574 135.651 8.95278C135.381 9.32963 135.068 9.66574 134.711 9.96111C134.354 10.2565 133.89 10.506 133.317 10.7097C132.744 10.9032 132.118 11 131.437 11C129.881 11 128.573 10.4806 127.514 9.44167C126.455 8.40278 125.926 7.08889 125.926 5.5C125.926 3.91111 126.455 2.59722 127.514 1.55833C128.573 0.519444 129.881 0 131.437 0C132.074 0 132.663 0.0916667 133.204 0.275C133.755 0.448148 134.214 0.672223 134.581 0.947223C134.949 1.22222 135.273 1.54306 135.554 1.90972C135.835 2.2662 136.051 2.60741 136.202 2.93333C136.354 3.25926 136.467 3.58009 136.543 3.89583H134.354C134.138 3.3662 133.787 2.90278 133.301 2.50556C132.825 2.10833 132.204 1.90972 131.437 1.90972C130.443 1.90972 129.627 2.24074 128.989 2.90278C128.352 3.55463 128.033 4.42037 128.033 5.5C128.033 6.57963 128.352 7.45046 128.989 8.1125C129.627 8.76435 130.443 9.09028 131.437 9.09028C132.215 9.09028 132.842 8.88658 133.317 8.47917C133.803 8.07176 134.149 7.58796 134.354 7.02778Z" fill="#009CCE"/>
<path d="M138.656 10.8472V0.152778H140.763V8.9375H146.112V10.8472H138.656Z" fill="#009CCE"/>
<path d="M147.971 10.8472V0.152778H150.078V10.8472H147.971Z" fill="#009CCE"/>
<path d="M152.838 10.8472V0.152778H155.674L159.808 7.5625H160.132V0.152778H162.239V10.8472H159.402L155.269 3.4375H154.945V10.8472H152.838Z" fill="#009CCE"/>
<path d="M165.002 10.8472V0.152778H167.109V10.8472H165.002Z" fill="#009CCE"/>
<path d="M177.812 7.02778H180C179.935 7.31296 179.838 7.60833 179.708 7.91389C179.589 8.21945 179.389 8.56574 179.108 8.95278C178.838 9.32963 178.525 9.66574 178.168 9.96111C177.812 10.2565 177.347 10.506 176.774 10.7097C176.202 10.9032 175.575 11 174.894 11C173.338 11 172.03 10.4806 170.971 9.44167C169.912 8.40278 169.383 7.08889 169.383 5.5C169.383 3.91111 169.912 2.59722 170.971 1.55833C172.03 0.519444 173.338 0 174.894 0C175.532 0 176.121 0.0916667 176.661 0.275C177.212 0.448148 177.671 0.672223 178.039 0.947223C178.406 1.22222 178.73 1.54306 179.011 1.90972C179.292 2.2662 179.508 2.60741 179.659 2.93333C179.811 3.25926 179.924 3.58009 180 3.89583H177.812C177.596 3.3662 177.244 2.90278 176.758 2.50556C176.283 2.10833 175.661 1.90972 174.894 1.90972C173.9 1.90972 173.084 2.24074 172.446 2.90278C171.809 3.55463 171.49 4.42037 171.49 5.5C171.49 6.57963 171.809 7.45046 172.446 8.1125C173.084 8.76435 173.9 9.09028 174.894 9.09028C175.672 9.09028 176.299 8.88658 176.774 8.47917C177.261 8.07176 177.606 7.58796 177.812 7.02778Z" fill="#009CCE"/>
<path d="M14.8361 0H21.4815V9.45035H14.8361V0Z" fill="#009CCE"/>
<path d="M14.7743 33V20.4249H0V15.0901H32.0677C34.7563 15.0901 36.9358 12.9404 36.9358 10.2887C36.9358 7.63695 34.7563 5.4873 32.0677 5.4873H31.8721C31.7162 5.48531 31.5497 5.48591 31.3678 5.48658C31.2709 5.48693 31.1696 5.4873 31.0632 5.4873H26.736V0.0762125H31.8501C35.0304 0.0762125 37.6686 0.97613 39.7646 2.77596C41.8969 4.54723 42.963 6.8613 42.963 9.71818C42.963 12.5751 42.0814 14.9097 39.9957 16.9039C38.1329 18.6852 37.271 19.0988 34.4322 20.1963L42.7926 33H35.5905L27.7559 20.5621H21.4506V33H14.7743Z" fill="#009CCE"/>
</svg>
