<svg width="12" height="20" viewBox="0 0 12 20" fill="none" xmlns="http://www.w3.org/2000/svg">
<path fill-rule="evenodd" clip-rule="evenodd" d="M11.362 5.16855C11.362 8.01586 8.96463 10.3371 6.02373 10.3371C3.05102 10.3371 0.65362 8.01586 0.65362 5.16855C0.65362 2.32121 3.05102 0 6.02373 0C8.96463 0 11.362 2.32121 11.362 5.16855ZM8.2294 5.16855C8.2294 3.99248 7.23843 3.03304 6.02373 3.03304C4.77715 3.03304 3.78617 3.99248 3.81819 5.16855C3.81819 6.34463 4.80917 7.304 6.02373 7.304C7.23843 7.304 8.2294 6.34463 8.2294 5.16855Z" fill="black"/>
<path d="M11.2671 13.3382C10.3082 13.9261 9.25332 14.3285 8.16656 14.5761L11.2032 17.4234C11.8105 18.0116 11.8105 18.9709 11.2032 19.559C10.596 20.147 9.60499 20.147 8.99771 19.559L6.05681 16.7116L3.11605 19.559C2.79638 19.8375 2.4128 19.9922 1.99726 19.9922C1.58171 19.9922 1.19813 19.8685 0.878477 19.559C0.271126 18.9709 0.271126 18.0116 0.878477 17.4234L3.85127 14.5451C2.76442 14.2975 1.70957 13.8953 0.750617 13.3072C0.0154054 12.8739 -0.20835 11.9455 0.207197 11.2336C0.686688 10.5217 1.64564 10.3361 2.38084 10.7694C4.55448 12.1002 7.39931 12.1002 9.57297 10.7694C10.3082 10.3051 11.2992 10.5217 11.7466 11.2336C12.2261 11.9455 12.0024 12.9048 11.2671 13.3382Z" fill="black"/>
</svg>
