<svg width="24" height="24" viewBox="0 0 24 24" fill="none" xmlns="http://www.w3.org/2000/svg">
<path d="M21.8415 17.9404L18.8332 12.655C19.4488 11.5048 19.7695 10.2152 19.7656 8.90554C19.7656 6.80886 18.947 4.79805 17.4897 3.31548C16.0324 1.8329 14.056 1 11.9951 1C9.93423 1 7.95776 1.8329 6.5005 3.31548C5.04325 4.79805 4.22457 6.80886 4.22457 8.90554C4.22075 10.2152 4.54144 11.5048 5.15703 12.655L2.14873 17.9404C2.05111 18.1125 1.99981 18.3076 2 18.5062C2.00019 18.7049 2.05187 18.8999 2.14983 19.0717C2.24778 19.2436 2.38854 19.3861 2.55791 19.4849C2.72728 19.5837 2.91926 19.6353 3.11449 19.6345H6.30041L7.92112 22.4127C7.97576 22.5048 8.04304 22.5885 8.12093 22.6612C8.32672 22.863 8.60108 22.9762 8.88689 22.9774H9.0423C9.20989 22.9541 9.37002 22.8921 9.51046 22.7962C9.6509 22.7003 9.76795 22.573 9.85265 22.424L11.9951 18.6745L14.1375 22.4579C14.2235 22.6047 14.3411 22.7298 14.4815 22.8237C14.6218 22.9176 14.7813 22.9779 14.9479 23H15.1033C15.393 23.0018 15.6718 22.8883 15.8804 22.6838C15.955 22.6152 16.0187 22.5352 16.0691 22.4466L17.6898 19.6684H20.8757C21.0713 19.6692 21.2636 19.6173 21.4332 19.5182C21.6028 19.419 21.7437 19.276 21.8415 19.1037C21.9452 18.928 22 18.727 22 18.5221C22 18.3171 21.9452 18.1161 21.8415 17.9404V17.9404ZM8.87579 19.6684L7.88782 17.9856C7.79054 17.8187 7.6526 17.68 7.48733 17.5831C7.32205 17.4862 7.13501 17.4342 6.94425 17.4322H5.02382L6.61123 14.6314C7.70435 15.703 9.08206 16.4254 10.5742 16.7094L8.87579 19.6684ZM11.9951 14.5523C10.8973 14.5523 9.82423 14.2212 8.91147 13.6007C7.99872 12.9802 7.28731 12.0983 6.86722 11.0665C6.44712 10.0347 6.33721 8.89927 6.55137 7.8039C6.76553 6.70852 7.29415 5.70236 8.07039 4.91264C8.84662 4.12292 9.83561 3.58511 10.9123 3.36723C11.9889 3.14934 13.1049 3.26117 14.1191 3.68856C15.1333 4.11596 16.0002 4.83972 16.6101 5.76834C17.22 6.69695 17.5455 7.7887 17.5455 8.90554C17.5455 10.4032 16.9607 11.8395 15.9198 12.8984C14.8789 13.9574 13.4672 14.5523 11.9951 14.5523V14.5523ZM17.0459 17.4322C16.8552 17.4342 16.6681 17.4862 16.5029 17.5831C16.3376 17.68 16.1997 17.8187 16.1024 17.9856L15.1144 19.6684L13.4271 16.6756C14.914 16.3858 16.2866 15.664 17.379 14.5975L18.9664 17.3983L17.0459 17.4322Z" fill="url(#paint0_linear_199_5514)"/>
<defs>
<linearGradient id="paint0_linear_199_5514" x1="12" y1="1" x2="12" y2="23" gradientUnits="userSpaceOnUse">
<stop stop-color="#009CCE"/>
<stop offset="0.556896" stop-color="#1BD9B6"/>
<stop offset="1" stop-color="#9BEFB3"/>
</linearGradient>
</defs>
</svg>
