<svg width="24" height="24" viewBox="0 0 24 24" fill="none" xmlns="http://www.w3.org/2000/svg">
<path d="M21.9665 9.56167C21.9034 9.37048 21.7887 9.20254 21.6362 9.07823C21.4838 8.95392 21.3002 8.87858 21.1076 8.86133L15.4254 7.99375L12.8788 2.58965C12.797 2.41293 12.6694 2.26388 12.5104 2.1596C12.3515 2.05531 12.1676 2 11.98 2C11.7924 2 11.6086 2.05531 11.4497 2.1596C11.2907 2.26388 11.163 2.41293 11.0813 2.58965L8.53474 7.9833L2.85247 8.86133C2.66764 8.88883 2.49388 8.97 2.3509 9.09564C2.20792 9.22128 2.10145 9.38635 2.04357 9.57212C1.99059 9.75366 1.98583 9.94688 2.02982 10.131C2.0738 10.3152 2.16486 10.4833 2.29323 10.6174L6.41762 14.7985L5.41898 20.7357C5.37866 20.9327 5.39356 21.1376 5.4619 21.3259C5.53024 21.5142 5.6491 21.6778 5.80418 21.7971C5.95926 21.9164 6.14396 21.9862 6.33606 21.9981C6.52815 22.0101 6.71947 21.9638 6.88698 21.8646L11.98 19.0737L17.0731 21.8646C17.2133 21.9474 17.3716 21.9906 17.5325 21.9901C17.744 21.9908 17.9503 21.9213 18.1217 21.7915C18.2766 21.6753 18.3966 21.5151 18.4673 21.3299C18.5381 21.1447 18.5568 20.9421 18.5211 20.7462L17.5225 14.809L21.6469 10.6279C21.7911 10.5 21.8976 10.3319 21.9542 10.1432C22.0108 9.95448 22.015 9.75283 21.9665 9.56167ZM15.8248 13.7428C15.7092 13.8603 15.6225 14.0053 15.5721 14.1655C15.5217 14.3257 15.509 14.4962 15.5352 14.6626L16.2542 19.0528L12.4993 16.9623C12.3534 16.8867 12.1928 16.8474 12.03 16.8474C11.8672 16.8474 11.7065 16.8867 11.5606 16.9623L7.80573 19.0528L8.52475 14.6626C8.55095 14.4962 8.5383 14.3257 8.48787 14.1655C8.43744 14.0053 8.35073 13.8603 8.23514 13.7428L5.23922 10.607L9.4435 9.96933C9.60528 9.94578 9.75907 9.88105 9.89139 9.78082C10.0237 9.68059 10.1305 9.54791 10.2025 9.39443L11.98 5.41191L13.8575 9.40488C13.9294 9.55837 14.0362 9.69104 14.1686 9.79127C14.3009 9.8915 14.4547 9.95623 14.6165 9.97978L18.8207 10.6174L15.8248 13.7428Z" fill="url(#paint0_linear_199_5523)"/>
<defs>
<linearGradient id="paint0_linear_199_5523" x1="12" y1="2" x2="12" y2="22" gradientUnits="userSpaceOnUse">
<stop stop-color="#009CCE"/>
<stop offset="0.556896" stop-color="#1BD9B6"/>
<stop offset="1" stop-color="#9BEFB3"/>
</linearGradient>
</defs>
</svg>
