<svg width="365" height="512" viewBox="0 0 365 512" fill="none" xmlns="http://www.w3.org/2000/svg">
<path d="M50.0807 499.721L21.1424 482.618C19.0076 481.377 17.6839 478.739 17.6733 474.99L46.6115 492.093C46.6221 495.842 47.9459 498.48 50.0807 499.721Z" fill="#C4C2C0"/>
<path d="M46.6115 492.094L17.6733 474.99L17.064 216.814L46.0022 233.917L46.6115 492.094Z" fill="#D6D4D2"/>
<path d="M46.6115 492.093L17.6733 474.99L17.064 271.101L46.0022 288.204L46.6115 492.093Z" fill="#C4C2C0"/>
<path d="M46.6115 492.093L17.6733 474.99L17.064 379.676L46.0022 396.779L46.6115 492.093Z" fill="#D6D4D2"/>
<path d="M348.037 59.5374L348.646 317.714C348.667 325.259 343.361 334.451 336.793 338.243L58.54 498.893C51.9736 502.684 46.6329 499.639 46.6115 492.093L46.0022 233.917L348.037 59.5374Z" fill="#E9E8E6"/>
<path d="M55.552 239.408L338.543 76.024L339.111 317.735C339.125 321.85 335.615 327.916 332.026 329.992L56.2131 489.228L55.552 239.408Z" fill="white"/>
<path d="M28.8525 173.759C22.2842 177.548 16.9774 186.739 17.0001 194.283L17.0624 216.811L46.0032 233.915L45.9381 211.388C45.9183 203.844 51.2216 194.652 57.7899 190.86L89.9051 172.318L60.9696 155.216L28.8525 173.759Z" fill="#1BD9B6"/>
<path d="M60.9696 155.216L89.9051 172.318L160.556 131.528L131.62 114.424L60.9696 155.216Z" fill="#17AA8F"/>
<path d="M315.151 42.2729L286.213 25.168L204.293 72.4653L233.231 89.5696L315.151 42.2729Z" fill="#17AA8F"/>
<path d="M204.293 72.4653L131.62 114.424L160.556 131.528L233.231 89.5697L204.293 72.4653Z" fill="#1BD9B6"/>
<path d="M336.044 30.2105C339.348 28.3019 342.343 28.1261 344.504 29.3824L315.566 12.2787C313.405 11.0218 310.41 11.201 307.103 13.1067L286.213 25.168L315.151 42.2729L336.044 30.2105Z" fill="#1BD9B6"/>
<path d="M336.043 30.2114C342.611 26.4194 347.951 29.4628 347.973 37.0081L348.037 59.5355L46.0022 233.915L45.9383 211.388C45.9169 203.843 51.2229 194.652 57.7893 190.861L336.043 30.2114Z" fill="#3FE3C5"/>
<path d="M64.5458 199.144C68.1784 197.047 71.1734 198.697 71.1854 202.928C71.1974 207.159 68.2217 212.313 64.5891 214.411C60.9069 216.537 57.8618 214.858 57.8498 210.627C57.8378 206.396 60.8637 201.27 64.5458 199.144Z" fill="white"/>
<path d="M86.3911 186.532C90.0731 184.406 93.0681 186.056 93.0801 190.287C93.0921 194.518 90.1161 199.673 86.4341 201.799C82.7516 203.925 79.7562 202.218 79.7442 197.987C79.7322 193.755 82.7083 188.658 86.3911 186.532Z" fill="white"/>
<path d="M108.285 173.891C111.967 171.766 114.962 173.415 114.974 177.646C114.986 181.878 112.01 187.032 108.328 189.158C104.646 191.284 101.651 189.577 101.639 185.346C101.627 181.114 104.603 176.017 108.285 173.891Z" fill="white"/>
<path d="M111.263 427.633L92.0581 416.391C89.3401 414.811 88.5221 410.129 90.9871 404.494L110.193 415.736C107.727 421.371 108.546 426.053 111.263 427.633Z" fill="#FFD651"/>
<path d="M193.366 191.099L212.571 202.341C210.898 201.369 208.678 201.682 206.463 202.96L187.258 191.718C189.473 190.44 191.693 190.127 193.366 191.099Z" fill="#FFD651"/>
<path d="M110.193 415.736L90.9871 404.494L180.162 200.168L199.368 211.41L110.193 415.736Z" fill="#DDB040"/>
<path d="M110.193 415.736L90.9871 404.494L149.784 269.773L168.99 281.015L110.193 415.736Z" fill="#CEA03A"/>
<path d="M110.193 415.736L90.9871 404.494L119.406 339.379L138.611 350.621L110.193 415.736Z" fill="#DDB040"/>
<path d="M199.368 211.41L180.162 200.168C181.845 196.294 184.547 193.283 187.258 191.718L206.463 202.96C203.753 204.525 201.05 207.537 199.368 211.41Z" fill="#FFD651"/>
<path d="M206.463 202.96C209.173 201.396 211.891 201.277 213.605 203.19L303.645 304.046C307.52 308.364 303.452 319.555 296.57 323.528L117.325 427.015C110.474 430.971 106.355 424.506 110.193 415.736L199.368 211.41C201.05 207.536 203.753 204.525 206.463 202.96Z" fill="#EFC348"/>
<path d="M215.138 349.154C219.621 341.43 219.627 333.063 215.152 330.466C210.676 327.869 203.415 332.025 198.932 339.749C194.45 347.473 194.444 355.84 198.919 358.437C203.394 361.034 210.656 356.878 215.138 349.154Z" fill="white"/>
<path d="M218.012 230.117L218.134 273.291L214.832 316.568L199.081 325.662L195.513 286.352L195.391 243.177L218.012 230.117Z" fill="white"/>
</svg>
