<svg width="512" height="512" viewBox="0 0 512 512" fill="none" xmlns="http://www.w3.org/2000/svg">
<path d="M66.2916 499.721L37.3533 482.618C35.2185 481.377 33.8948 478.739 33.8842 474.99L62.8224 492.093C62.833 495.842 64.1568 498.48 66.2916 499.721Z" fill="#C4C2C0"/>
<path d="M62.8224 492.094L33.8842 474.99L33.2749 216.814L62.2131 233.917L62.8224 492.094Z" fill="#D6D4D2"/>
<path d="M62.8224 492.093L33.8842 474.99L33.2749 271.101L62.2131 288.204L62.8224 492.093Z" fill="#C4C2C0"/>
<path d="M62.8224 492.093L33.8842 474.99L33.2749 379.676L62.2131 396.779L62.8224 492.093Z" fill="#D6D4D2"/>
<path d="M364.248 59.5374L364.857 317.714C364.878 325.259 359.572 334.451 353.004 338.243L74.7509 498.893C68.1845 502.684 62.8438 499.639 62.8224 492.093L62.2131 233.917L364.248 59.5374Z" fill="#E9E8E6"/>
<path d="M71.7629 239.408L354.754 76.024L355.322 317.735C355.336 321.85 351.826 327.916 348.237 329.992L72.424 489.228L71.7629 239.408Z" fill="white"/>
<path d="M45.0634 173.759C38.4951 177.548 33.1883 186.739 33.211 194.283L33.2733 216.811L62.2141 233.915L62.149 211.388C62.1292 203.844 67.4325 194.652 74.0008 190.86L106.116 172.318L77.1805 155.216L45.0634 173.759Z" fill="#1BD9B6"/>
<path d="M77.1805 155.216L106.116 172.318L176.767 131.528L147.831 114.424L77.1805 155.216Z" fill="#17AA8F"/>
<path d="M331.362 42.2729L302.424 25.168L220.504 72.4653L249.442 89.5696L331.362 42.2729Z" fill="#17AA8F"/>
<path d="M220.504 72.4653L147.831 114.424L176.767 131.528L249.442 89.5697L220.504 72.4653Z" fill="#1BD9B6"/>
<path d="M352.255 30.2105C355.559 28.3019 358.554 28.1261 360.715 29.3824L331.777 12.2787C329.616 11.0218 326.621 11.201 323.314 13.1067L302.424 25.168L331.362 42.2729L352.255 30.2105Z" fill="#1BD9B6"/>
<path d="M352.254 30.2114C358.822 26.4194 364.162 29.4628 364.184 37.0081L364.248 59.5355L62.2131 233.915L62.1492 211.388C62.1278 203.843 67.4338 194.652 74.0002 190.861L352.254 30.2114Z" fill="#3FE3C5"/>
<path d="M80.7567 199.144C84.3893 197.047 87.3843 198.697 87.3963 202.928C87.4083 207.159 84.4326 212.313 80.8 214.411C77.1178 216.537 74.0727 214.858 74.0607 210.627C74.0487 206.396 77.0746 201.27 80.7567 199.144Z" fill="white"/>
<path d="M102.602 186.532C106.284 184.406 109.279 186.056 109.291 190.287C109.303 194.518 106.327 199.673 102.645 201.799C98.9625 203.925 95.9671 202.218 95.9551 197.987C95.9431 193.755 98.9192 188.658 102.602 186.532Z" fill="white"/>
<path d="M124.496 173.891C128.178 171.766 131.173 173.415 131.185 177.646C131.197 181.878 128.221 187.032 124.539 189.158C120.857 191.284 117.862 189.577 117.85 185.346C117.838 181.114 120.814 176.017 124.496 173.891V173.891Z" fill="white"/>
<path d="M127.474 427.633L108.269 416.391C105.551 414.811 104.733 410.129 107.198 404.494L126.404 415.736C123.938 421.371 124.757 426.053 127.474 427.633Z" fill="#FFD651"/>
<path d="M209.577 191.099L228.782 202.341C227.109 201.369 224.889 201.682 222.674 202.96L203.469 191.718C205.684 190.44 207.904 190.127 209.577 191.099Z" fill="#FFD651"/>
<path d="M126.404 415.736L107.198 404.494L196.373 200.168L215.579 211.41L126.404 415.736Z" fill="#DDB040"/>
<path d="M126.404 415.736L107.198 404.494L165.995 269.773L185.201 281.015L126.404 415.736Z" fill="#CEA03A"/>
<path d="M126.404 415.736L107.198 404.494L135.617 339.379L154.822 350.621L126.404 415.736Z" fill="#DDB040"/>
<path d="M215.579 211.41L196.373 200.168C198.056 196.294 200.758 193.283 203.469 191.718L222.674 202.96C219.964 204.525 217.261 207.537 215.579 211.41V211.41Z" fill="#FFD651"/>
<path d="M222.674 202.96C225.384 201.396 228.102 201.277 229.816 203.19L319.856 304.046C323.731 308.364 319.663 319.555 312.781 323.528L133.536 427.015C126.685 430.971 122.566 424.506 126.404 415.736L215.579 211.41C217.261 207.536 219.964 204.525 222.674 202.96V202.96Z" fill="#EFC348"/>
<path d="M231.349 349.154C235.832 341.43 235.838 333.063 231.363 330.466C226.887 327.869 219.626 332.025 215.143 339.749C210.661 347.473 210.655 355.84 215.13 358.437C219.605 361.034 226.867 356.878 231.349 349.154Z" fill="white"/>
<path d="M234.223 230.117L234.345 273.291L231.043 316.568L215.292 325.662L211.724 286.352L211.602 243.177L234.223 230.117Z" fill="white"/>
<path d="M462.182 36.663L476.312 44.8748C474.924 44.0682 473 44.183 470.882 45.4056L456.752 37.1939C458.869 35.9714 460.794 35.8565 462.182 36.663Z" fill="#009CCE"/>
<path d="M354.81 258.128L340.679 249.917L340.582 215.682L354.713 223.894L354.81 258.128Z" fill="#009CCE"/>
<path d="M338.218 230.835L324.088 222.624C322.722 221.83 321.876 220.136 321.869 217.72L335.999 225.932C336.006 228.348 336.852 230.042 338.218 230.835Z" fill="#20B3E1"/>
<path d="M335.999 225.932L321.869 217.72L321.603 123.951L335.733 132.163L335.999 225.932Z" fill="#057FA6"/>
<path d="M343.293 119.069L329.162 110.858L456.752 37.194L470.882 45.4057L343.293 119.069Z" fill="#059DCE"/>
<path d="M343.293 119.069L329.162 110.858L419.998 58.4135L434.129 66.6251L343.293 119.069Z" fill="#009CCE"/>
<path d="M343.293 119.069L329.162 110.858L383.245 79.633L397.376 87.8447L343.293 119.069Z" fill="#059DCE"/>
<path d="M335.733 132.163L321.603 123.951C321.589 119.134 324.97 113.278 329.162 110.858L343.293 119.069C339.101 121.49 335.72 127.346 335.733 132.163Z" fill="#0987B0"/>
<path d="M470.882 45.4056C475.074 42.9853 478.51 44.9062 478.523 49.7233L478.789 143.492C478.803 148.346 475.39 154.221 471.198 156.641L384.474 206.711L354.81 258.128L354.713 223.894L343.608 230.305C339.416 232.725 336.013 230.786 335.999 225.932L335.733 132.163C335.72 127.346 339.101 121.49 343.293 119.069L470.882 45.4056Z" fill="#20B3E1"/>
<path d="M462.466 115.689L458.014 113.101L464.763 109.205L469.215 111.792L462.466 115.689Z" fill="#B2B0AF"/>
<path d="M453.163 140.091L448.711 137.504L448.683 127.494L453.135 130.081L453.163 140.091Z" fill="#B2B0AF"/>
<path d="M453.38 112.022L448.928 109.435L457.989 104.204L462.441 106.791L453.38 112.022Z" fill="#B2B0AF"/>
<path d="M453.405 120.92L448.953 118.333L448.928 109.435L453.38 112.022L453.405 120.92Z" fill="#B2B0AF"/>
<path d="M442.274 127.347L437.822 124.759L448.953 118.333L453.405 120.92L442.274 127.347Z" fill="#B2B0AF"/>
<path d="M430.792 142.981L426.34 140.394L426.319 132.979L430.771 135.566L430.792 142.981Z" fill="#B2B0AF"/>
<path d="M460.315 88.2443L442.274 127.347L453.405 120.92L453.38 112.022L462.441 106.791L462.466 115.689L469.215 111.792L469.24 120.783L462.492 124.679L462.52 134.689L453.164 140.091L453.135 130.081L430.792 142.981L430.771 135.566L450.232 94.0654L460.315 88.2443Z" fill="white"/>
<path d="M430.771 135.566L426.319 132.979L445.78 91.4782L450.232 94.0654L430.771 135.566Z" fill="#B2B0AF"/>
<path d="M450.232 94.0655L445.78 91.4782L455.863 85.657L460.315 88.2443L450.232 94.0655Z" fill="#B2B0AF"/>
<path d="M403.993 157.715L399.541 155.127C400.834 155.879 402.447 155.705 404.378 154.59C406.905 153.131 408.891 150.716 410.309 147.39L414.761 149.977C413.343 153.303 411.357 155.718 408.83 157.177C406.899 158.292 405.287 158.467 403.993 157.715Z" fill="#B2B0AF"/>
<path d="M409.209 123.367L413.661 125.954C414.033 126.171 414.378 126.465 414.696 126.837C416.154 128.501 416.891 131.944 416.906 137.165C416.921 142.387 416.206 146.668 414.761 149.977L410.309 147.39C411.754 144.081 412.469 139.799 412.454 134.578C412.439 129.357 411.702 125.914 410.244 124.25C409.926 123.878 409.581 123.584 409.209 123.367Z" fill="#B2B0AF"/>
<path d="M396.896 167.919L392.444 165.332C391.029 164.51 389.836 163.21 388.885 161.431C387.342 158.639 386.577 154.656 386.562 149.527C386.547 144.399 387.288 139.546 388.81 134.953C390.305 130.377 392.421 126.339 395.077 122.856C397.761 119.357 400.823 116.599 404.264 114.612C407.706 112.625 410.774 111.844 413.441 112.254C414.469 112.404 415.415 112.728 416.276 113.228L420.728 115.815C419.867 115.315 418.921 114.991 417.893 114.841C415.226 114.431 412.158 115.212 408.716 117.199C405.275 119.186 402.213 121.944 399.529 125.443C396.873 128.926 394.757 132.964 393.262 137.541C391.74 142.133 390.999 146.986 391.014 152.114C391.029 157.243 391.794 161.226 393.337 164.018C394.288 165.798 395.481 167.097 396.896 167.919V167.919Z" fill="#B2B0AF"/>
<path d="M424.236 119.658C425.779 122.481 426.544 126.464 426.559 131.593C426.573 136.721 425.833 141.574 424.311 146.135C422.815 150.712 420.699 154.781 418.016 158.279C415.36 161.763 412.298 164.49 408.856 166.477C405.415 168.464 402.347 169.276 399.652 168.882C396.985 168.472 394.853 166.856 393.337 164.018C391.794 161.226 391.029 157.243 391.014 152.114C390.999 146.986 391.74 142.133 393.262 137.541C394.757 132.964 396.873 128.926 399.529 125.443C402.213 121.944 405.275 119.186 408.716 117.199C412.158 115.212 415.226 114.431 417.893 114.841C420.587 115.235 422.719 116.82 424.236 119.658V119.658ZM414.761 149.977C416.206 146.668 416.921 142.387 416.906 137.165C416.891 131.944 416.154 128.501 414.695 126.837C413.263 125.157 411.27 125.07 408.743 126.529C406.242 127.973 404.283 130.342 402.865 133.667C401.42 137.008 400.705 141.289 400.72 146.51C400.735 151.732 401.472 155.174 402.931 156.808C404.363 158.488 406.329 158.621 408.83 157.177C411.357 155.718 413.343 153.303 414.761 149.977" fill="white"/>
<path d="M381.429 162.476L376.977 159.888L383.726 155.992L388.178 158.579L381.429 162.476Z" fill="#B2B0AF"/>
<path d="M372.126 186.878L367.674 184.291L367.646 174.281L372.098 176.868L372.126 186.878Z" fill="#B2B0AF"/>
<path d="M372.343 158.809L367.891 156.222L376.952 150.99L381.404 153.578L372.343 158.809Z" fill="#B2B0AF"/>
<path d="M372.368 167.707L367.916 165.12L367.891 156.222L372.343 158.809L372.368 167.707Z" fill="#B2B0AF"/>
<path d="M361.237 174.133L356.785 171.546L367.916 165.12L372.368 167.707L361.237 174.133Z" fill="#B2B0AF"/>
<path d="M349.755 189.768L345.303 187.181L345.282 179.766L349.734 182.353L349.755 189.768Z" fill="#B2B0AF"/>
<path d="M379.278 135.031L361.237 174.133L372.368 167.707L372.343 158.809L381.404 153.578L381.429 162.476L388.178 158.579L388.203 167.57L381.455 171.466L381.483 181.476L372.126 186.878L372.098 176.868L349.755 189.768L349.734 182.353L369.222 140.837L379.278 135.031Z" fill="white"/>
<path d="M349.734 182.353L345.282 179.766L364.77 138.25L369.222 140.837L349.734 182.353Z" fill="#B2B0AF"/>
<path d="M369.222 140.837L364.77 138.25L374.826 132.444L379.278 135.031L369.222 140.837Z" fill="#B2B0AF"/>
</svg>
