<svg width="60" height="60" viewBox="0 0 60 60" fill="none" xmlns="http://www.w3.org/2000/svg">
<path d="M51.1499 24.075C50.7989 20.4223 49.508 16.9227 47.4029 13.917C45.2978 10.9114 42.4502 8.50206 39.1374 6.92371C35.8247 5.34537 32.1596 4.65178 28.4992 4.91049C24.8388 5.16919 21.3078 6.37138 18.2499 8.39998C15.6229 10.1566 13.4176 12.4732 11.7923 15.1835C10.167 17.8937 9.16218 20.9302 8.84995 24.075C8.54365 27.1991 8.93663 30.3523 10.0004 33.3057C11.0641 36.2591 12.7719 38.9386 14.9999 41.15L28.2499 54.425C28.4824 54.6593 28.7589 54.8453 29.0635 54.9722C29.3682 55.0991 29.6949 55.1645 30.0249 55.1645C30.355 55.1645 30.6817 55.0991 30.9864 54.9722C31.291 54.8453 31.5675 54.6593 31.7999 54.425L44.9999 41.15C47.228 38.9386 48.9358 36.2591 49.9995 33.3057C51.0633 30.3523 51.4562 27.1991 51.1499 24.075V24.075ZM41.4999 37.625L29.9999 49.125L18.4999 37.625C16.8052 35.9301 15.507 33.8808 14.6986 31.6244C13.8903 29.368 13.5919 26.9605 13.8249 24.575C14.0595 22.1527 14.8294 19.8129 16.0789 17.7246C17.3284 15.6363 19.0263 13.8517 21.0499 12.5C23.7023 10.7381 26.8157 9.79822 29.9999 9.79822C33.1842 9.79822 36.2976 10.7381 38.9499 12.5C40.9674 13.8465 42.6616 15.6232 43.9108 17.7023C45.16 19.7815 45.9333 22.1115 46.1749 24.525C46.4156 26.9185 46.121 29.3357 45.3124 31.6013C44.5039 33.867 43.2016 35.9246 41.4999 37.625V37.625ZM29.9999 15C27.7749 15 25.5998 15.6598 23.7498 16.8959C21.8997 18.1321 20.4578 19.8891 19.6063 21.9448C18.7548 24.0005 18.532 26.2625 18.9661 28.4447C19.4002 30.627 20.4717 32.6316 22.045 34.2049C23.6183 35.7783 25.6229 36.8497 27.8052 37.2838C29.9875 37.7179 32.2495 37.4951 34.3051 36.6436C36.3608 35.7921 38.1178 34.3502 39.354 32.5001C40.5901 30.6501 41.2499 28.475 41.2499 26.25C41.2433 23.2683 40.056 20.4107 37.9476 18.3023C35.8392 16.194 32.9816 15.0066 29.9999 15V15ZM29.9999 32.5C28.7638 32.5 27.5554 32.1334 26.5276 31.4467C25.4998 30.7599 24.6987 29.7838 24.2257 28.6418C23.7527 27.4997 23.6289 26.243 23.87 25.0307C24.1112 23.8183 24.7065 22.7046 25.5805 21.8306C26.4546 20.9565 27.5682 20.3612 28.7806 20.1201C29.993 19.8789 31.2497 20.0027 32.3917 20.4757C33.5338 20.9488 34.5099 21.7499 35.1966 22.7777C35.8834 23.8055 36.2499 25.0138 36.2499 26.25C36.2499 27.9076 35.5915 29.4973 34.4194 30.6694C33.2473 31.8415 31.6575 32.5 29.9999 32.5V32.5Z" fill="#1BD9B6"/>
</svg>
