<svg width="60" height="60" viewBox="0 0 60 60" fill="none" xmlns="http://www.w3.org/2000/svg">
<path d="M48.5252 32.5C47.9752 32.5 47.4002 32.325 46.8502 32.2C45.7373 31.9511 44.643 31.6254 43.5752 31.225C42.4154 30.8031 41.1406 30.825 39.996 31.2865C38.8514 31.748 37.9179 32.6166 37.3752 33.725L36.8252 34.875C34.3972 33.498 32.1543 31.8179 30.1502 29.875C28.2073 27.8709 26.5272 25.6279 25.1502 23.2L26.3002 22.675C27.4086 22.1323 28.2771 21.1988 28.7387 20.0542C29.2002 18.9096 29.2221 17.6348 28.8002 16.475C28.4032 15.3976 28.0775 14.2952 27.8252 13.175C27.7002 12.625 27.6002 12.05 27.5252 11.5C27.2216 9.73905 26.2992 8.14435 24.9242 7.0031C23.5492 5.86184 21.8119 5.24902 20.0252 5.275H12.5002C11.4433 5.27362 10.3981 5.49562 9.43298 5.92646C8.4679 6.3573 7.60477 6.98724 6.90019 7.775C6.18099 8.58413 5.64547 9.53938 5.33044 10.5751C5.01541 11.6108 4.92833 12.7024 5.07519 13.775C6.43415 24.1803 11.1882 33.8466 18.6002 41.275C26.0286 48.687 35.6948 53.441 46.1002 54.8C46.4247 54.8248 46.7507 54.8248 47.0752 54.8C48.9187 54.8027 50.6987 54.1263 52.0752 52.9C52.8629 52.1954 53.4929 51.3323 53.9237 50.3672C54.3546 49.4021 54.5766 48.3569 54.5752 47.3V39.8C54.5617 38.0726 53.9523 36.4028 52.85 35.0727C51.7477 33.7427 50.2201 32.8339 48.5252 32.5ZM49.7502 47.5C49.7494 47.8489 49.6755 48.1937 49.5334 48.5123C49.3914 48.8309 49.1842 49.1163 48.9252 49.35C48.6512 49.5996 48.3251 49.7852 47.9706 49.8933C47.616 50.0014 47.2418 50.0293 46.8752 49.975C37.5459 48.7566 28.8758 44.505 22.2002 37.875C15.5189 31.1937 11.2303 22.4934 10.0002 13.125C9.94588 12.7583 9.97378 12.3842 10.0819 12.0296C10.19 11.6751 10.3756 11.349 10.6252 11.075C10.8617 10.8129 11.1511 10.6038 11.4743 10.4616C11.7975 10.3194 12.1471 10.2473 12.5002 10.25H20.0002C20.5781 10.2359 21.143 10.4225 21.5988 10.778C22.0547 11.1335 22.3732 11.636 22.5002 12.2C22.5002 12.875 22.7252 13.575 22.8752 14.25C23.1641 15.5597 23.5485 16.8464 24.0252 18.1L20.5252 19.75C19.9236 20.0262 19.4561 20.5296 19.2252 21.15C18.9751 21.7587 18.9751 22.4413 19.2252 23.05C22.8232 30.7569 29.0183 36.952 36.7252 40.55C37.3338 40.8 38.0165 40.8 38.6252 40.55C39.2456 40.3191 39.749 39.8516 40.0252 39.25L41.6002 35.75C42.89 36.2203 44.2095 36.6045 45.5502 36.9C46.2002 37.05 46.9002 37.175 47.5752 37.275C48.1391 37.402 48.6417 37.7205 48.9972 38.1763C49.3527 38.6322 49.5393 39.1971 49.5252 39.775L49.7502 47.5ZM35.0002 5C34.4252 5 33.8252 5 33.2502 5C32.5871 5.05636 31.9736 5.3738 31.5447 5.88249C31.1157 6.39119 30.9063 7.04946 30.9627 7.7125C31.019 8.37554 31.3365 8.98904 31.8452 9.41803C32.3539 9.84702 33.0121 10.0564 33.6752 10H35.0002C38.9784 10 42.7937 11.5804 45.6068 14.3934C48.4198 17.2064 50.0002 21.0218 50.0002 25C50.0002 25.45 50.0002 25.875 50.0002 26.325C49.9448 26.9845 50.1531 27.6391 50.5796 28.1453C51.0061 28.6514 51.6158 28.9678 52.2752 29.025H52.4752C53.101 29.0275 53.7051 28.7953 54.1679 28.374C54.6308 27.9528 54.9189 27.3733 54.9752 26.75C54.9752 26.175 54.9752 25.575 54.9752 25C54.9752 19.7 52.8715 14.6167 49.1262 10.8667C45.3808 7.11669 40.3002 5.00663 35.0002 5V5ZM40.0002 25C40.0002 25.663 40.2636 26.2989 40.7324 26.7678C41.2013 27.2366 41.8371 27.5 42.5002 27.5C43.1632 27.5 43.7991 27.2366 44.268 26.7678C44.7368 26.2989 45.0002 25.663 45.0002 25C45.0002 22.3478 43.9466 19.8043 42.0713 17.9289C40.1959 16.0536 37.6524 15 35.0002 15C34.3371 15 33.7013 15.2634 33.2324 15.7322C32.7636 16.2011 32.5002 16.837 32.5002 17.5C32.5002 18.163 32.7636 18.7989 33.2324 19.2678C33.7013 19.7366 34.3371 20 35.0002 20C36.3263 20 37.598 20.5268 38.5357 21.4645C39.4734 22.4021 40.0002 23.6739 40.0002 25Z" fill="#1BD9B6"/>
</svg>
