<svg width="75" height="84" viewBox="0 0 75 84" fill="none" xmlns="http://www.w3.org/2000/svg">
<path fill-rule="evenodd" clip-rule="evenodd" d="M4.57617 18.7031C4.57617 18.5555 4.59258 18.4078 4.62539 18.2602C4.83867 17.2594 5.72461 16.4883 6.79102 16.4883H31.7449C32.9754 16.4883 33.9598 17.4891 33.9598 18.7031V41.4094C33.9598 42.6398 32.959 43.6242 31.7449 43.6242H6.79102C5.56055 43.6242 4.57617 42.6234 4.57617 41.4094V18.7031ZM31.4988 18.9656H7.05351V20.8852H31.4988V18.9656ZM7.05351 23.3461V36.7664H31.4988V23.3461H7.05351ZM31.4988 39.2273H7.05351V41.1469H31.4988V39.2273Z" fill="#1BD9B6"/>
<path fill-rule="evenodd" clip-rule="evenodd" d="M72.1219 27.4641V32.468C73.6805 32.5336 74.9109 33.8133 74.9437 35.3883V40.3922C74.9437 41.9508 73.7133 43.2469 72.1547 43.3125V47.25C72.1547 47.9227 71.5969 48.4805 70.9242 48.4805C70.2515 48.4805 69.6937 47.9391 69.6937 47.25V43.2797C68.2992 43.0664 67.2328 41.8523 67.2328 40.3922V35.3883C67.2328 33.9281 68.2992 32.7305 69.6937 32.5008V27.4477C69.6937 22.6406 65.789 18.7359 60.982 18.7359C56.175 18.7359 52.2703 22.6406 52.2703 27.4477V74.5172C52.2703 79.7508 48.0211 84 42.7875 84H27.382C22.2797 84 18.1125 79.9477 17.9156 74.8945C16.357 74.5172 15.1758 73.0898 15.1758 71.4V70.432H13.8469C12.6492 70.432 11.6648 69.4477 11.6648 68.25V65.0672C11.6648 64.0172 12.4195 63.1313 13.4203 62.9344V60.9492C8.89219 60.1453 5.26641 58.0617 2.93672 55.0266L2.8875 54.9773C2.85469 54.9363 2.82187 54.8912 2.78906 54.8461C2.75625 54.801 2.72344 54.7559 2.69062 54.7148C2.65781 54.6656 2.625 54.6205 2.59219 54.5754C2.55938 54.5303 2.52656 54.4852 2.49375 54.4359L2.39531 54.2883C2.29687 54.157 2.19844 54.0094 2.11641 53.8617C2.1082 53.8535 2.1041 53.8453 2.1 53.8371C2.0959 53.8289 2.0918 53.8207 2.08359 53.8125C1.11562 52.2375 0.475781 50.4656 0.180468 48.5133C0.164062 48.4805 0.164062 48.4312 0.164062 48.382C0.0492187 47.6273 0 46.8562 0 46.0687V15.0773C0 11.8453 1.06641 8.64609 3.01875 6.0375C3.19922 5.80781 3.37969 5.57812 3.57656 5.34844C6.41484 1.98516 10.6641 0 15.0937 0H23.4773C27.907 0 32.1398 1.98516 35.0437 5.34844C35.2406 5.57812 35.4211 5.80781 35.6016 6.0375C37.5375 8.62969 38.6039 11.8453 38.6039 15.0773V46.0852C38.6039 46.8891 38.5383 47.6602 38.4398 48.3984C38.4398 48.4132 38.4365 48.4313 38.4329 48.4511C38.4284 48.4755 38.4234 48.5026 38.4234 48.5297C38.1281 50.482 37.4883 52.2539 36.5203 53.8289C36.5121 53.8371 36.508 53.8453 36.5039 53.8535C36.4998 53.8617 36.4957 53.8699 36.4875 53.8781C36.4383 53.952 36.3932 54.0217 36.348 54.0914C36.3029 54.1611 36.2578 54.2309 36.2086 54.3047L36.1101 54.4523C36.0773 54.5016 36.0445 54.5467 36.0117 54.5918C35.9789 54.6369 35.9461 54.682 35.9133 54.7313C35.8805 54.7723 35.8476 54.8174 35.8148 54.8625C35.782 54.9076 35.7492 54.9527 35.7164 54.9938L35.6672 55.043C33.3375 58.0781 29.7117 60.1617 25.1836 60.9656V62.9508C26.1844 63.1477 26.9391 64.0172 26.9391 65.0836V68.25C26.9391 69.4477 25.9547 70.432 24.757 70.432H23.4281V71.4C23.4281 73.2047 22.0992 74.6977 20.3766 74.9602C20.5898 78.6188 23.6414 81.5391 27.3656 81.5391H42.7711C46.6266 81.5391 49.7766 78.4055 49.7766 74.5336V27.4641C49.7766 21.3117 54.7805 16.2914 60.9492 16.2914C67.1015 16.2914 72.1219 21.2953 72.1219 27.4641ZM16.8656 61.3102C16.5211 61.2938 16.193 61.2773 15.8648 61.2609V62.9016H22.6898V61.2609C22.5258 61.2691 22.3576 61.2773 22.1894 61.2855C22.0213 61.2938 21.8531 61.302 21.6891 61.3102C21.4102 61.3266 21.1314 61.3266 20.8361 61.3266H17.7187C17.4399 61.3266 17.1445 61.3266 16.8656 61.3102ZM33.5672 7.51406C31.1883 4.34766 27.4148 2.46094 23.4609 2.46094H15.0773C11.1234 2.46094 7.35 4.36406 4.95469 7.51406C3.33047 9.67969 2.44453 12.3539 2.44453 15.0609V46.0687C2.44453 47.5289 2.65781 48.8906 3.06797 50.1539C3.06797 50.1621 3.07207 50.1744 3.07617 50.1867C3.08027 50.199 3.08437 50.2113 3.08437 50.2195C3.13359 50.3836 3.19922 50.5641 3.26484 50.7281C3.27305 50.7527 3.28125 50.7733 3.28946 50.7938C3.29766 50.8143 3.30586 50.8348 3.31406 50.8594C3.35154 50.9718 3.39852 51.0747 3.44778 51.1826C3.46321 51.2164 3.47887 51.2507 3.49453 51.2859C3.51094 51.3188 3.52324 51.3475 3.53555 51.3762C3.54785 51.4049 3.56016 51.4336 3.57656 51.4664C3.59908 51.5114 3.61966 51.5545 3.63964 51.5964C3.67789 51.6765 3.71392 51.7519 3.75703 51.8273C3.77344 51.8684 3.79394 51.9053 3.81445 51.9422C3.83496 51.9791 3.85547 52.016 3.87187 52.057C3.89648 52.1062 3.92519 52.1514 3.95391 52.1965C3.98262 52.2416 4.01133 52.2867 4.03594 52.3359C4.08409 52.3961 4.1234 52.4651 4.16037 52.53C4.17379 52.5536 4.18689 52.5766 4.2 52.5984C4.2164 52.623 4.23691 52.6518 4.25742 52.6805C4.27793 52.7092 4.29844 52.7379 4.31484 52.7625C4.59375 53.1727 4.87266 53.5664 5.20078 53.9437C5.21719 53.9602 5.22949 53.9766 5.2418 53.993C5.2541 54.0094 5.26641 54.0258 5.28281 54.0422C5.36484 54.157 5.46326 54.2555 5.56169 54.3539L5.70937 54.5016C5.75859 54.5426 5.80371 54.5877 5.84883 54.6328C5.89394 54.6779 5.93906 54.723 5.98828 54.7641C6.02109 54.7969 6.0539 54.8256 6.08672 54.8543C6.11953 54.883 6.15234 54.9117 6.18516 54.9445C6.22617 54.9855 6.27129 55.0225 6.3164 55.0594C6.36152 55.0963 6.40664 55.1332 6.44765 55.1742L6.69375 55.3711C6.72233 55.394 6.75092 55.4188 6.7802 55.4443C6.83494 55.4919 6.89211 55.5416 6.95625 55.5844C6.9952 55.6233 7.03416 55.652 7.08125 55.6867C7.09366 55.6958 7.10663 55.7054 7.12031 55.7156C7.16133 55.7484 7.20644 55.7812 7.25156 55.8141C7.29668 55.8469 7.34179 55.8797 7.38281 55.9125C7.40824 55.9294 7.43257 55.9453 7.45609 55.9606C7.52362 56.0046 7.58447 56.0443 7.64531 56.093C7.64531 56.1031 7.65158 56.107 7.66024 56.1123C7.66559 56.1156 7.67186 56.1195 7.67812 56.1258C9.7289 57.4875 12.3047 58.357 15.1758 58.6852C15.2086 58.6852 15.2414 58.6893 15.2742 58.6934C15.307 58.6975 15.3398 58.7016 15.3727 58.7016C15.4629 58.7098 15.549 58.718 15.6352 58.7262C15.7213 58.7344 15.8074 58.7426 15.8977 58.7508C15.941 58.7508 15.9797 58.7554 16.0163 58.7597C16.049 58.7635 16.08 58.7672 16.1109 58.7672H16.1602C16.3242 58.7836 16.5047 58.8 16.6687 58.8C16.7672 58.8164 16.8492 58.8164 16.9312 58.8164C17.1937 58.8328 17.4398 58.8328 17.7023 58.8328H20.8195C21.082 58.8328 21.3281 58.8328 21.5906 58.8164C21.6421 58.8164 21.6891 58.8119 21.7339 58.8076C21.7748 58.8037 21.814 58.8 21.8531 58.8C21.9352 58.7918 22.0213 58.7877 22.1074 58.7836C22.1936 58.7795 22.2797 58.7754 22.3617 58.7672H22.4109C22.4437 58.7672 22.4807 58.7631 22.5176 58.759C22.5545 58.7549 22.5914 58.7508 22.6242 58.7508C22.8047 58.7344 22.9852 58.718 23.1492 58.7016C23.182 58.7016 23.2148 58.6975 23.2477 58.6934C23.2805 58.6893 23.3133 58.6852 23.3461 58.6852C26.2172 58.357 28.793 57.4875 30.8437 56.1258C30.8437 56.1156 30.85 56.1118 30.8587 56.1064C30.864 56.1031 30.8703 56.0992 30.8766 56.093C30.902 56.076 30.9263 56.0602 30.9498 56.0448C31.0174 56.0008 31.0782 55.9612 31.1391 55.9125C31.1801 55.8797 31.2252 55.8469 31.2703 55.8141C31.3154 55.7812 31.3605 55.7484 31.4016 55.7156C31.4262 55.691 31.4549 55.6705 31.4836 55.65C31.5123 55.6295 31.541 55.609 31.5656 55.5844C31.6066 55.5516 31.6518 55.5146 31.6969 55.4777C31.742 55.4408 31.7871 55.4039 31.8281 55.3711L32.0742 55.1742C32.0886 55.1622 32.1026 55.1506 32.1163 55.1392C32.1966 55.0727 32.2667 55.0146 32.3367 54.9445C32.3695 54.9117 32.4023 54.883 32.4352 54.8543C32.468 54.8256 32.5008 54.7969 32.5336 54.7641C32.632 54.682 32.7305 54.6 32.8125 54.5016L32.9602 54.3539C33.0094 54.3047 33.0545 54.2514 33.0996 54.198C33.1447 54.1447 33.1898 54.0914 33.2391 54.0422C33.2555 54.0258 33.2678 54.0094 33.2801 53.993C33.2924 53.9766 33.3047 53.9602 33.3211 53.9437C33.6492 53.5664 33.9445 53.1727 34.207 52.7625C34.2427 52.7268 34.2698 52.6825 34.2945 52.6421C34.3038 52.6267 34.3128 52.612 34.3219 52.5984C34.3875 52.5164 34.4367 52.4344 34.4859 52.3359C34.5105 52.2867 34.5393 52.2416 34.568 52.1965C34.5967 52.1514 34.6254 52.1062 34.65 52.057C34.6664 52.016 34.6869 51.9791 34.7074 51.9422C34.7279 51.9053 34.7484 51.8684 34.7648 51.8273C34.8305 51.7125 34.8961 51.5813 34.9453 51.4664C34.9617 51.4336 34.974 51.4049 34.9863 51.3762C34.9986 51.3475 35.0109 51.3187 35.0273 51.2859C35.0656 51.2094 35.0983 51.1273 35.1319 51.0429C35.1559 50.9825 35.1804 50.9209 35.2078 50.8594C35.216 50.8348 35.2242 50.8143 35.2324 50.7938C35.2406 50.7733 35.2488 50.7527 35.257 50.7281C35.2966 50.6293 35.3301 50.5305 35.3649 50.4281C35.3879 50.3605 35.4114 50.2913 35.4375 50.2195C35.4375 50.2113 35.4416 50.199 35.4457 50.1867C35.4498 50.1744 35.4539 50.1621 35.4539 50.1539C35.8641 48.8906 36.0773 47.5289 36.0773 46.0687V15.0609C36.0773 12.3703 35.1914 9.67969 33.5672 7.51406ZM14.1094 65.3789V67.9711H24.4453V65.3789H14.1094ZM17.6039 71.4C17.6039 72.0234 18.1125 72.532 18.7359 72.532H19.8023C20.4258 72.532 20.9344 72.0234 20.9344 71.4V70.432H17.6039V71.4ZM71.9906 40.8516C72.2367 40.8516 72.45 40.6547 72.45 40.3922V35.3883C72.45 35.1422 72.2531 34.9289 71.9906 34.9289H70.1203C69.8742 34.9289 69.6609 35.1258 69.6609 35.3883V40.3922C69.6609 40.6383 69.8578 40.8516 70.1203 40.8516H71.9906Z" fill="#1BD9B6"/>
</svg>
