<svg width="78" height="84" viewBox="0 0 78 84" fill="none" xmlns="http://www.w3.org/2000/svg">
<path fill-rule="evenodd" clip-rule="evenodd" d="M75.681 51.575C76.3482 51.575 76.999 51.8868 77.4384 52.3955C77.8777 52.9042 78.073 53.5934 77.9754 54.2662L74.2003 80.4229C73.8911 82.4577 72.1337 84.0002 70.0835 84.0002H55.6827C53.6325 84.0002 51.8588 82.4741 51.5659 80.4229L47.7908 54.2662C47.6932 53.5934 47.8885 52.9206 48.3278 52.3955C48.7671 51.8704 49.4018 51.575 50.0852 51.575H75.681ZM70.0835 81.5552C70.9296 81.5552 71.6618 80.9152 71.7757 80.0783L74.5908 60.5838H51.1591L53.9742 80.0783C54.1044 80.9152 54.8203 81.5552 55.6665 81.5552H70.0835ZM74.9488 58.106L75.5183 54.0365H50.2154L50.8011 58.106H74.9488Z" fill="#1BD9B6"/>
<path fill-rule="evenodd" clip-rule="evenodd" d="M34.0566 42.2715C35.4398 42.2715 36.5788 43.4037 36.5625 44.7985V62.4552C36.5625 63.85 35.4398 64.9822 34.0566 64.9822H10.4785C9.09542 64.9822 7.97266 63.85 7.97266 62.4552V44.7985C7.97266 43.4037 9.09542 42.2715 10.4785 42.2715H34.0566ZM34.0566 62.5208C34.0892 62.5208 34.1217 62.488 34.1217 62.4552V44.7985C34.1217 44.7657 34.0892 44.7329 34.0566 44.7329H10.4785C10.446 44.7329 10.4135 44.7657 10.4135 44.7985V62.4552C10.4135 62.488 10.446 62.5208 10.4785 62.5208H34.0566Z" fill="#1BD9B6"/>
<path fill-rule="evenodd" clip-rule="evenodd" d="M32.1046 20.5119L41.9817 28.1423C43.5764 29.3894 44.5364 31.3421 44.5527 33.3769V77.3215C44.5527 80.8496 41.7051 83.7048 38.2229 83.7048H6.3298C2.83133 83.7048 0 80.8332 0 77.3215V33.3769C0 31.3585 0.960047 29.3894 2.5547 28.1587L12.4318 20.5119V17.7715C10.4792 17.6402 8.93332 15.9993 8.93332 13.9973V3.79059C8.93332 1.70659 10.6256 0 12.6922 0H31.8443C33.9271 0 35.6031 1.70659 35.6031 3.79059V13.9973C35.6031 15.9993 34.0573 17.6402 32.1046 17.7715V20.5119ZM11.3904 3.79059V13.9809C11.3904 14.7193 11.9762 15.3101 12.6922 15.3101H31.8443C32.5602 15.3101 33.146 14.7193 33.146 13.9973V3.79059C33.146 3.06858 32.5602 2.47783 31.8443 2.47783H12.6922C11.9762 2.47783 11.3904 3.06858 11.3904 3.79059ZM29.6476 19.8883V17.7715H14.8889V19.8883H29.6476ZM6.3298 81.2106H38.2229C40.3545 81.2106 42.0956 79.4712 42.0794 77.3215V33.3769C42.0794 32.1134 41.4773 30.8827 40.4847 30.1114L30.4612 22.3497H14.0753L4.05173 30.1114C3.05913 30.8827 2.45707 32.1134 2.45707 33.3769V77.3051C2.45707 79.4548 4.19817 81.2106 6.3298 81.2106Z" fill="#1BD9B6"/>
</svg>
