<svg width="84" height="82" viewBox="0 0 84 82" fill="none" xmlns="http://www.w3.org/2000/svg">
<path d="M64.7883 43.3125C54.1898 43.3125 45.5766 51.9258 45.5766 62.5242C45.5766 73.1227 54.1898 81.7359 64.7883 81.7359C75.3867 81.7359 84 73.1227 84 62.5242C84 51.9258 75.3867 43.3125 64.7883 43.3125ZM63.5578 79.2258C54.8953 78.5859 48.0375 71.3508 48.0375 62.5242C48.0375 53.6977 54.8953 46.4461 63.5578 45.8227V79.2258ZM66.0187 79.2258V45.8227C74.6813 46.4625 81.5391 53.6977 81.5391 62.5242C81.5391 71.3508 74.6813 78.6023 66.0187 79.2258ZM71.7117 16.9477C71.7117 12.4195 69.9562 8.17031 66.7406 4.97109C63.5414 1.77188 59.2758 0 54.7641 0C50.2359 0 45.9867 1.75547 42.7875 4.97109L4.97109 42.7875C1.75547 45.9867 0 50.2359 0 54.7641C0 59.2922 1.75547 63.5414 4.97109 66.7406C8.26875 70.0383 12.6164 71.6953 16.9477 71.6953C21.2953 71.6953 25.6266 70.0383 28.9242 66.7406L66.7406 28.9242C69.9398 25.725 71.7117 21.4758 71.7117 16.9477ZM27.1852 65.0016C21.5414 70.6453 12.3539 70.6453 6.69375 65.0016C3.97031 62.2781 2.46094 58.6359 2.46094 54.7641C2.46094 50.8922 3.97031 47.25 6.71016 44.5266L24.757 26.4797L45.2484 46.9711L27.1852 65.0016ZM46.9711 45.232L26.4797 24.7406L44.5266 6.71016C47.2664 3.97031 50.9086 2.46094 54.7641 2.46094C58.6359 2.46094 62.2781 3.97031 65.0016 6.71016C67.7414 9.45 69.2508 13.0758 69.2508 16.9477C69.2508 20.8195 67.7414 24.4617 65.0016 27.1852L46.9711 45.232Z" fill="#1BD9B6"/>
</svg>
