<svg width="84" height="85" viewBox="0 0 84 85" fill="none" xmlns="http://www.w3.org/2000/svg">
<path d="M16.5978 63.1413C20.3108 66.9363 25.3466 69.0684 30.5975 69.0684C31.0749 69.0684 31.5327 69.2622 31.8703 69.6072C32.2078 69.9522 32.3974 70.4202 32.3974 70.9081C32.3974 71.396 32.2078 71.8639 31.8703 72.2089C31.5327 72.554 31.0749 72.7478 30.5975 72.7478C24.3919 72.7478 18.4405 70.2281 14.0524 65.743C9.66439 61.2579 7.19922 55.1748 7.19922 48.8319C7.19922 48.344 7.38885 47.876 7.72639 47.531C8.06393 47.186 8.52173 46.9922 8.99909 46.9922C9.47645 46.9922 9.93425 47.186 10.2718 47.531C10.6093 47.876 10.799 48.344 10.799 48.8319C10.799 54.1989 12.8849 59.3462 16.5978 63.1413Z" fill="#1BD9B6"/>
<path fill-rule="evenodd" clip-rule="evenodd" d="M75.3966 65.3887L81.8042 71.9196C82.5002 72.6311 83.0524 73.4757 83.4291 74.4053C83.8059 75.3349 83.9997 76.3313 83.9997 77.3375C83.9997 78.3437 83.8059 79.34 83.4291 80.2696C83.0524 81.1992 82.5002 82.0439 81.8042 82.7553C81.1081 83.4668 80.2817 84.0312 79.3722 84.4163C78.4627 84.8013 77.488 84.9995 76.5035 84.9995C75.5191 84.9995 74.5443 84.8013 73.6349 84.4163C72.7254 84.0312 71.899 83.4668 71.2029 82.7553L64.7954 76.2061C61.8368 77.6037 58.6061 78.2952 55.3475 78.2283C52.0889 78.1613 48.8879 77.3377 45.9867 75.8197C41.3399 78.5835 36.0626 80.047 30.6864 80.0629C25.3101 80.0789 20.0247 78.6466 15.3622 75.9104C10.6998 73.1741 6.82509 69.2306 4.12818 64.4768C1.43127 59.723 0.00741343 54.3268 0 48.8316C0 32.7591 25.5748 5.50742 28.9856 1.87295C29.1509 1.69679 29.2642 1.57611 29.3199 1.51488C29.4872 1.34245 29.6863 1.20559 29.9056 1.11219C30.125 1.01879 30.3602 0.970703 30.5978 0.970703C30.8354 0.970703 31.0707 1.01879 31.29 1.11219C31.5093 1.20559 31.7084 1.34245 31.8757 1.51488C31.8919 1.53186 31.9167 1.55772 31.9498 1.59222C33.3143 3.01544 48.7857 19.1522 56.588 34.1141C60.1372 34.2517 63.5985 35.2818 66.6653 37.1132C69.732 38.9446 72.3095 41.5208 74.1695 44.6136C76.0295 47.7064 77.1146 51.2203 77.3287 54.8441C77.5427 58.4679 76.8791 62.0897 75.3966 65.3887ZM11.5073 68.3444C16.5704 73.5195 23.4375 76.4268 30.5978 76.4268C34.734 76.4353 38.8167 75.4723 42.531 73.6121C41.8242 73.0399 41.1511 72.4256 40.5151 71.7724C37.6939 68.8801 35.713 65.2446 34.7927 61.2702C33.8725 57.2958 34.0489 53.1384 35.3024 49.2603C36.5559 45.3823 38.8373 41.9357 41.8929 39.304C44.9486 36.6722 48.6585 34.9584 52.6102 34.3532C45.9147 22.3585 34.4315 9.5727 30.5978 5.4702C25.0722 11.4124 3.59974 35.3835 3.59974 48.8316C3.59974 56.1503 6.44417 63.1693 11.5073 68.3444ZM38.1435 59.7775C38.8385 63.3463 40.5532 66.6242 43.0709 69.1969V69.1785C46.4438 72.6298 51.0197 74.5706 55.7923 74.574C60.5649 74.5775 65.1435 72.6433 68.5211 69.1969C71.0388 66.6242 72.7536 63.3463 73.4485 59.7775C74.1434 56.2087 73.7873 52.5094 72.4252 49.1475C71.0631 45.7856 68.7561 42.9121 65.7961 40.8903C62.8361 38.8686 59.3561 37.7895 55.796 37.7895C52.236 37.7895 48.7559 38.8686 45.7959 40.8903C42.8359 42.9121 40.529 45.7856 39.1669 49.1475C37.8047 52.5094 37.4486 56.2087 38.1435 59.7775ZM76.4945 81.2279C77.5031 81.2279 78.4718 80.8254 79.1943 80.1062C79.8896 79.3633 80.2777 78.3748 80.2777 77.3467C80.2777 76.3186 79.8896 75.3301 79.1943 74.5872L73.5967 68.645C72.8604 69.7487 72.0292 70.783 71.1129 71.7356C70.1818 72.6731 69.1697 73.5229 68.0891 74.2744L73.7947 80.1062C74.5173 80.8254 75.486 81.2279 76.4945 81.2279Z" fill="#1BD9B6"/>
</svg>
