<svg width="52" height="84" viewBox="0 0 52 84" fill="none" xmlns="http://www.w3.org/2000/svg">
<path d="M18.3357 0H2.49004C1.11567 0 0 1.13203 0 2.52656V5.75859C0 7.15312 1.11567 8.28516 2.49004 8.28516H6.56464V17.2922H2.47387C1.11567 17.2922 0.0161688 18.4078 0.0161688 19.7859V62.2617C0.0161688 63.6398 1.11567 64.7555 2.47387 64.7555H5.59449V67.4461C5.59449 68.8898 6.75867 70.0711 8.18154 70.0711H9.21636V82.7695C9.21636 83.4422 9.76611 84 10.429 84C11.092 84 11.6417 83.4422 11.6417 82.7695V70.0711H12.6765C14.0994 70.0711 15.2636 68.8898 15.2636 67.4461V64.7555H18.3842C19.7424 64.7555 20.8419 63.6398 20.8419 62.2617V19.7859C20.8419 18.4078 19.7424 17.2922 18.3842 17.2922H14.2934V8.28516H18.3681C19.7424 8.28516 20.8581 7.15312 20.8581 5.75859V2.52656C20.8257 1.13203 19.7101 0 18.3357 0ZM12.8221 67.4461C12.8221 67.5281 12.7574 67.6102 12.6604 67.6102H8.18154C8.1007 67.6102 8.01985 67.5445 8.01985 67.4461V64.7555H12.8221V67.4461ZM18.3681 62.2945H2.47387C2.4577 62.2945 2.44153 62.2781 2.44153 62.2617V55.5023H4.72137C5.3843 55.5023 5.93405 54.9445 5.93405 54.2719C5.93405 53.5992 5.3843 53.0414 4.72137 53.0414H2.44153V46.7086H6.33827C7.0012 46.7086 7.55095 46.1508 7.55095 45.4781C7.55095 44.8055 7.0012 44.2477 6.33827 44.2477H2.44153V37.9148H4.72137C5.3843 37.9148 5.93405 37.357 5.93405 36.6844C5.93405 36.0117 5.3843 35.4539 4.72137 35.4539H2.44153V33.3867H18.4004V62.2453C18.4004 62.2781 18.3842 62.2945 18.3681 62.2945ZM18.3681 19.7531C18.3842 19.7531 18.4004 19.7695 18.4004 19.7859V30.9422H2.44153V29.1375H6.33827C7.0012 29.1375 7.55095 28.5797 7.55095 27.907C7.55095 27.2344 7.0012 26.6766 6.33827 26.6766H2.44153V19.7859C2.44153 19.7695 2.4577 19.7531 2.47387 19.7531H18.3681ZM9.00617 17.2922V8.28516H11.8519V17.2922H9.00617ZM18.4004 5.75859C18.4004 5.79141 18.3681 5.82422 18.3357 5.82422H2.49004C2.4577 5.82422 2.42536 5.79141 2.42536 5.75859V2.52656C2.42536 2.49375 2.4577 2.46094 2.49004 2.46094H18.3357C18.3681 2.46094 18.4004 2.49375 18.4004 2.52656V5.75859ZM50.2858 50.6789L47.8119 48.4313V46.4461C48.9922 46.3477 49.9139 45.3469 49.9139 44.1328V37.7672C49.9139 36.4875 48.8791 35.4375 47.6179 35.4375H30.7212C29.46 35.4375 28.4252 36.4875 28.4252 37.7672V44.1328C28.4252 45.3469 29.3468 46.3477 30.5272 46.4461V48.4313L28.0533 50.6789C26.9538 51.6797 26.3232 53.1234 26.3232 54.6164V80.4727C26.3232 82.425 27.8916 84 29.7996 84H48.5233C50.4475 84 51.9997 82.4086 51.9997 80.4727V54.6164C52.0159 53.1234 51.3853 51.6797 50.2858 50.6789ZM30.8506 37.8984H47.4885V43.9852H30.8506V37.8984ZM45.4027 46.4461V47.7422H32.9687V46.4461H45.4027ZM48.5395 81.5391H29.8157C29.2337 81.5391 28.7648 81.0633 28.7648 80.4727V77.3555H39.4687C40.649 77.3555 41.6192 76.3711 41.6192 75.1734V59.5711C41.6192 58.3734 40.649 57.3891 39.4687 57.3891H28.7648V54.6328C28.7648 53.8289 29.1043 53.0578 29.6864 52.5328L32.2088 50.2195H46.1465L48.6689 52.5328C49.251 53.0742 49.5905 53.8453 49.5905 54.6328V80.4891C49.5905 81.0633 49.1216 81.5391 48.5395 81.5391ZM39.1938 74.8945H28.7648V59.85H39.1938V74.8945Z" fill="#1BD9B6"/>
</svg>
