<svg width="84" height="84" viewBox="0 0 84 84" fill="none" xmlns="http://www.w3.org/2000/svg">
<path d="M42 42C52.2978 42 60.6667 32.5733 60.6667 21C60.6667 9.42667 52.2978 0 42 0C31.7022 0 23.3333 9.42667 23.3333 21C23.3333 32.5733 31.7022 42 42 42ZM42 3.11111C50.5711 3.11111 57.5556 11.1378 57.5556 21C57.5556 30.8622 50.5711 38.8889 42 38.8889C33.4289 38.8889 26.4444 30.8622 26.4444 21C26.4444 11.1378 33.4289 3.11111 42 3.11111ZM61.8333 48.7667C61.689 48.5979 61.5102 48.462 61.309 48.3681C61.1077 48.2742 60.8887 48.2244 60.6667 48.2222H60.5578C57.0501 46.8953 53.3933 46.002 49.6689 45.5622V45.5622C49.2694 45.5173 48.868 45.6288 48.5489 45.8733L42 50.9133L35.5133 45.8889C35.373 45.7838 35.215 45.7047 35.0467 45.6556V45.6556C34.8524 45.6087 34.6498 45.6087 34.4556 45.6556V45.6556C30.7311 46.0953 27.0744 46.9886 23.5667 48.3156H23.3333C23.1113 48.3178 22.8923 48.3675 22.691 48.4614C22.4898 48.5553 22.311 48.6912 22.1667 48.86C0.311111 58.0844 0 82.1644 0 82.4444C0 82.857 0.163889 83.2527 0.455612 83.5444C0.747335 83.8361 1.143 84 1.55556 84H82.4444C82.857 84 83.2527 83.8361 83.5444 83.5444C83.8361 83.2527 84 82.857 84 82.4444C84 82.1644 83.6889 58.0844 61.8333 48.7667ZM60.6667 62.2222C61.282 62.2222 61.8835 62.4047 62.3951 62.7465C62.9067 63.0884 63.3055 63.5743 63.541 64.1428C63.7764 64.7112 63.838 65.3368 63.718 65.9403C63.598 66.5438 63.3017 67.0981 62.8666 67.5332C62.4315 67.9683 61.8771 68.2646 61.2736 68.3847C60.6701 68.5047 60.0446 68.4431 59.4761 68.2076C58.9076 67.9722 58.4217 67.5734 58.0799 67.0618C57.738 66.5502 57.5556 65.9487 57.5556 65.3333C57.5556 64.5082 57.8833 63.7169 58.4668 63.1334C59.0502 62.55 59.8415 62.2222 60.6667 62.2222ZM7.07778 66.9978C10.1585 60.5689 15.3456 55.3872 21.7778 52.3133V59.2511C15.68 60.3244 14 67.5733 14 71.5556C14 71.9681 14.1639 72.3638 14.4556 72.6555C14.7473 72.9472 15.143 73.1111 15.5556 73.1111H18.6667C19.0792 73.1111 19.4749 72.9472 19.7666 72.6555C20.0583 72.3638 20.2222 71.9681 20.2222 71.5556C20.2222 71.143 20.0583 70.7473 19.7666 70.4556C19.4749 70.1639 19.0792 70 18.6667 70H17.22C17.5156 67.34 18.7756 62.2222 23.3333 62.2222C27.8911 62.2222 29.1511 67.34 29.4467 70H28C27.5874 70 27.1918 70.1639 26.9001 70.4556C26.6083 70.7473 26.4444 71.143 26.4444 71.5556C26.4444 71.9681 26.6083 72.3638 26.9001 72.6555C27.1918 72.9472 27.5874 73.1111 28 73.1111H31.1111C31.5237 73.1111 31.9193 72.9472 32.2111 72.6555C32.5028 72.3638 32.6667 71.9681 32.6667 71.5556C32.6667 67.5733 30.9867 60.3244 24.8889 59.2511V51.0067C27.8775 49.9205 30.9759 49.1641 34.1289 48.7511L40.4444 53.6511V80.8889H3.20444C3.6342 76.0604 4.94709 71.352 7.07778 66.9978V66.9978ZM43.5556 80.8889V53.6511L49.8711 48.7511C53.0251 49.1588 56.124 49.9153 59.1111 51.0067V59.3289C57.6448 59.7075 56.3668 60.6079 55.5168 61.8613C54.6669 63.1148 54.3032 64.6352 54.494 66.1376C54.6849 67.6399 55.4171 69.0211 56.5534 70.0223C57.6898 71.0234 59.1522 71.5758 60.6667 71.5758C62.1811 71.5758 63.6436 71.0234 64.7799 70.0223C65.9163 69.0211 66.6485 67.6399 66.8393 66.1376C67.0301 64.6352 66.6665 63.1148 65.8165 61.8613C64.9665 60.6079 63.6886 59.7075 62.2222 59.3289V52.3289C77.9333 59.8889 80.4222 75.8022 80.8889 80.8889H43.5556Z" fill="#1BD9B6"/>
</svg>
