<svg width="70" height="84" viewBox="0 0 70 84" fill="none" xmlns="http://www.w3.org/2000/svg">
<path d="M12.3086 6.31539C12.3086 5.64286 12.8495 5.10156 13.5215 5.10156C14.1936 5.10156 14.7345 5.64286 14.7345 6.31539V9.25153C14.7345 9.92406 14.1936 10.4654 13.5215 10.4654C12.8495 10.4654 12.3086 9.92406 12.3086 9.25153V6.31539Z" fill="#1BD9B6"/>
<path d="M19.7337 6.31539C19.7337 5.64286 20.2746 5.10156 20.9467 5.10156C21.6187 5.10156 22.1596 5.64286 22.1596 6.31539V9.25153C22.1596 9.92406 21.6187 10.4654 20.9467 10.4654C20.2746 10.4654 19.7337 9.92406 19.7337 9.25153V6.31539Z" fill="#1BD9B6"/>
<path d="M27.1589 6.31539C27.1589 5.64286 27.6998 5.10156 28.3718 5.10156C29.0438 5.10156 29.5848 5.64286 29.5848 6.31539V9.25153C29.5848 9.92406 29.0438 10.4654 28.3718 10.4654C27.6998 10.4654 27.1589 9.92406 27.1589 9.25153V6.31539Z" fill="#1BD9B6"/>
<path d="M34.584 6.31539C34.584 5.64286 35.1249 5.10156 35.797 5.10156C36.469 5.10156 37.0099 5.64286 37.0099 6.31539V9.25153C37.0099 9.92406 36.469 10.4654 35.797 10.4654C35.1249 10.4654 34.584 9.92406 34.584 9.25153V6.31539Z" fill="#1BD9B6"/>
<path d="M42.0092 6.31539C42.0092 5.64286 42.5501 5.10156 43.2221 5.10156C43.8941 5.10156 44.435 5.64286 44.435 6.31539V9.25153C44.435 9.92406 43.8941 10.4654 43.2221 10.4654C42.5501 10.4654 42.0092 9.92406 42.0092 9.25153V6.31539Z" fill="#1BD9B6"/>
<path fill-rule="evenodd" clip-rule="evenodd" d="M59.5159 42.2543C62.3188 42.2543 64.9577 43.3368 66.941 45.3216C71.0224 49.4224 71.0224 56.082 66.9246 60.1992L56.7458 70.3855V77.488C56.7458 81.0803 53.8282 84 50.2386 84H6.50725C2.91761 84 0 81.0803 0 77.488V29.7059C0 27.2127 1.32767 24.8834 3.4749 23.604L10.687 19.3064V15.5829H8.62169C6.55642 15.5829 4.88453 13.9098 4.88453 11.843V3.73989C4.88453 1.67311 6.55642 0 8.6053 0H48.1241C50.1894 0 51.8613 1.67311 51.8613 3.73989V11.8266C51.8613 13.8934 50.1894 15.5665 48.1241 15.5665H46.0588V19.29L53.2709 23.5876C55.4181 24.8506 56.7458 27.1963 56.7458 29.6895V42.6315C57.6473 42.3855 58.5652 42.2543 59.5159 42.2543ZM7.29402 11.8266C7.29402 12.5483 7.88409 13.1388 8.6053 13.1388V13.1552H48.1241C48.8453 13.1552 49.4354 12.5647 49.4354 11.843V3.73989C49.4354 3.01816 48.8453 2.42765 48.1241 2.42765H8.6053C7.88409 2.42765 7.29402 3.01816 7.29402 3.73989V11.8266ZM43.633 18.7651V15.5665H13.0964V18.7651H43.633ZM2.40948 37.5958V65.563H22.7672C23.9473 65.563 24.898 64.6116 24.898 63.4306V39.7282C24.898 38.5472 23.9473 37.5958 22.7672 37.5958H2.40948ZM2.40948 77.4716C2.40948 79.7188 4.24528 81.556 6.49085 81.556H32.0773C31.8314 81.3427 31.6019 81.1295 31.3725 80.8998C27.2747 76.8155 27.2747 70.1558 31.3725 66.0551L52.1071 45.3216C52.7792 44.6491 53.5332 44.075 54.3363 43.6157V29.6731C54.3363 28.0328 53.4512 26.4909 52.0416 25.6544L44.5181 21.1763H12.2277L4.70423 25.6544C3.27821 26.4909 2.40948 28.0328 2.40948 29.6731V35.1681H22.7508C25.2586 35.1681 27.3075 37.2185 27.3075 39.7282V63.4306C27.3075 65.9403 25.2586 67.9906 22.7508 67.9906H2.40948V77.4716ZM33.0935 79.1939C34.6179 80.7194 36.6504 81.556 38.7976 81.556C40.9448 81.556 42.9773 80.7194 44.5017 79.1939L54.0085 69.6801L42.6003 58.2636L33.0935 67.7774C29.9464 70.9268 29.9464 76.0445 33.0935 79.1939ZM50.2549 81.556C52.5005 81.556 54.3363 79.7352 54.3363 77.4716V72.7803L46.2228 80.8998C46.0097 81.1295 45.7638 81.3591 45.5179 81.556H50.2549ZM55.7132 67.9578L65.22 58.4441C68.3671 55.3111 68.3671 50.1769 65.2364 47.0439C63.712 45.5185 61.6795 44.6819 59.5323 44.6819C58.3357 44.6819 57.1884 44.9444 56.1393 45.4364C56.1229 45.4446 56.1025 45.4528 56.082 45.461C56.0615 45.4692 56.041 45.4774 56.0246 45.4856C55.2214 45.8793 54.4838 46.3878 53.8282 47.0439L44.3214 56.5577L55.7132 67.9578Z" fill="#1BD9B6"/>
</svg>
