<svg width="75" height="84" viewBox="0 0 75 84" fill="none" xmlns="http://www.w3.org/2000/svg">
<path fill-rule="evenodd" clip-rule="evenodd" d="M70.4274 75.4695V75.5352C70.4274 75.6828 70.4274 75.8305 70.4112 75.9617C70.3625 76.4539 70.2329 76.9461 69.9897 77.4055C69.3574 78.6359 68.1416 79.3742 66.7636 79.3742H8.22376C6.84578 79.3742 5.64613 78.6359 4.99767 77.4055C4.7545 76.9461 4.60859 76.4539 4.57617 75.9617V75.4695C4.57617 75.4367 4.58022 75.408 4.58428 75.3793C4.58833 75.3506 4.59238 75.3219 4.59238 75.2891V75.2234C4.60859 75.0758 4.64102 74.9117 4.68965 74.7477C4.73828 74.6 4.78692 74.4523 4.83555 74.3211C4.83555 74.3129 4.83961 74.3047 4.84366 74.2965C4.84771 74.2883 4.85177 74.2801 4.85177 74.2719L4.9004 74.1734C4.93282 74.1242 4.94903 74.0914 4.96525 74.0422C4.96525 74.0422 4.98146 74.0258 4.98146 74.0094C4.99644 73.9821 5.01087 73.9553 5.02506 73.9291C5.0876 73.8132 5.14534 73.7062 5.22463 73.5992L7.20244 70.6789L16.443 57.0945L25.2134 44.1664L26.7211 41.9516C26.7373 41.9188 26.7535 41.9023 26.7698 41.8859C26.9967 41.5906 27.3372 41.4102 27.71 41.4102H47.2773C47.6502 41.4102 47.9906 41.5906 48.2176 41.8695C48.25 41.9023 48.2662 41.9188 48.2824 41.9516L49.855 44.2812L69.7789 73.5992C69.8762 73.7305 69.9573 73.8781 70.0221 74.0094C70.0221 74.0094 70.0292 74.0165 70.034 74.0261C70.0364 74.031 70.0383 74.0366 70.0383 74.0422L70.087 74.1406C70.1194 74.1898 70.1356 74.2227 70.1518 74.2719C70.2815 74.5836 70.3625 74.8953 70.4112 75.2234V75.2727C70.4112 75.3055 70.4152 75.3383 70.4193 75.3711C70.4233 75.4039 70.4274 75.4367 70.4274 75.4695ZM67.7687 74.9938L46.6289 43.8875H28.3747L7.23486 74.9938C6.87821 75.5023 6.99169 75.9617 7.1538 76.257C7.29971 76.5523 7.62394 76.9133 8.22376 76.9133H66.7798C67.3796 76.9133 67.6877 76.5523 67.8498 76.257C67.9957 75.9617 68.1092 75.5023 67.7687 74.9938Z" fill="#1BD9B6"/>
<path fill-rule="evenodd" clip-rule="evenodd" d="M48.0551 33.5016L73.5396 70.9898C75.2905 73.582 75.485 76.7812 74.026 79.5539C72.5831 82.343 69.8596 84 66.7632 84H8.22336C5.12696 84 2.40343 82.3266 0.9606 79.5539C-0.482226 76.7812 -0.287688 73.582 1.46316 70.9898L26.9315 33.518C28.0176 31.9266 28.585 30.0727 28.585 28.1367V10.5984C26.5424 10.5984 24.8888 8.90859 24.8888 6.85781V3.74062C24.8888 1.67344 26.5586 0 28.585 0H46.4177C48.4442 0 50.0977 1.67344 50.0977 3.72422V6.84141C50.0977 8.90859 48.4279 10.582 46.4015 10.582V28.1203C46.4015 30.0562 46.9689 31.9102 48.0551 33.5016ZM27.3368 6.85781C27.3368 7.54688 27.9042 8.12109 28.585 8.12109H46.4177C47.0986 8.12109 47.666 7.54688 47.666 6.85781V3.74062C47.666 3.05156 47.0986 2.47734 46.4177 2.47734H28.585C27.9042 2.47734 27.3368 3.05156 27.3368 3.74062V6.85781ZM66.7632 81.5227C68.9518 81.5227 70.8485 80.3578 71.8698 78.4055C72.8912 76.4531 72.7615 74.2055 71.497 72.3844L46.0286 34.8961C44.9425 33.3047 44.2616 31.4836 44.0346 29.5805C43.986 29.4328 43.9536 29.2852 43.9536 29.1211V10.582H31.0168V28.1203C31.0168 30.5484 30.3035 32.8945 28.9417 34.8961L3.47339 72.3844C2.2251 74.2055 2.09541 76.4531 3.11673 78.4055C4.13806 80.3578 6.05102 81.5227 8.22336 81.5227H66.7632Z" fill="#1BD9B6"/>
</svg>
