<svg width="84" height="84" viewBox="0 0 84 84" fill="none" xmlns="http://www.w3.org/2000/svg">
<path d="M83.2207 13.568L70.4402 0.7875C69.9316 0.278906 69.259 0 68.5371 0C67.8152 0 67.1426 0.278906 66.634 0.7875L64.0582 3.36328C63.0082 4.41328 63.0082 6.13594 64.0582 7.18594L67.5199 10.6477L59.6121 18.5555L55.4941 14.4375C54.3949 13.3383 52.6066 13.3383 51.5074 14.4375L14.4293 51.5156C13.3301 52.6148 13.3301 54.4031 14.4293 55.5023L17.3824 58.4555L14.8395 60.9984C13.6746 62.1633 13.6746 64.0336 14.8395 65.1984L15.9387 66.2977L0.369141 81.8672C-0.123047 82.3594 -0.123047 83.1469 0.369141 83.6391C0.615234 83.8852 0.926953 84 1.25508 84C1.5668 84 1.89492 83.8852 2.14102 83.6391L17.7105 68.0695L18.8098 69.1688C19.384 69.743 20.1551 70.0383 20.9098 70.0383C21.6644 70.0383 22.4355 69.743 23.0098 69.1688L25.5527 66.6258L28.5059 69.5789C29.0473 70.1203 29.7691 70.3992 30.491 70.3992C31.2129 70.3992 31.9348 70.1203 32.4762 69.5789L69.5707 32.4844C70.6699 31.3852 70.6699 29.5969 69.5707 28.4977L65.4527 24.3797L73.3605 16.4719L76.8223 19.9336C77.3473 20.4586 78.0363 20.7211 78.7254 20.7211C79.4144 20.7211 80.1035 20.4586 80.6285 19.9336L83.2043 17.3578C83.7129 16.8492 83.9918 16.1766 83.9918 15.4547C84.0082 14.7492 83.7293 14.0766 83.2207 13.568ZM21.2543 67.3969C21.0738 67.5773 20.7621 67.5773 20.5816 67.3969L16.6113 63.4266C16.4309 63.2461 16.4309 62.9344 16.6113 62.7539L19.1543 60.2109L23.7973 64.8539L21.2543 67.3969ZM30.7207 67.807C30.5894 67.9383 30.3926 67.9383 30.2777 67.807L16.2012 53.7305C16.0699 53.5992 16.0699 53.4023 16.2012 53.2875L22.3043 47.1844L24.5191 49.3992C24.7652 49.6453 25.077 49.7602 25.4051 49.7602C25.7332 49.7602 26.0449 49.6453 26.291 49.3992C26.7832 48.907 26.7832 48.1195 26.291 47.6273L24.0762 45.4125L29.9824 39.5063L33.6246 43.1484C33.8707 43.3945 34.1824 43.5094 34.5105 43.5094C34.8387 43.5094 35.1504 43.3945 35.3965 43.1484C35.8887 42.6562 35.8887 41.8687 35.3965 41.3766L31.7543 37.7344L33.8707 35.618L48.3902 50.1375L30.7207 67.807ZM67.7988 30.2695C67.9301 30.4008 67.9301 30.5977 67.7988 30.7125L52.7707 45.7406L50.1293 48.3984L35.6098 33.8789L37.6441 31.8445L39.859 34.0594C40.1051 34.3055 40.4168 34.4203 40.7449 34.4203C41.073 34.4203 41.3848 34.3055 41.6309 34.0594C42.123 33.5672 42.123 32.7797 41.6309 32.2875L39.416 30.0727L45.3223 24.1664L48.9644 27.8086C49.2105 28.0547 49.5223 28.1695 49.8504 28.1695C50.1785 28.1695 50.4902 28.0547 50.7363 27.8086C51.2285 27.3164 51.2285 26.5289 50.7363 26.0367L47.0941 22.3945L53.2957 16.193C53.4269 16.0617 53.6238 16.0617 53.7387 16.193L67.7988 30.2695ZM63.6808 22.6242L61.384 20.3273L69.2918 12.4195L71.5887 14.7164L63.6808 22.6242ZM81.4488 15.6187L78.873 18.1945C78.791 18.2766 78.6598 18.2766 78.5941 18.1945L65.8301 5.41406C65.748 5.33203 65.748 5.20078 65.8301 5.13516L68.4058 2.55938C68.4551 2.51016 68.5043 2.49375 68.5535 2.49375C68.5863 2.49375 68.6519 2.51016 68.7012 2.55938L81.4652 15.3234C81.5144 15.3727 81.5308 15.4219 81.5308 15.4711C81.5144 15.5039 81.498 15.5695 81.4488 15.6187Z" fill="#1BD9B6"/>
</svg>
