<svg width="62" height="84" viewBox="0 0 62 84" fill="none" xmlns="http://www.w3.org/2000/svg">
<path d="M19.8082 53.7641H25.5383C26.2259 53.7641 26.7661 54.3219 26.7661 54.9945C26.7661 55.6672 26.2095 56.225 25.5383 56.225H19.8082V61.9672C19.8082 62.6398 19.2516 63.1977 18.5803 63.1977C17.9091 63.1977 17.3525 62.6398 17.3525 61.9672V56.225H11.6224C10.9512 56.225 10.3945 55.6672 10.3945 54.9945C10.3945 54.3219 10.9512 53.7641 11.6224 53.7641H17.3525V48.0219C17.3525 47.3492 17.9091 46.7914 18.5803 46.7914C19.2516 46.7914 19.8082 47.3492 19.8082 48.0219V53.7641Z" fill="#1BD9B6"/>
<path fill-rule="evenodd" clip-rule="evenodd" d="M28.4539 26.6602L34.233 30.1055C36.0503 31.1883 37.1799 33.1734 37.1799 35.3062V78.4383C37.1799 81.5062 34.6914 84 31.6299 84H5.54998C2.48848 84 0 81.5062 0 78.4383V35.3062C0 33.1898 1.12964 31.1883 2.94689 30.1055L8.72607 26.6602V23.5102C7.92386 23.182 7.35085 22.3781 7.35085 21.443V18.7688C7.35085 17.5383 8.34952 16.5211 9.59376 16.5211H27.5862C28.814 16.5211 29.8291 17.5219 29.8291 18.7688V21.443C29.8291 22.3617 29.2561 23.1656 28.4539 23.5102V26.6602ZM27.357 18.9656H9.80659V21.2133H27.357V18.9656ZM25.9817 26.1352V23.6906H11.1654V26.1352H25.9817ZM2.43937 38.6531V72.6633H34.7242V38.6531H2.43937ZM31.6299 81.5391C33.3326 81.5391 34.7242 80.1445 34.7242 78.4383H34.7405V75.1242H2.45574V78.4383C2.45574 80.1445 3.84733 81.5391 5.54998 81.5391H31.6299ZM34.7078 36.1922V35.3062C34.7078 34.043 34.0366 32.8617 32.956 32.2219L26.8658 28.5961H10.2814L4.19113 32.2219C3.11061 32.8617 2.43937 34.043 2.43937 35.3062V36.1922H34.7078Z" fill="#1BD9B6"/>
<path d="M43.4979 23.7734C43.4979 23.1008 44.0546 22.543 44.7258 22.543C45.4134 22.543 45.9537 23.1008 45.9537 23.7734V25.857C45.9537 26.5297 45.397 27.0875 44.7258 27.0875C44.0546 27.0875 43.4979 26.5297 43.4979 25.857V23.7734Z" fill="#1BD9B6"/>
<path d="M47.3616 23.7734C47.3616 23.1008 47.9183 22.543 48.5895 22.543C49.2607 22.543 49.8174 23.1008 49.8174 23.7734V25.857C49.8174 26.5297 49.2607 27.0875 48.5895 27.0875C47.9183 27.0875 47.3616 26.5297 47.3616 25.857V23.7734Z" fill="#1BD9B6"/>
<path d="M51.209 23.7734C51.209 23.1008 51.7656 22.543 52.4368 22.543C53.1244 22.543 53.6647 23.1008 53.6647 23.7734V25.857C53.6647 26.5297 53.1081 27.0875 52.4368 27.0875C51.7656 27.0875 51.209 26.5297 51.209 25.857V23.7734Z" fill="#1BD9B6"/>
<path d="M55.0727 23.7734C55.0727 23.1008 55.6293 22.543 56.3005 22.543C56.9718 22.543 57.5284 23.1008 57.5284 23.7734V25.857C57.5284 26.5297 56.9718 27.0875 56.3005 27.0875C55.6293 27.0875 55.0727 26.5297 55.0727 25.857V23.7734Z" fill="#1BD9B6"/>
<path fill-rule="evenodd" clip-rule="evenodd" d="M57.6117 18.8836H59.5108C60.9024 18.8836 62.032 20.0156 61.9993 21.4102V28.2188C61.9993 29.5969 60.886 30.7289 59.4944 30.7289H55.1232V73.5164C55.1232 74.107 55.0577 74.7141 54.9267 75.2883L53.5515 81.3586C53.2077 82.9172 51.8489 84 50.2608 84C48.6728 84 47.3303 82.9172 46.9701 81.3586L45.5949 75.2883C45.464 74.7141 45.3985 74.107 45.3985 73.5164V30.7125H41.7312C40.356 30.7125 39.2264 29.5969 39.2264 28.2023V21.3937C39.2264 20.0156 40.3396 18.8836 41.7312 18.8836H43.6303L43.9905 6.46406C44.0887 2.83828 47.0029 0 50.621 0C54.2228 0 57.1533 2.83828 57.2515 6.46406L57.6117 18.8836ZM50.6046 2.46094C48.329 2.46094 46.4954 4.24922 46.4299 6.52969L46.0697 18.8836H55.1396L54.7794 6.52969C54.7139 4.24922 52.8803 2.46094 50.6046 2.46094ZM52.5529 74.7469C52.6347 74.3367 52.6838 73.9266 52.6838 73.5164H52.7166V30.7289H47.8706V73.5164C47.8706 73.9266 47.9033 74.3367 48.0016 74.7469L49.3768 80.8172C49.475 81.2438 49.8515 81.5391 50.2772 81.5391C50.7029 81.5391 51.0794 81.2438 51.1776 80.8172L52.5529 74.7469ZM41.7149 28.2516H59.5108C59.5435 28.2516 59.5763 28.2352 59.5599 28.2023V21.3937C59.5599 21.3773 59.5435 21.3445 59.5108 21.3445H41.7149C41.6821 21.3445 41.6657 21.3609 41.6657 21.3937V28.2023C41.6657 28.2187 41.6821 28.2516 41.7149 28.2516Z" fill="#1BD9B6"/>
</svg>
