<svg width="85" height="85" viewBox="0 0 85 85" fill="none" xmlns="http://www.w3.org/2000/svg">
<path d="M75.1056 78.3105C75.4546 78.3309 75.7811 78.4889 76.0135 78.75L78.75 81.8081C78.8651 81.9374 78.9535 82.0881 79.0104 82.2515C79.0672 82.415 79.0912 82.588 79.0812 82.7608C79.0711 82.9335 79.0272 83.1026 78.9518 83.2584C78.8764 83.4142 78.771 83.5536 78.6417 83.6686C78.5125 83.7836 78.3618 83.8721 78.1983 83.9289C78.0349 83.9858 77.8618 84.0098 77.6891 83.9998C77.5163 83.9897 77.3472 83.9457 77.1915 83.8703C77.0357 83.7949 76.8963 83.6896 76.7813 83.5603L74.0447 80.5022C73.8123 80.2411 73.6932 79.8984 73.7135 79.5495C73.7338 79.2006 73.8919 78.8741 74.153 78.6417C74.4141 78.4094 74.7567 78.2902 75.1056 78.3105Z" fill="#1BD9B6"/>
<path d="M2.2406 46.0125C1.99445 46.2586 1.66061 46.3969 1.31252 46.3969C1.1396 46.3969 0.968392 46.3627 0.808723 46.2963C0.649054 46.23 0.504073 46.1327 0.38211 46.0101C0.260147 45.8876 0.163606 45.7421 0.0980343 45.5821C0.0324622 45.4221 -0.00084816 45.2507 1.64079e-05 45.0778C0.013911 33.1267 4.76763 21.6691 13.2183 13.2183C21.6691 4.76761 33.1267 0.0138932 45.0778 0C45.4259 0 45.7598 0.138278 46.0059 0.38442C46.252 0.630561 46.3903 0.964402 46.3903 1.3125C46.3903 1.6606 46.252 1.99444 46.0059 2.24058C45.7598 2.48672 45.4259 2.625 45.0778 2.625C33.8212 2.63716 23.0293 7.11466 15.0703 15.0749C7.11127 23.0351 2.63544 33.8278 2.62502 45.0844C2.62502 45.4325 2.48674 45.7663 2.2406 46.0125Z" fill="#1BD9B6"/>
<path fill-rule="evenodd" clip-rule="evenodd" d="M31.6769 59.6859C31.6441 59.6334 28.7697 55.1446 27.7853 53.6484C25.2456 49.8027 28.3366 42.2559 35.3125 35.3259C40.5822 30.0562 46.3047 27.0046 50.4653 27.0046C51.5597 26.978 52.6418 27.2406 53.6022 27.7659C55.2297 28.7043 59.5347 31.5787 59.7185 31.7034C60.4893 32.1999 61.1287 32.8753 61.5822 33.6721L64.0432 38.1215C64.4932 38.9401 64.6662 39.8825 64.536 40.8075C64.4059 41.7326 63.9797 42.5907 63.3213 43.2534L59.8694 46.7052L80.2132 67.049C80.3362 67.171 80.4338 67.3162 80.5004 67.4761C80.5671 67.6361 80.6014 67.8076 80.6014 67.9809C80.6014 68.1541 80.5671 68.3257 80.5004 68.4856C80.4338 68.6456 80.3362 68.7907 80.2132 68.9128L77.9819 71.1506L83.6125 76.7812C83.864 77.0275 84.0074 77.3636 84.0111 77.7155C84.0148 78.0675 83.8785 78.4066 83.6322 78.6581C83.3859 78.9096 83.0498 79.0529 82.6979 79.0566C82.3459 79.0603 82.0068 78.924 81.7553 78.6777L76.1247 73.0406L68.9453 80.2134C68.8233 80.3364 68.6782 80.434 68.5182 80.5007C68.3583 80.5673 68.1867 80.6016 68.0135 80.6016C67.8402 80.6016 67.6686 80.5673 67.5087 80.5007C67.3488 80.434 67.2036 80.3364 67.0816 80.2134L49.4547 62.5865C49.2076 62.3402 49.0684 62.0059 49.0678 61.6569C49.0671 61.308 49.2052 60.9732 49.4514 60.726C49.6977 60.4789 50.0321 60.3397 50.381 60.3391C50.7299 60.3385 51.0648 60.4765 51.3119 60.7227L68.0135 77.4374L77.4372 68.0137L57.9991 48.5624L43.2728 63.3084C42.6102 63.9668 41.7521 64.393 40.827 64.5231C39.9019 64.6533 38.9596 64.4803 38.141 64.0303L33.6916 61.5693C32.8764 61.1154 32.1847 60.4687 31.6769 59.6859ZM39.8866 39.8474C43.3056 36.4218 48.49 31.9265 52.1322 29.9578C49.5728 28.6649 43.3582 30.9618 37.1566 37.1568C30.7122 43.6078 28.4416 49.8749 29.9969 52.1981C30.125 52.3916 30.3097 52.6754 30.5337 53.0197C31.8135 54.9864 34.3766 58.9252 34.991 59.2659L39.4403 61.7268C39.7549 61.8974 40.1157 61.9626 40.4701 61.913C40.8244 61.8634 41.1535 61.7016 41.4091 61.4512L61.51 41.3896C61.7613 41.1346 61.9238 40.8054 61.9734 40.4508C62.0231 40.0963 61.9572 39.7351 61.7856 39.4209L59.3247 34.9715C58.7355 33.9053 56.2271 32.4266 55.2457 31.848C55.0793 31.7499 54.9568 31.6777 54.895 31.6378C53.7203 31.8674 48.641 34.8402 41.77 41.7112C39.4403 44.0146 37.465 46.1409 35.8638 48.0243C35.6384 48.2906 35.3164 48.4565 34.9688 48.4854C34.6211 48.5143 34.2762 48.4039 34.0099 48.1785C33.7436 47.9531 33.5777 47.6312 33.5488 47.2835C33.5199 46.9358 33.6303 46.5909 33.8556 46.3246C35.5028 44.3821 37.5307 42.2034 39.8866 39.8474Z" fill="#1BD9B6"/>
<path d="M45.0776 11.7203C45.4257 11.7203 45.7595 11.582 46.0056 11.3359C46.2518 11.0897 46.3901 10.7559 46.3901 10.4078C46.3901 10.0597 46.2518 9.72584 46.0056 9.4797C45.7595 9.23356 45.4257 9.09528 45.0776 9.09528C35.5359 9.1057 26.3881 12.9007 19.6412 19.6477C12.8942 26.3946 9.09923 35.5424 9.08881 45.084C9.08881 45.4321 9.22709 45.766 9.47323 46.0121C9.71937 46.2582 10.0532 46.3965 10.4013 46.3965C10.7494 46.3965 11.0832 46.2582 11.3294 46.0121C11.5755 45.766 11.7138 45.4321 11.7138 45.084C11.7208 36.2375 15.2381 27.7554 21.4935 21.5C27.7489 15.2446 36.2311 11.7272 45.0776 11.7203Z" fill="#1BD9B6"/>
<path d="M46.0056 20.8391C45.7595 21.0852 45.4257 21.2235 45.0776 21.2235C38.7524 21.2304 32.6883 23.7457 28.2151 28.2176C23.7419 32.6896 21.225 38.753 21.2163 45.0782C21.2163 45.4263 21.078 45.7601 20.8319 46.0062C20.5857 46.2524 20.2519 46.3907 19.9038 46.3907C19.5557 46.3907 19.2219 46.2524 18.9757 46.0062C18.7296 45.7601 18.5913 45.4263 18.5913 45.0782C18.6017 38.0574 21.3958 31.3272 26.3609 26.3634C31.3259 21.3996 38.0568 18.6072 45.0776 18.5985C45.4257 18.5985 45.7595 18.7368 46.0056 18.9829C46.2518 19.229 46.3901 19.5629 46.3901 19.911C46.3901 20.2591 46.2518 20.5929 46.0056 20.8391Z" fill="#1BD9B6"/>
</svg>
