<svg width="65" height="84" viewBox="0 0 65 84" fill="none" xmlns="http://www.w3.org/2000/svg">
<path d="M10.4297 7.44922C10.4297 6.77656 10.9803 6.21875 11.6442 6.21875C12.3081 6.21875 12.8587 6.76016 12.8587 7.44922V13.7C12.8587 14.3727 12.3081 14.9305 11.6442 14.9305C10.9803 14.9305 10.4297 14.3727 10.4297 13.7V7.44922Z" fill="#1BD9B6"/>
<path d="M20.842 7.44922C20.842 6.77656 21.3926 6.21875 22.0565 6.21875C22.7366 6.21875 23.271 6.76016 23.271 7.44922V13.7C23.271 14.3727 22.7204 14.9305 22.0565 14.9305C21.3926 14.9305 20.842 14.3727 20.842 13.7V7.44922Z" fill="#1BD9B6"/>
<path d="M31.2705 7.44922C31.2705 6.77656 31.8211 6.21875 32.485 6.21875C33.1489 6.21875 33.6995 6.76016 33.6995 7.44922V13.7C33.6995 14.3727 33.1489 14.9305 32.485 14.9305C31.8211 14.9305 31.2705 14.3727 31.2705 13.7V7.44922Z" fill="#1BD9B6"/>
<path d="M41.699 7.44922C41.699 6.77656 42.2496 6.21875 42.9135 6.21875C43.5774 6.21875 44.128 6.76016 44.128 7.44922V13.7C44.128 14.3727 43.5774 14.9305 42.9135 14.9305C42.2496 14.9305 41.699 14.3727 41.699 13.7V7.44922Z" fill="#1BD9B6"/>
<path d="M52.1113 7.44922C52.1113 6.77656 52.6619 6.21875 53.3258 6.21875C54.0059 6.21875 54.5403 6.76016 54.5403 7.44922V13.7C54.5403 14.3727 53.9897 14.9305 53.3258 14.9305C52.6619 14.9305 52.1113 14.3727 52.1113 13.7V7.44922Z" fill="#1BD9B6"/>
<path fill-rule="evenodd" clip-rule="evenodd" d="M3.78924 0H61.1784C63.2673 0 64.9676 1.72266 65 3.83906V17.2922C65 19.4086 63.2997 21.1313 61.2108 21.1313H60.2554V79.3242C60.2554 81.9 58.1826 84 55.6403 84H9.35974C6.81739 84 4.74464 81.9 4.74464 79.3242V21.1313H3.78924C1.7003 21.1313 0 19.4086 0 17.2922V3.83906C0 1.72266 1.7003 0 3.78924 0ZM55.6241 81.5391C56.8224 81.5391 57.8102 80.5547 57.8102 79.3242V30.4008H7.15745V38.0297H17.5374C18.2013 38.0297 18.7519 38.5875 18.7519 39.2602C18.7519 39.9328 18.2013 40.4906 17.5374 40.4906H7.15745V48.8906H14.1368C14.8007 48.8906 15.3513 49.4484 15.3513 50.1211C15.3513 50.7938 14.8007 51.3516 14.1368 51.3516H7.15745V59.768H17.5374C18.2013 59.768 18.7519 60.3258 18.7519 60.9984C18.7519 61.6711 18.2013 62.2289 17.5374 62.2289H7.15745V70.6289H14.1368C14.8007 70.6289 15.3513 71.1867 15.3513 71.8594C15.3513 72.532 14.8007 73.0898 14.1368 73.0898H7.15745V79.3242C7.15745 80.5383 8.12905 81.5391 9.34355 81.5391H55.6241ZM57.8102 27.9398V21.1313H7.15745V27.9398H57.8102ZM61.1784 18.6703C61.9233 18.6703 62.5386 18.0469 62.5386 17.2922H62.5548V3.83906C62.5548 3.08437 61.9395 2.46094 61.1946 2.46094H3.78924C3.04435 2.46094 2.429 3.08437 2.429 3.83906V17.2922C2.429 18.0469 3.04435 18.6703 3.78924 18.6703H61.1784Z" fill="#1BD9B6"/>
</svg>
