<svg width="64" height="84" viewBox="0 0 64 84" fill="none" xmlns="http://www.w3.org/2000/svg">
<path d="M9.06301 37.8477C8.39221 37.8477 7.83594 38.4055 7.83594 39.0781C7.83594 39.7508 8.39221 40.3086 9.06301 40.3086H54.9392C55.61 40.3086 56.1662 39.7508 56.1662 39.0781C56.1662 38.4055 55.61 37.8477 54.9392 37.8477H9.06301Z" fill="#1BD9B6"/>
<path d="M54.9392 49.8242H9.06301C8.39221 49.8242 7.83594 50.382 7.83594 51.0547C7.83594 51.7273 8.39221 52.2852 9.06301 52.2852H54.9392C55.61 52.2852 56.1662 51.7273 56.1662 51.0547C56.1662 50.382 55.6263 49.8242 54.9392 49.8242Z" fill="#1BD9B6"/>
<path d="M54.9392 63.3266H9.06301C8.39221 63.3266 7.83594 63.8844 7.83594 64.557C7.83594 65.2297 8.39221 65.7875 9.06301 65.7875H54.9555C55.6263 65.7875 56.1826 65.2297 56.1826 64.557C56.1826 63.8844 55.6263 63.3266 54.9392 63.3266Z" fill="#1BD9B6"/>
<path fill-rule="evenodd" clip-rule="evenodd" d="M15.7383 23.5101H9.48839C8.57218 23.5101 7.83594 22.7555 7.83594 21.8367V17.3742C7.83594 16.4555 8.57218 15.7172 9.48839 15.7172H15.7383V9.45C15.7383 8.53125 16.4745 7.79297 17.3907 7.79297H21.8409C22.7408 7.79297 23.4934 8.53125 23.4934 9.45V15.7336H29.7433C30.6595 15.7336 31.3957 16.4719 31.3957 17.3906V21.8531C31.3957 22.7719 30.6595 23.5101 29.7433 23.5101H23.4934V29.7773C23.4934 30.6961 22.7571 31.4344 21.8409 31.4344H17.3907C16.4745 31.4344 15.7383 30.6961 15.7383 29.7773V23.5101ZM16.9817 18.1781H10.2901V21.0492H16.9817C17.6525 21.0492 18.2088 21.607 18.2088 22.2797V28.9898H21.0556V22.2797C21.0556 21.607 21.6119 21.0492 22.2827 21.0492H28.9743V18.1945H22.2827C21.6119 18.1945 21.0556 17.6367 21.0556 16.9641V10.2539H18.2088V16.9477C18.2088 17.6203 17.6525 18.1781 16.9817 18.1781Z" fill="#1BD9B6"/>
<path fill-rule="evenodd" clip-rule="evenodd" d="M63.9877 18.5555C63.9877 18.5227 63.9877 18.4898 63.9714 18.4734V18.4406C63.9714 18.4078 63.955 18.375 63.9386 18.3422V18.3258C63.9305 18.3094 63.9264 18.293 63.9223 18.2766C63.9182 18.2602 63.9141 18.2437 63.9059 18.2273V18.2109L63.8568 18.1125C63.8568 18.1125 63.8568 18.0961 63.8405 18.0961C63.8323 18.0797 63.8241 18.0674 63.8159 18.0551C63.8078 18.0428 63.7996 18.0305 63.7914 18.0141C63.7914 18.0059 63.7873 18.0018 63.7832 17.9977C63.7791 17.9936 63.775 17.9895 63.775 17.9812C63.7711 17.9773 63.7671 17.9724 63.7632 17.9669C63.7589 17.9611 63.7547 17.9548 63.7505 17.9484C63.7423 17.9361 63.7341 17.9238 63.7259 17.9156C63.7259 17.9074 63.7219 17.9033 63.7178 17.8992C63.7137 17.8951 63.7096 17.891 63.7096 17.8828C63.7014 17.8664 63.6891 17.8541 63.6769 17.8418C63.6646 17.8295 63.6523 17.8172 63.6441 17.8008L46.1379 0.246094C46.1297 0.237891 46.1175 0.229687 46.1052 0.221484C46.0929 0.213281 46.0807 0.205078 46.0725 0.196875C46.0725 0.196875 46.0561 0.196875 46.0561 0.180469C46.0397 0.172266 46.0275 0.164062 46.0152 0.155859C46.0029 0.147656 45.9907 0.139453 45.9743 0.13125H45.9579L45.8598 0.0820312H45.8434C45.8107 0.065625 45.778 0.0492188 45.7453 0.0492188H45.7289C45.7125 0.0410156 45.6962 0.0369141 45.6798 0.0328125C45.6634 0.0287109 45.6471 0.0246094 45.6307 0.0164063H45.598C45.5788 0.0164063 45.5597 0.010776 45.5438 0.00611201C45.5326 0.00281448 45.523 0 45.5162 0H3.59941C1.61974 0 0 1.62422 0 3.60938V80.3906C0 82.3758 1.61974 84 3.59941 84H60.3883C62.368 84 63.9877 82.3758 63.9877 80.3906V18.6703C64.0041 18.6375 64.0041 18.5883 63.9877 18.5555ZM46.596 4.18359L59.8157 17.4398H47.5122C47.005 17.4398 46.596 17.0297 46.596 16.5211V4.18359ZM61.5499 80.3742C61.5499 81.0141 61.0428 81.5227 60.4047 81.5227H3.59941C2.96133 81.5227 2.45414 81.0141 2.45414 80.3742V3.59297C2.45414 2.95312 2.96133 2.44453 3.59941 2.44453H44.1255V16.5211C44.1255 18.3914 45.6307 19.9008 47.4959 19.9008H61.5336V80.3742H61.5499Z" fill="#1BD9B6"/>
</svg>
