<svg width="84" height="84" viewBox="0 0 84 84" fill="none" xmlns="http://www.w3.org/2000/svg">
<path d="M82.32 0H1.68C1.23444 0 0.807122 0.177 0.492061 0.492061C0.177 0.807122 0 1.23444 0 1.68V82.32C0 82.7656 0.177 83.1929 0.492061 83.5079C0.807122 83.823 1.23444 84 1.68 84H82.32C82.7656 84 83.1929 83.823 83.5079 83.5079C83.823 83.1929 84 82.7656 84 82.32V1.68C84 1.23444 83.823 0.807122 83.5079 0.492061C83.1929 0.177 82.7656 0 82.32 0ZM80.64 80.64H3.36V3.36H80.64V80.64ZM15.12 42.84C15.12 48.8208 21.2856 50.4 24.5616 50.4C25.0072 50.4 25.4345 50.223 25.7495 49.9079C26.0646 49.5929 26.2416 49.1656 26.2416 48.72C26.2416 48.2744 26.0646 47.8471 25.7495 47.5321C25.4345 47.217 25.0072 47.04 24.5616 47.04C24.3096 47.04 18.48 47.04 18.48 42.84C18.48 38.64 24.3096 38.64 24.5616 38.64H40.32V47.04H33.6C33.1544 47.04 32.7271 47.217 32.4121 47.5321C32.097 47.8471 31.92 48.2744 31.92 48.72C31.92 49.1656 32.097 49.5929 32.4121 49.9079C32.7271 50.223 33.1544 50.4 33.6 50.4H40.32V61.2696H28.6608C27.6907 61.2226 26.7211 61.3731 25.8109 61.712C24.9006 62.0509 24.0687 62.5711 23.3655 63.241C22.6623 63.911 22.1024 64.7168 21.7199 65.6096C21.3374 66.5024 21.1401 67.4635 21.1401 68.4348C21.1401 69.4061 21.3374 70.3672 21.7199 71.26C22.1024 72.1528 22.6623 72.9586 23.3655 73.6285C24.0687 74.2985 24.9006 74.8187 25.8109 75.1576C26.7211 75.4965 27.6907 75.647 28.6608 75.6C29.1064 75.6 29.5337 75.423 29.8487 75.1079C30.1638 74.7929 30.3408 74.3656 30.3408 73.92C30.3408 73.4744 30.1638 73.0471 29.8487 72.7321C29.5337 72.417 29.1064 72.24 28.6608 72.24C28.224 72.24 24.4104 72.1392 24.4104 68.4432C24.4104 64.7472 27.9552 64.6464 28.6608 64.6296H40.5384C40.6849 64.8881 40.8974 65.1032 41.1542 65.2528C41.411 65.4024 41.7028 65.4813 42 65.4813C42.2972 65.4813 42.589 65.4024 42.8458 65.2528C43.1026 65.1032 43.3151 64.8881 43.4616 64.6296H55.3392C55.776 64.6296 59.5896 64.7304 59.5896 68.4432C59.5756 68.9768 59.4525 69.5019 59.228 69.9862C59.0036 70.4706 58.6824 70.9038 58.2843 71.2594C57.8862 71.6151 57.4196 71.8855 56.9131 72.0541C56.4066 72.2227 55.871 72.286 55.3392 72.24C54.8936 72.24 54.4663 72.417 54.1513 72.7321C53.8362 73.0471 53.6592 73.4744 53.6592 73.92C53.6592 74.3656 53.8362 74.7929 54.1513 75.1079C54.4663 75.423 54.8936 75.6 55.3392 75.6C56.3093 75.647 57.2789 75.4965 58.1891 75.1576C59.0994 74.8187 59.9313 74.2985 60.6345 73.6285C61.3377 72.9586 61.8976 72.1528 62.2801 71.26C62.6626 70.3672 62.8599 69.4061 62.8599 68.4348C62.8599 67.4635 62.6626 66.5024 62.2801 65.6096C61.8976 64.7168 61.3377 63.911 60.6345 63.241C59.9313 62.5711 59.0994 62.0509 58.1891 61.712C57.2789 61.3731 56.3093 61.2226 55.3392 61.2696H43.68V50.4H50.4C50.8456 50.4 51.2729 50.223 51.5879 49.9079C51.903 49.5929 52.08 49.1656 52.08 48.72C52.08 48.2744 51.903 47.8471 51.5879 47.5321C51.2729 47.217 50.8456 47.04 50.4 47.04H43.68V38.64H59.4384C59.6904 38.64 65.52 38.724 65.52 42.84C65.52 46.956 59.6904 47.04 59.4384 47.04C58.9928 47.04 58.5655 47.217 58.2505 47.5321C57.9354 47.8471 57.7584 48.2744 57.7584 48.72C57.7584 49.1656 57.9354 49.5929 58.2505 49.9079C58.5655 50.223 58.9928 50.4 59.4384 50.4C62.7144 50.4 68.88 48.8208 68.88 42.84C68.9013 41.6482 68.6003 40.4727 68.0089 39.4378C67.4175 38.4028 66.5576 37.5467 65.52 36.96C66.6196 36.2324 67.5088 35.2286 68.0985 34.0492C68.6882 32.8699 68.9577 31.5563 68.88 30.24C68.88 25.032 65.1 22.848 61.8912 22.1256C62.6084 21.0472 62.9778 19.7748 62.9496 18.48C62.9496 13.1712 57.9096 11.76 55.3392 11.76H43.68C43.68 11.3144 43.503 10.8871 43.1879 10.5721C42.8729 10.257 42.4456 10.08 42 10.08C41.5544 10.08 41.1271 10.257 40.8121 10.5721C40.497 10.8871 40.32 11.3144 40.32 11.76H28.6608C26.0232 11.76 21.0504 13.1712 21.0504 18.48C21.0222 19.7748 21.3916 21.0472 22.1088 22.1256C18.9 22.848 15.12 25.032 15.12 30.24C15.0423 31.5563 15.3118 32.8699 15.9015 34.0492C16.4912 35.2286 17.3804 36.2324 18.48 36.96C17.4424 37.5467 16.5825 38.4028 15.9911 39.4378C15.3997 40.4727 15.0987 41.6482 15.12 42.84ZM65.52 30.24C65.52 35.0952 60.06 35.28 59.4384 35.28H43.68V25.2H59.4384C60.06 25.2 65.52 25.3848 65.52 30.24ZM55.3392 15.12C55.776 15.12 59.5896 15.2208 59.5896 18.48C59.5896 21.7392 55.776 21.84 55.3392 21.84H43.68V15.12H55.3392ZM28.6608 15.12H40.32V21.84H28.6608C28.224 21.84 24.4104 21.7392 24.4104 18.48C24.4104 15.2208 28.224 15.12 28.6608 15.12ZM24.5616 25.2H40.32V35.28H24.5616C23.94 35.28 18.48 35.0952 18.48 30.24C18.48 25.3848 23.94 25.2 24.5616 25.2Z" fill="#1BD9B6"/>
</svg>
