<svg width="84" height="84" viewBox="0 0 84 84" fill="none" xmlns="http://www.w3.org/2000/svg">
<path d="M42 0C20.0616 0 0 18.2175 0 40.6875C0 41.0356 0.138281 41.3694 0.384422 41.6156C0.630564 41.8617 0.964403 42 1.3125 42C1.6606 42 1.99444 41.8617 2.24058 41.6156C2.48672 41.3694 2.625 41.0356 2.625 40.6875C2.625 20.4094 21 2.625 42 2.625C48.4814 2.62476 54.8627 4.22451 60.5776 7.28228C66.2924 10.3401 71.164 14.7613 74.7601 20.1536C78.3562 25.546 80.5655 31.7426 81.1921 38.1937C81.8186 44.6448 80.843 51.1508 78.3517 57.1344C75.8605 63.1179 71.9307 68.394 66.9111 72.4943C61.8914 76.5946 55.9373 79.3924 49.5769 80.6394C43.2165 81.8864 36.6467 81.544 30.4504 79.6426C24.2541 77.7412 18.6231 74.3396 14.0569 69.7397C13.8115 69.4925 13.4779 69.353 13.1296 69.3518C12.7814 69.3505 12.4468 69.4877 12.1997 69.7331C11.9525 69.9785 11.813 70.3121 11.8118 70.6604C11.8105 71.0087 11.9477 71.3432 12.1931 71.5903C17.0638 76.4965 23.0703 80.1246 29.6796 82.1525C36.2888 84.1804 43.2965 84.5454 50.0807 83.2152C56.8649 81.885 63.2158 78.9007 68.5699 74.527C73.924 70.1534 78.1156 64.5258 80.7729 58.1435C83.4302 51.7612 84.4709 44.8217 83.8028 37.9407C83.1346 31.0596 80.7781 24.45 76.9426 18.6982C73.107 12.9464 67.9109 8.23035 61.8154 4.96856C55.7198 1.70677 48.9134 0.000100484 42 0Z" fill="#1BD9B6"/>
<path d="M42.0007 72.8437C37.1911 72.8558 32.4466 71.7315 28.1538 69.5625C27.8447 69.4183 27.4915 69.4002 27.1692 69.512C26.8469 69.6237 26.5808 69.8566 26.4272 70.1611C26.2737 70.4657 26.2447 70.8181 26.3465 71.1437C26.4483 71.4693 26.6728 71.7424 26.9726 71.9053C31.6306 74.2622 36.7803 75.4833 42.0007 75.4687C48.5594 75.463 54.9719 73.5304 60.4415 69.9109C65.911 66.2914 70.1966 61.1446 72.7657 55.11C75.3348 49.0754 76.0743 42.419 74.8921 35.9677C73.71 29.5164 70.6584 23.5546 66.1165 18.823C61.5746 14.0914 55.7426 10.7986 49.345 9.35359C42.9474 7.90864 36.2663 8.37524 30.1317 10.6954C23.9971 13.0156 18.6794 17.0871 14.8393 22.4041C10.9991 27.7211 8.80587 34.0492 8.53194 40.6022C8.52063 40.9503 8.64806 41.2886 8.8862 41.5428C9.12435 41.7969 9.45369 41.946 9.80179 41.9573C10.1499 41.9687 10.4882 41.8412 10.7424 41.6031C10.9965 41.3649 11.1456 41.0356 11.1569 40.6875C11.4141 34.6497 13.4393 28.8205 16.9809 23.9239C20.5226 19.0272 25.4247 15.2789 31.0784 13.1443C36.7321 11.0098 42.8883 10.5831 48.7824 11.9174C54.6765 13.2516 60.0488 16.2879 64.2321 20.6492C68.4154 25.0105 71.2253 30.5046 72.3129 36.4491C73.4005 42.3937 72.7178 48.5268 70.3497 54.0867C67.9815 59.6466 64.0322 64.3883 58.9923 67.723C53.9524 71.0576 48.0439 72.8383 42.0007 72.8437Z" fill="#1BD9B6"/>
<path fill-rule="evenodd" clip-rule="evenodd" d="M56.8686 57.9746C57.8531 58.9592 58.4062 60.2946 58.4062 61.687C58.4062 63.0793 57.8531 64.4147 56.8686 65.3993C55.884 66.3838 54.5486 66.937 53.1562 66.937H1.3125C0.964403 66.937 0.630564 66.7987 0.384422 66.5525C0.138281 66.3064 0 65.9725 0 65.6245C0 65.2764 0.138281 64.9425 0.384422 64.6964C0.630564 64.4502 0.964403 64.312 1.3125 64.312H53.1562C53.8524 64.312 54.5201 64.0354 55.0124 63.5431C55.5047 63.0508 55.7812 62.3831 55.7812 61.687C55.7812 60.9908 55.5047 60.3231 55.0124 59.8308C54.5201 59.3385 53.8524 59.062 53.1562 59.062H1.3125C0.964403 59.062 0.630564 58.9237 0.384422 58.6775C0.138281 58.4314 0 58.0975 0 57.7495C0 57.4014 0.138281 57.0675 0.384422 56.8214C0.630564 56.5752 0.964403 56.437 1.3125 56.437H14.5359L12.5672 51.6857C12.5017 51.5263 12.4682 51.3555 12.4687 51.1831C12.4692 51.0108 12.5037 50.8402 12.5701 50.6812C12.6365 50.5221 12.7336 50.3777 12.8559 50.2562C12.9781 50.1346 13.1231 50.0384 13.2825 49.9729C13.4419 49.9074 13.6127 49.8739 13.7851 49.8744C13.9574 49.8749 14.128 49.9094 14.2871 49.9758C14.4461 50.0422 14.5905 50.1393 14.712 50.2616C14.8336 50.3838 14.9298 50.5288 14.9953 50.6882L17.3644 56.437H33.1931C34.4115 56.437 35.5799 55.953 36.4414 55.0915C37.3029 54.23 37.7869 53.0615 37.7869 51.8432C37.7869 50.6249 37.3029 49.4564 36.4414 48.5949C35.5799 47.7334 34.4115 47.2495 33.1931 47.2495H21.3347L22.5356 50.4585L29.4853 49.9138C29.8334 49.8868 30.178 49.9993 30.4432 50.2263C30.7084 50.4534 30.8726 50.7765 30.8995 51.1246C30.9265 51.4727 30.8141 51.8173 30.587 52.0825C30.36 52.3477 30.0368 52.5118 29.6888 52.5388L21.7612 53.1557H21.6562C21.3892 53.1552 21.1286 53.0733 20.9094 52.9209C20.6901 52.7684 20.5225 52.5527 20.4291 52.3026L18.5325 47.2495H1.3125C0.964403 47.2495 0.630564 47.1112 0.384422 46.865C0.138281 46.6189 0 46.285 0 45.937C0 45.5889 0.138281 45.255 0.384422 45.0089C0.630564 44.7627 0.964403 44.6245 1.3125 44.6245H33.1931C34.2477 44.6219 35.2909 44.8422 36.2544 45.2708C37.218 45.6994 38.0801 46.3267 38.7844 47.1116C39.2801 45.9631 40.0223 44.9376 40.9585 44.1078C41.8946 43.278 43.0018 42.6643 44.2016 42.3101C45.4014 41.9559 46.6643 41.8698 47.9011 42.0581C49.1378 42.2463 50.318 42.7043 51.358 43.3994C52.398 44.0946 53.2725 45.0099 53.9194 46.0807C54.5662 47.1514 54.9697 48.3513 55.1012 49.5953C55.2327 50.8394 55.0891 52.0971 54.6804 53.2794C54.2717 54.4617 53.608 55.5397 52.7363 56.437H53.1562C54.5486 56.437 55.884 56.9901 56.8686 57.9746ZM39.6178 55.4263C39.411 55.7829 39.1739 56.1211 38.9091 56.437H40.4512C40.1489 56.1211 39.8703 55.7833 39.6178 55.4263ZM43.3124 55.4416C44.2837 56.0906 45.4256 56.437 46.5938 56.437C47.3694 56.437 48.1374 56.2842 48.854 55.9874C49.5706 55.6905 50.2217 55.2555 50.7701 54.7071C51.3185 54.1586 51.7536 53.5075 52.0504 52.7909C52.3472 52.0743 52.5 51.3063 52.5 50.5307C52.5 49.3626 52.1536 48.2206 51.5046 47.2494C50.8556 46.2781 49.9332 45.5211 48.854 45.074C47.7747 44.627 46.5872 44.51 45.4415 44.7379C44.2958 44.9658 43.2434 45.5283 42.4174 46.3544C41.5914 47.1804 41.0289 48.2327 40.801 49.3784C40.5731 50.5242 40.6901 51.7117 41.1371 52.7909C41.5841 53.8702 42.3411 54.7926 43.3124 55.4416Z" fill="#1BD9B6"/>
</svg>
